G04 #@! TF.GenerationSoftware,KiCad,Pcbnew,8.0.4*
G04 #@! TF.CreationDate,2025-01-19T11:33:19+01:00*
G04 #@! TF.ProjectId,nerdaxe-gamma,6e657264-6178-4652-9d67-616d6d612e6b,rev?*
G04 #@! TF.SameCoordinates,Original*
G04 #@! TF.FileFunction,Legend,Top*
G04 #@! TF.FilePolarity,Positive*
%FSLAX46Y46*%
G04 Gerber Fmt 4.6, Leading zero omitted, Abs format (unit mm)*
G04 Created by KiCad (PCBNEW 8.0.4) date 2025-01-19 11:33:19*
%MOMM*%
%LPD*%
G01*
G04 APERTURE LIST*
G04 Aperture macros list*
%AMRoundRect*
0 Rectangle with rounded corners*
0 $1 Rounding radius*
0 $2 $3 $4 $5 $6 $7 $8 $9 X,Y pos of 4 corners*
0 Add a 4 corners polygon primitive as box body*
4,1,4,$2,$3,$4,$5,$6,$7,$8,$9,$2,$3,0*
0 Add four circle primitives for the rounded corners*
1,1,$1+$1,$2,$3*
1,1,$1+$1,$4,$5*
1,1,$1+$1,$6,$7*
1,1,$1+$1,$8,$9*
0 Add four rect primitives between the rounded corners*
20,1,$1+$1,$2,$3,$4,$5,0*
20,1,$1+$1,$4,$5,$6,$7,0*
20,1,$1+$1,$6,$7,$8,$9,0*
20,1,$1+$1,$8,$9,$2,$3,0*%
G04 Aperture macros list end*
%ADD10C,0.150000*%
%ADD11C,0.120000*%
%ADD12C,0.313180*%
%ADD13C,0.254165*%
%ADD14C,0.010000*%
%ADD15C,1.500000*%
%ADD16RoundRect,0.135000X0.135000X0.185000X-0.135000X0.185000X-0.135000X-0.185000X0.135000X-0.185000X0*%
%ADD17RoundRect,0.250000X-1.100000X0.325000X-1.100000X-0.325000X1.100000X-0.325000X1.100000X0.325000X0*%
%ADD18C,2.000000*%
%ADD19RoundRect,0.140000X0.140000X0.170000X-0.140000X0.170000X-0.140000X-0.170000X0.140000X-0.170000X0*%
%ADD20RoundRect,0.140000X0.170000X-0.140000X0.170000X0.140000X-0.170000X0.140000X-0.170000X-0.140000X0*%
%ADD21RoundRect,0.140000X-0.170000X0.140000X-0.170000X-0.140000X0.170000X-0.140000X0.170000X0.140000X0*%
%ADD22RoundRect,0.135000X-0.185000X0.135000X-0.185000X-0.135000X0.185000X-0.135000X0.185000X0.135000X0*%
%ADD23C,3.000000*%
%ADD24RoundRect,0.150000X-0.512500X-0.150000X0.512500X-0.150000X0.512500X0.150000X-0.512500X0.150000X0*%
%ADD25R,1.100000X1.300000*%
%ADD26RoundRect,0.140000X-0.140000X-0.170000X0.140000X-0.170000X0.140000X0.170000X-0.140000X0.170000X0*%
%ADD27C,0.800000*%
%ADD28C,6.000000*%
%ADD29RoundRect,0.250000X-0.650000X0.325000X-0.650000X-0.325000X0.650000X-0.325000X0.650000X0.325000X0*%
%ADD30RoundRect,0.135000X0.185000X-0.135000X0.185000X0.135000X-0.185000X0.135000X-0.185000X-0.135000X0*%
%ADD31R,0.400000X1.100000*%
%ADD32C,3.500000*%
%ADD33RoundRect,0.100000X-0.637500X-0.100000X0.637500X-0.100000X0.637500X0.100000X-0.637500X0.100000X0*%
%ADD34RoundRect,0.135000X-0.135000X-0.185000X0.135000X-0.185000X0.135000X0.185000X-0.135000X0.185000X0*%
%ADD35RoundRect,0.250000X-0.650000X1.000000X-0.650000X-1.000000X0.650000X-1.000000X0.650000X1.000000X0*%
%ADD36C,1.295400*%
%ADD37C,1.574800*%
%ADD38C,1.700000*%
%ADD39C,1.600000*%
%ADD40C,1.800000*%
%ADD41C,0.400000*%
G04 APERTURE END LIST*
D10*
X127135095Y-76927819D02*
X127706523Y-76927819D01*
X127420809Y-77927819D02*
X127420809Y-76927819D01*
X128039857Y-77927819D02*
X128039857Y-76927819D01*
X128039857Y-76927819D02*
X128420809Y-76927819D01*
X128420809Y-76927819D02*
X128516047Y-76975438D01*
X128516047Y-76975438D02*
X128563666Y-77023057D01*
X128563666Y-77023057D02*
X128611285Y-77118295D01*
X128611285Y-77118295D02*
X128611285Y-77261152D01*
X128611285Y-77261152D02*
X128563666Y-77356390D01*
X128563666Y-77356390D02*
X128516047Y-77404009D01*
X128516047Y-77404009D02*
X128420809Y-77451628D01*
X128420809Y-77451628D02*
X128039857Y-77451628D01*
X129563666Y-77927819D02*
X128992238Y-77927819D01*
X129277952Y-77927819D02*
X129277952Y-76927819D01*
X129277952Y-76927819D02*
X129182714Y-77070676D01*
X129182714Y-77070676D02*
X129087476Y-77165914D01*
X129087476Y-77165914D02*
X128992238Y-77213533D01*
X120307142Y-105414819D02*
X119973809Y-104938628D01*
X119735714Y-105414819D02*
X119735714Y-104414819D01*
X119735714Y-104414819D02*
X120116666Y-104414819D01*
X120116666Y-104414819D02*
X120211904Y-104462438D01*
X120211904Y-104462438D02*
X120259523Y-104510057D01*
X120259523Y-104510057D02*
X120307142Y-104605295D01*
X120307142Y-104605295D02*
X120307142Y-104748152D01*
X120307142Y-104748152D02*
X120259523Y-104843390D01*
X120259523Y-104843390D02*
X120211904Y-104891009D01*
X120211904Y-104891009D02*
X120116666Y-104938628D01*
X120116666Y-104938628D02*
X119735714Y-104938628D01*
X120688095Y-104510057D02*
X120735714Y-104462438D01*
X120735714Y-104462438D02*
X120830952Y-104414819D01*
X120830952Y-104414819D02*
X121069047Y-104414819D01*
X121069047Y-104414819D02*
X121164285Y-104462438D01*
X121164285Y-104462438D02*
X121211904Y-104510057D01*
X121211904Y-104510057D02*
X121259523Y-104605295D01*
X121259523Y-104605295D02*
X121259523Y-104700533D01*
X121259523Y-104700533D02*
X121211904Y-104843390D01*
X121211904Y-104843390D02*
X120640476Y-105414819D01*
X120640476Y-105414819D02*
X121259523Y-105414819D01*
X122211904Y-105414819D02*
X121640476Y-105414819D01*
X121926190Y-105414819D02*
X121926190Y-104414819D01*
X121926190Y-104414819D02*
X121830952Y-104557676D01*
X121830952Y-104557676D02*
X121735714Y-104652914D01*
X121735714Y-104652914D02*
X121640476Y-104700533D01*
X111117580Y-143898857D02*
X111165200Y-143946476D01*
X111165200Y-143946476D02*
X111212819Y-144089333D01*
X111212819Y-144089333D02*
X111212819Y-144184571D01*
X111212819Y-144184571D02*
X111165200Y-144327428D01*
X111165200Y-144327428D02*
X111069961Y-144422666D01*
X111069961Y-144422666D02*
X110974723Y-144470285D01*
X110974723Y-144470285D02*
X110784247Y-144517904D01*
X110784247Y-144517904D02*
X110641390Y-144517904D01*
X110641390Y-144517904D02*
X110450914Y-144470285D01*
X110450914Y-144470285D02*
X110355676Y-144422666D01*
X110355676Y-144422666D02*
X110260438Y-144327428D01*
X110260438Y-144327428D02*
X110212819Y-144184571D01*
X110212819Y-144184571D02*
X110212819Y-144089333D01*
X110212819Y-144089333D02*
X110260438Y-143946476D01*
X110260438Y-143946476D02*
X110308057Y-143898857D01*
X110212819Y-142994095D02*
X110212819Y-143470285D01*
X110212819Y-143470285D02*
X110689009Y-143517904D01*
X110689009Y-143517904D02*
X110641390Y-143470285D01*
X110641390Y-143470285D02*
X110593771Y-143375047D01*
X110593771Y-143375047D02*
X110593771Y-143136952D01*
X110593771Y-143136952D02*
X110641390Y-143041714D01*
X110641390Y-143041714D02*
X110689009Y-142994095D01*
X110689009Y-142994095D02*
X110784247Y-142946476D01*
X110784247Y-142946476D02*
X111022342Y-142946476D01*
X111022342Y-142946476D02*
X111117580Y-142994095D01*
X111117580Y-142994095D02*
X111165200Y-143041714D01*
X111165200Y-143041714D02*
X111212819Y-143136952D01*
X111212819Y-143136952D02*
X111212819Y-143375047D01*
X111212819Y-143375047D02*
X111165200Y-143470285D01*
X111165200Y-143470285D02*
X111117580Y-143517904D01*
X111212819Y-141994095D02*
X111212819Y-142565523D01*
X111212819Y-142279809D02*
X110212819Y-142279809D01*
X110212819Y-142279809D02*
X110355676Y-142375047D01*
X110355676Y-142375047D02*
X110450914Y-142470285D01*
X110450914Y-142470285D02*
X110498533Y-142565523D01*
X113231905Y-135644819D02*
X113803333Y-135644819D01*
X113517619Y-136644819D02*
X113517619Y-135644819D01*
X114136667Y-136644819D02*
X114136667Y-135644819D01*
X114136667Y-135644819D02*
X114517619Y-135644819D01*
X114517619Y-135644819D02*
X114612857Y-135692438D01*
X114612857Y-135692438D02*
X114660476Y-135740057D01*
X114660476Y-135740057D02*
X114708095Y-135835295D01*
X114708095Y-135835295D02*
X114708095Y-135978152D01*
X114708095Y-135978152D02*
X114660476Y-136073390D01*
X114660476Y-136073390D02*
X114612857Y-136121009D01*
X114612857Y-136121009D02*
X114517619Y-136168628D01*
X114517619Y-136168628D02*
X114136667Y-136168628D01*
X115660476Y-136644819D02*
X115089048Y-136644819D01*
X115374762Y-136644819D02*
X115374762Y-135644819D01*
X115374762Y-135644819D02*
X115279524Y-135787676D01*
X115279524Y-135787676D02*
X115184286Y-135882914D01*
X115184286Y-135882914D02*
X115089048Y-135930533D01*
X116136667Y-136644819D02*
X116327143Y-136644819D01*
X116327143Y-136644819D02*
X116422381Y-136597200D01*
X116422381Y-136597200D02*
X116470000Y-136549580D01*
X116470000Y-136549580D02*
X116565238Y-136406723D01*
X116565238Y-136406723D02*
X116612857Y-136216247D01*
X116612857Y-136216247D02*
X116612857Y-135835295D01*
X116612857Y-135835295D02*
X116565238Y-135740057D01*
X116565238Y-135740057D02*
X116517619Y-135692438D01*
X116517619Y-135692438D02*
X116422381Y-135644819D01*
X116422381Y-135644819D02*
X116231905Y-135644819D01*
X116231905Y-135644819D02*
X116136667Y-135692438D01*
X116136667Y-135692438D02*
X116089048Y-135740057D01*
X116089048Y-135740057D02*
X116041429Y-135835295D01*
X116041429Y-135835295D02*
X116041429Y-136073390D01*
X116041429Y-136073390D02*
X116089048Y-136168628D01*
X116089048Y-136168628D02*
X116136667Y-136216247D01*
X116136667Y-136216247D02*
X116231905Y-136263866D01*
X116231905Y-136263866D02*
X116422381Y-136263866D01*
X116422381Y-136263866D02*
X116517619Y-136216247D01*
X116517619Y-136216247D02*
X116565238Y-136168628D01*
X116565238Y-136168628D02*
X116612857Y-136073390D01*
X98137142Y-103589580D02*
X98089523Y-103637200D01*
X98089523Y-103637200D02*
X97946666Y-103684819D01*
X97946666Y-103684819D02*
X97851428Y-103684819D01*
X97851428Y-103684819D02*
X97708571Y-103637200D01*
X97708571Y-103637200D02*
X97613333Y-103541961D01*
X97613333Y-103541961D02*
X97565714Y-103446723D01*
X97565714Y-103446723D02*
X97518095Y-103256247D01*
X97518095Y-103256247D02*
X97518095Y-103113390D01*
X97518095Y-103113390D02*
X97565714Y-102922914D01*
X97565714Y-102922914D02*
X97613333Y-102827676D01*
X97613333Y-102827676D02*
X97708571Y-102732438D01*
X97708571Y-102732438D02*
X97851428Y-102684819D01*
X97851428Y-102684819D02*
X97946666Y-102684819D01*
X97946666Y-102684819D02*
X98089523Y-102732438D01*
X98089523Y-102732438D02*
X98137142Y-102780057D01*
X98994285Y-103018152D02*
X98994285Y-103684819D01*
X98756190Y-102637200D02*
X98518095Y-103351485D01*
X98518095Y-103351485D02*
X99137142Y-103351485D01*
X100041904Y-103684819D02*
X99470476Y-103684819D01*
X99756190Y-103684819D02*
X99756190Y-102684819D01*
X99756190Y-102684819D02*
X99660952Y-102827676D01*
X99660952Y-102827676D02*
X99565714Y-102922914D01*
X99565714Y-102922914D02*
X99470476Y-102970533D01*
X123961905Y-121484819D02*
X124533333Y-121484819D01*
X124247619Y-122484819D02*
X124247619Y-121484819D01*
X124866667Y-122484819D02*
X124866667Y-121484819D01*
X124866667Y-121484819D02*
X125247619Y-121484819D01*
X125247619Y-121484819D02*
X125342857Y-121532438D01*
X125342857Y-121532438D02*
X125390476Y-121580057D01*
X125390476Y-121580057D02*
X125438095Y-121675295D01*
X125438095Y-121675295D02*
X125438095Y-121818152D01*
X125438095Y-121818152D02*
X125390476Y-121913390D01*
X125390476Y-121913390D02*
X125342857Y-121961009D01*
X125342857Y-121961009D02*
X125247619Y-122008628D01*
X125247619Y-122008628D02*
X124866667Y-122008628D01*
X125819048Y-121580057D02*
X125866667Y-121532438D01*
X125866667Y-121532438D02*
X125961905Y-121484819D01*
X125961905Y-121484819D02*
X126200000Y-121484819D01*
X126200000Y-121484819D02*
X126295238Y-121532438D01*
X126295238Y-121532438D02*
X126342857Y-121580057D01*
X126342857Y-121580057D02*
X126390476Y-121675295D01*
X126390476Y-121675295D02*
X126390476Y-121770533D01*
X126390476Y-121770533D02*
X126342857Y-121913390D01*
X126342857Y-121913390D02*
X125771429Y-122484819D01*
X125771429Y-122484819D02*
X126390476Y-122484819D01*
X127342857Y-122484819D02*
X126771429Y-122484819D01*
X127057143Y-122484819D02*
X127057143Y-121484819D01*
X127057143Y-121484819D02*
X126961905Y-121627676D01*
X126961905Y-121627676D02*
X126866667Y-121722914D01*
X126866667Y-121722914D02*
X126771429Y-121770533D01*
X118241905Y-120124819D02*
X118813333Y-120124819D01*
X118527619Y-121124819D02*
X118527619Y-120124819D01*
X119146667Y-121124819D02*
X119146667Y-120124819D01*
X119146667Y-120124819D02*
X119527619Y-120124819D01*
X119527619Y-120124819D02*
X119622857Y-120172438D01*
X119622857Y-120172438D02*
X119670476Y-120220057D01*
X119670476Y-120220057D02*
X119718095Y-120315295D01*
X119718095Y-120315295D02*
X119718095Y-120458152D01*
X119718095Y-120458152D02*
X119670476Y-120553390D01*
X119670476Y-120553390D02*
X119622857Y-120601009D01*
X119622857Y-120601009D02*
X119527619Y-120648628D01*
X119527619Y-120648628D02*
X119146667Y-120648628D01*
X120670476Y-121124819D02*
X120099048Y-121124819D01*
X120384762Y-121124819D02*
X120384762Y-120124819D01*
X120384762Y-120124819D02*
X120289524Y-120267676D01*
X120289524Y-120267676D02*
X120194286Y-120362914D01*
X120194286Y-120362914D02*
X120099048Y-120410533D01*
X121241905Y-120553390D02*
X121146667Y-120505771D01*
X121146667Y-120505771D02*
X121099048Y-120458152D01*
X121099048Y-120458152D02*
X121051429Y-120362914D01*
X121051429Y-120362914D02*
X121051429Y-120315295D01*
X121051429Y-120315295D02*
X121099048Y-120220057D01*
X121099048Y-120220057D02*
X121146667Y-120172438D01*
X121146667Y-120172438D02*
X121241905Y-120124819D01*
X121241905Y-120124819D02*
X121432381Y-120124819D01*
X121432381Y-120124819D02*
X121527619Y-120172438D01*
X121527619Y-120172438D02*
X121575238Y-120220057D01*
X121575238Y-120220057D02*
X121622857Y-120315295D01*
X121622857Y-120315295D02*
X121622857Y-120362914D01*
X121622857Y-120362914D02*
X121575238Y-120458152D01*
X121575238Y-120458152D02*
X121527619Y-120505771D01*
X121527619Y-120505771D02*
X121432381Y-120553390D01*
X121432381Y-120553390D02*
X121241905Y-120553390D01*
X121241905Y-120553390D02*
X121146667Y-120601009D01*
X121146667Y-120601009D02*
X121099048Y-120648628D01*
X121099048Y-120648628D02*
X121051429Y-120743866D01*
X121051429Y-120743866D02*
X121051429Y-120934342D01*
X121051429Y-120934342D02*
X121099048Y-121029580D01*
X121099048Y-121029580D02*
X121146667Y-121077200D01*
X121146667Y-121077200D02*
X121241905Y-121124819D01*
X121241905Y-121124819D02*
X121432381Y-121124819D01*
X121432381Y-121124819D02*
X121527619Y-121077200D01*
X121527619Y-121077200D02*
X121575238Y-121029580D01*
X121575238Y-121029580D02*
X121622857Y-120934342D01*
X121622857Y-120934342D02*
X121622857Y-120743866D01*
X121622857Y-120743866D02*
X121575238Y-120648628D01*
X121575238Y-120648628D02*
X121527619Y-120601009D01*
X121527619Y-120601009D02*
X121432381Y-120553390D01*
X101967142Y-122729580D02*
X101919523Y-122777200D01*
X101919523Y-122777200D02*
X101776666Y-122824819D01*
X101776666Y-122824819D02*
X101681428Y-122824819D01*
X101681428Y-122824819D02*
X101538571Y-122777200D01*
X101538571Y-122777200D02*
X101443333Y-122681961D01*
X101443333Y-122681961D02*
X101395714Y-122586723D01*
X101395714Y-122586723D02*
X101348095Y-122396247D01*
X101348095Y-122396247D02*
X101348095Y-122253390D01*
X101348095Y-122253390D02*
X101395714Y-122062914D01*
X101395714Y-122062914D02*
X101443333Y-121967676D01*
X101443333Y-121967676D02*
X101538571Y-121872438D01*
X101538571Y-121872438D02*
X101681428Y-121824819D01*
X101681428Y-121824819D02*
X101776666Y-121824819D01*
X101776666Y-121824819D02*
X101919523Y-121872438D01*
X101919523Y-121872438D02*
X101967142Y-121920057D01*
X102824285Y-122158152D02*
X102824285Y-122824819D01*
X102586190Y-121777200D02*
X102348095Y-122491485D01*
X102348095Y-122491485D02*
X102967142Y-122491485D01*
X103300476Y-121920057D02*
X103348095Y-121872438D01*
X103348095Y-121872438D02*
X103443333Y-121824819D01*
X103443333Y-121824819D02*
X103681428Y-121824819D01*
X103681428Y-121824819D02*
X103776666Y-121872438D01*
X103776666Y-121872438D02*
X103824285Y-121920057D01*
X103824285Y-121920057D02*
X103871904Y-122015295D01*
X103871904Y-122015295D02*
X103871904Y-122110533D01*
X103871904Y-122110533D02*
X103824285Y-122253390D01*
X103824285Y-122253390D02*
X103252857Y-122824819D01*
X103252857Y-122824819D02*
X103871904Y-122824819D01*
X108534780Y-107942857D02*
X108582400Y-107990476D01*
X108582400Y-107990476D02*
X108630019Y-108133333D01*
X108630019Y-108133333D02*
X108630019Y-108228571D01*
X108630019Y-108228571D02*
X108582400Y-108371428D01*
X108582400Y-108371428D02*
X108487161Y-108466666D01*
X108487161Y-108466666D02*
X108391923Y-108514285D01*
X108391923Y-108514285D02*
X108201447Y-108561904D01*
X108201447Y-108561904D02*
X108058590Y-108561904D01*
X108058590Y-108561904D02*
X107868114Y-108514285D01*
X107868114Y-108514285D02*
X107772876Y-108466666D01*
X107772876Y-108466666D02*
X107677638Y-108371428D01*
X107677638Y-108371428D02*
X107630019Y-108228571D01*
X107630019Y-108228571D02*
X107630019Y-108133333D01*
X107630019Y-108133333D02*
X107677638Y-107990476D01*
X107677638Y-107990476D02*
X107725257Y-107942857D01*
X107963352Y-107085714D02*
X108630019Y-107085714D01*
X107582400Y-107323809D02*
X108296685Y-107561904D01*
X108296685Y-107561904D02*
X108296685Y-106942857D01*
X107630019Y-106371428D02*
X107630019Y-106276190D01*
X107630019Y-106276190D02*
X107677638Y-106180952D01*
X107677638Y-106180952D02*
X107725257Y-106133333D01*
X107725257Y-106133333D02*
X107820495Y-106085714D01*
X107820495Y-106085714D02*
X108010971Y-106038095D01*
X108010971Y-106038095D02*
X108249066Y-106038095D01*
X108249066Y-106038095D02*
X108439542Y-106085714D01*
X108439542Y-106085714D02*
X108534780Y-106133333D01*
X108534780Y-106133333D02*
X108582400Y-106180952D01*
X108582400Y-106180952D02*
X108630019Y-106276190D01*
X108630019Y-106276190D02*
X108630019Y-106371428D01*
X108630019Y-106371428D02*
X108582400Y-106466666D01*
X108582400Y-106466666D02*
X108534780Y-106514285D01*
X108534780Y-106514285D02*
X108439542Y-106561904D01*
X108439542Y-106561904D02*
X108249066Y-106609523D01*
X108249066Y-106609523D02*
X108010971Y-106609523D01*
X108010971Y-106609523D02*
X107820495Y-106561904D01*
X107820495Y-106561904D02*
X107725257Y-106514285D01*
X107725257Y-106514285D02*
X107677638Y-106466666D01*
X107677638Y-106466666D02*
X107630019Y-106371428D01*
X93884819Y-122752857D02*
X93408628Y-123086190D01*
X93884819Y-123324285D02*
X92884819Y-123324285D01*
X92884819Y-123324285D02*
X92884819Y-122943333D01*
X92884819Y-122943333D02*
X92932438Y-122848095D01*
X92932438Y-122848095D02*
X92980057Y-122800476D01*
X92980057Y-122800476D02*
X93075295Y-122752857D01*
X93075295Y-122752857D02*
X93218152Y-122752857D01*
X93218152Y-122752857D02*
X93313390Y-122800476D01*
X93313390Y-122800476D02*
X93361009Y-122848095D01*
X93361009Y-122848095D02*
X93408628Y-122943333D01*
X93408628Y-122943333D02*
X93408628Y-123324285D01*
X92980057Y-122371904D02*
X92932438Y-122324285D01*
X92932438Y-122324285D02*
X92884819Y-122229047D01*
X92884819Y-122229047D02*
X92884819Y-121990952D01*
X92884819Y-121990952D02*
X92932438Y-121895714D01*
X92932438Y-121895714D02*
X92980057Y-121848095D01*
X92980057Y-121848095D02*
X93075295Y-121800476D01*
X93075295Y-121800476D02*
X93170533Y-121800476D01*
X93170533Y-121800476D02*
X93313390Y-121848095D01*
X93313390Y-121848095D02*
X93884819Y-122419523D01*
X93884819Y-122419523D02*
X93884819Y-121800476D01*
X92884819Y-121467142D02*
X92884819Y-120848095D01*
X92884819Y-120848095D02*
X93265771Y-121181428D01*
X93265771Y-121181428D02*
X93265771Y-121038571D01*
X93265771Y-121038571D02*
X93313390Y-120943333D01*
X93313390Y-120943333D02*
X93361009Y-120895714D01*
X93361009Y-120895714D02*
X93456247Y-120848095D01*
X93456247Y-120848095D02*
X93694342Y-120848095D01*
X93694342Y-120848095D02*
X93789580Y-120895714D01*
X93789580Y-120895714D02*
X93837200Y-120943333D01*
X93837200Y-120943333D02*
X93884819Y-121038571D01*
X93884819Y-121038571D02*
X93884819Y-121324285D01*
X93884819Y-121324285D02*
X93837200Y-121419523D01*
X93837200Y-121419523D02*
X93789580Y-121467142D01*
X95437142Y-108399580D02*
X95389523Y-108447200D01*
X95389523Y-108447200D02*
X95246666Y-108494819D01*
X95246666Y-108494819D02*
X95151428Y-108494819D01*
X95151428Y-108494819D02*
X95008571Y-108447200D01*
X95008571Y-108447200D02*
X94913333Y-108351961D01*
X94913333Y-108351961D02*
X94865714Y-108256723D01*
X94865714Y-108256723D02*
X94818095Y-108066247D01*
X94818095Y-108066247D02*
X94818095Y-107923390D01*
X94818095Y-107923390D02*
X94865714Y-107732914D01*
X94865714Y-107732914D02*
X94913333Y-107637676D01*
X94913333Y-107637676D02*
X95008571Y-107542438D01*
X95008571Y-107542438D02*
X95151428Y-107494819D01*
X95151428Y-107494819D02*
X95246666Y-107494819D01*
X95246666Y-107494819D02*
X95389523Y-107542438D01*
X95389523Y-107542438D02*
X95437142Y-107590057D01*
X96294285Y-107828152D02*
X96294285Y-108494819D01*
X96056190Y-107447200D02*
X95818095Y-108161485D01*
X95818095Y-108161485D02*
X96437142Y-108161485D01*
X97246666Y-107494819D02*
X97056190Y-107494819D01*
X97056190Y-107494819D02*
X96960952Y-107542438D01*
X96960952Y-107542438D02*
X96913333Y-107590057D01*
X96913333Y-107590057D02*
X96818095Y-107732914D01*
X96818095Y-107732914D02*
X96770476Y-107923390D01*
X96770476Y-107923390D02*
X96770476Y-108304342D01*
X96770476Y-108304342D02*
X96818095Y-108399580D01*
X96818095Y-108399580D02*
X96865714Y-108447200D01*
X96865714Y-108447200D02*
X96960952Y-108494819D01*
X96960952Y-108494819D02*
X97151428Y-108494819D01*
X97151428Y-108494819D02*
X97246666Y-108447200D01*
X97246666Y-108447200D02*
X97294285Y-108399580D01*
X97294285Y-108399580D02*
X97341904Y-108304342D01*
X97341904Y-108304342D02*
X97341904Y-108066247D01*
X97341904Y-108066247D02*
X97294285Y-107971009D01*
X97294285Y-107971009D02*
X97246666Y-107923390D01*
X97246666Y-107923390D02*
X97151428Y-107875771D01*
X97151428Y-107875771D02*
X96960952Y-107875771D01*
X96960952Y-107875771D02*
X96865714Y-107923390D01*
X96865714Y-107923390D02*
X96818095Y-107971009D01*
X96818095Y-107971009D02*
X96770476Y-108066247D01*
X102324580Y-107842857D02*
X102372200Y-107890476D01*
X102372200Y-107890476D02*
X102419819Y-108033333D01*
X102419819Y-108033333D02*
X102419819Y-108128571D01*
X102419819Y-108128571D02*
X102372200Y-108271428D01*
X102372200Y-108271428D02*
X102276961Y-108366666D01*
X102276961Y-108366666D02*
X102181723Y-108414285D01*
X102181723Y-108414285D02*
X101991247Y-108461904D01*
X101991247Y-108461904D02*
X101848390Y-108461904D01*
X101848390Y-108461904D02*
X101657914Y-108414285D01*
X101657914Y-108414285D02*
X101562676Y-108366666D01*
X101562676Y-108366666D02*
X101467438Y-108271428D01*
X101467438Y-108271428D02*
X101419819Y-108128571D01*
X101419819Y-108128571D02*
X101419819Y-108033333D01*
X101419819Y-108033333D02*
X101467438Y-107890476D01*
X101467438Y-107890476D02*
X101515057Y-107842857D01*
X101419819Y-107509523D02*
X101419819Y-106890476D01*
X101419819Y-106890476D02*
X101800771Y-107223809D01*
X101800771Y-107223809D02*
X101800771Y-107080952D01*
X101800771Y-107080952D02*
X101848390Y-106985714D01*
X101848390Y-106985714D02*
X101896009Y-106938095D01*
X101896009Y-106938095D02*
X101991247Y-106890476D01*
X101991247Y-106890476D02*
X102229342Y-106890476D01*
X102229342Y-106890476D02*
X102324580Y-106938095D01*
X102324580Y-106938095D02*
X102372200Y-106985714D01*
X102372200Y-106985714D02*
X102419819Y-107080952D01*
X102419819Y-107080952D02*
X102419819Y-107366666D01*
X102419819Y-107366666D02*
X102372200Y-107461904D01*
X102372200Y-107461904D02*
X102324580Y-107509523D01*
X102419819Y-106414285D02*
X102419819Y-106223809D01*
X102419819Y-106223809D02*
X102372200Y-106128571D01*
X102372200Y-106128571D02*
X102324580Y-106080952D01*
X102324580Y-106080952D02*
X102181723Y-105985714D01*
X102181723Y-105985714D02*
X101991247Y-105938095D01*
X101991247Y-105938095D02*
X101610295Y-105938095D01*
X101610295Y-105938095D02*
X101515057Y-105985714D01*
X101515057Y-105985714D02*
X101467438Y-106033333D01*
X101467438Y-106033333D02*
X101419819Y-106128571D01*
X101419819Y-106128571D02*
X101419819Y-106319047D01*
X101419819Y-106319047D02*
X101467438Y-106414285D01*
X101467438Y-106414285D02*
X101515057Y-106461904D01*
X101515057Y-106461904D02*
X101610295Y-106509523D01*
X101610295Y-106509523D02*
X101848390Y-106509523D01*
X101848390Y-106509523D02*
X101943628Y-106461904D01*
X101943628Y-106461904D02*
X101991247Y-106414285D01*
X101991247Y-106414285D02*
X102038866Y-106319047D01*
X102038866Y-106319047D02*
X102038866Y-106128571D01*
X102038866Y-106128571D02*
X101991247Y-106033333D01*
X101991247Y-106033333D02*
X101943628Y-105985714D01*
X101943628Y-105985714D02*
X101848390Y-105938095D01*
X101768095Y-127524819D02*
X101768095Y-128334342D01*
X101768095Y-128334342D02*
X101815714Y-128429580D01*
X101815714Y-128429580D02*
X101863333Y-128477200D01*
X101863333Y-128477200D02*
X101958571Y-128524819D01*
X101958571Y-128524819D02*
X102149047Y-128524819D01*
X102149047Y-128524819D02*
X102244285Y-128477200D01*
X102244285Y-128477200D02*
X102291904Y-128429580D01*
X102291904Y-128429580D02*
X102339523Y-128334342D01*
X102339523Y-128334342D02*
X102339523Y-127524819D01*
X103244285Y-127524819D02*
X103053809Y-127524819D01*
X103053809Y-127524819D02*
X102958571Y-127572438D01*
X102958571Y-127572438D02*
X102910952Y-127620057D01*
X102910952Y-127620057D02*
X102815714Y-127762914D01*
X102815714Y-127762914D02*
X102768095Y-127953390D01*
X102768095Y-127953390D02*
X102768095Y-128334342D01*
X102768095Y-128334342D02*
X102815714Y-128429580D01*
X102815714Y-128429580D02*
X102863333Y-128477200D01*
X102863333Y-128477200D02*
X102958571Y-128524819D01*
X102958571Y-128524819D02*
X103149047Y-128524819D01*
X103149047Y-128524819D02*
X103244285Y-128477200D01*
X103244285Y-128477200D02*
X103291904Y-128429580D01*
X103291904Y-128429580D02*
X103339523Y-128334342D01*
X103339523Y-128334342D02*
X103339523Y-128096247D01*
X103339523Y-128096247D02*
X103291904Y-128001009D01*
X103291904Y-128001009D02*
X103244285Y-127953390D01*
X103244285Y-127953390D02*
X103149047Y-127905771D01*
X103149047Y-127905771D02*
X102958571Y-127905771D01*
X102958571Y-127905771D02*
X102863333Y-127953390D01*
X102863333Y-127953390D02*
X102815714Y-128001009D01*
X102815714Y-128001009D02*
X102768095Y-128096247D01*
X112101905Y-95334819D02*
X112673333Y-95334819D01*
X112387619Y-96334819D02*
X112387619Y-95334819D01*
X113006667Y-96334819D02*
X113006667Y-95334819D01*
X113006667Y-95334819D02*
X113387619Y-95334819D01*
X113387619Y-95334819D02*
X113482857Y-95382438D01*
X113482857Y-95382438D02*
X113530476Y-95430057D01*
X113530476Y-95430057D02*
X113578095Y-95525295D01*
X113578095Y-95525295D02*
X113578095Y-95668152D01*
X113578095Y-95668152D02*
X113530476Y-95763390D01*
X113530476Y-95763390D02*
X113482857Y-95811009D01*
X113482857Y-95811009D02*
X113387619Y-95858628D01*
X113387619Y-95858628D02*
X113006667Y-95858628D01*
X114530476Y-96334819D02*
X113959048Y-96334819D01*
X114244762Y-96334819D02*
X114244762Y-95334819D01*
X114244762Y-95334819D02*
X114149524Y-95477676D01*
X114149524Y-95477676D02*
X114054286Y-95572914D01*
X114054286Y-95572914D02*
X113959048Y-95620533D01*
X114863810Y-95334819D02*
X115482857Y-95334819D01*
X115482857Y-95334819D02*
X115149524Y-95715771D01*
X115149524Y-95715771D02*
X115292381Y-95715771D01*
X115292381Y-95715771D02*
X115387619Y-95763390D01*
X115387619Y-95763390D02*
X115435238Y-95811009D01*
X115435238Y-95811009D02*
X115482857Y-95906247D01*
X115482857Y-95906247D02*
X115482857Y-96144342D01*
X115482857Y-96144342D02*
X115435238Y-96239580D01*
X115435238Y-96239580D02*
X115387619Y-96287200D01*
X115387619Y-96287200D02*
X115292381Y-96334819D01*
X115292381Y-96334819D02*
X115006667Y-96334819D01*
X115006667Y-96334819D02*
X114911429Y-96287200D01*
X114911429Y-96287200D02*
X114863810Y-96239580D01*
X99445905Y-137952819D02*
X100017333Y-137952819D01*
X99731619Y-138952819D02*
X99731619Y-137952819D01*
X100350667Y-138952819D02*
X100350667Y-137952819D01*
X100350667Y-137952819D02*
X100731619Y-137952819D01*
X100731619Y-137952819D02*
X100826857Y-138000438D01*
X100826857Y-138000438D02*
X100874476Y-138048057D01*
X100874476Y-138048057D02*
X100922095Y-138143295D01*
X100922095Y-138143295D02*
X100922095Y-138286152D01*
X100922095Y-138286152D02*
X100874476Y-138381390D01*
X100874476Y-138381390D02*
X100826857Y-138429009D01*
X100826857Y-138429009D02*
X100731619Y-138476628D01*
X100731619Y-138476628D02*
X100350667Y-138476628D01*
X101255429Y-137952819D02*
X101874476Y-137952819D01*
X101874476Y-137952819D02*
X101541143Y-138333771D01*
X101541143Y-138333771D02*
X101684000Y-138333771D01*
X101684000Y-138333771D02*
X101779238Y-138381390D01*
X101779238Y-138381390D02*
X101826857Y-138429009D01*
X101826857Y-138429009D02*
X101874476Y-138524247D01*
X101874476Y-138524247D02*
X101874476Y-138762342D01*
X101874476Y-138762342D02*
X101826857Y-138857580D01*
X101826857Y-138857580D02*
X101779238Y-138905200D01*
X101779238Y-138905200D02*
X101684000Y-138952819D01*
X101684000Y-138952819D02*
X101398286Y-138952819D01*
X101398286Y-138952819D02*
X101303048Y-138905200D01*
X101303048Y-138905200D02*
X101255429Y-138857580D01*
X102207810Y-137952819D02*
X102874476Y-137952819D01*
X102874476Y-137952819D02*
X102445905Y-138952819D01*
X96464819Y-128568094D02*
X96464819Y-127996666D01*
X97464819Y-128282380D02*
X96464819Y-128282380D01*
X97464819Y-127663332D02*
X96464819Y-127663332D01*
X96464819Y-127663332D02*
X96464819Y-127282380D01*
X96464819Y-127282380D02*
X96512438Y-127187142D01*
X96512438Y-127187142D02*
X96560057Y-127139523D01*
X96560057Y-127139523D02*
X96655295Y-127091904D01*
X96655295Y-127091904D02*
X96798152Y-127091904D01*
X96798152Y-127091904D02*
X96893390Y-127139523D01*
X96893390Y-127139523D02*
X96941009Y-127187142D01*
X96941009Y-127187142D02*
X96988628Y-127282380D01*
X96988628Y-127282380D02*
X96988628Y-127663332D01*
X96464819Y-126758570D02*
X96464819Y-126139523D01*
X96464819Y-126139523D02*
X96845771Y-126472856D01*
X96845771Y-126472856D02*
X96845771Y-126329999D01*
X96845771Y-126329999D02*
X96893390Y-126234761D01*
X96893390Y-126234761D02*
X96941009Y-126187142D01*
X96941009Y-126187142D02*
X97036247Y-126139523D01*
X97036247Y-126139523D02*
X97274342Y-126139523D01*
X97274342Y-126139523D02*
X97369580Y-126187142D01*
X97369580Y-126187142D02*
X97417200Y-126234761D01*
X97417200Y-126234761D02*
X97464819Y-126329999D01*
X97464819Y-126329999D02*
X97464819Y-126615713D01*
X97464819Y-126615713D02*
X97417200Y-126710951D01*
X97417200Y-126710951D02*
X97369580Y-126758570D01*
X96464819Y-125234761D02*
X96464819Y-125710951D01*
X96464819Y-125710951D02*
X96941009Y-125758570D01*
X96941009Y-125758570D02*
X96893390Y-125710951D01*
X96893390Y-125710951D02*
X96845771Y-125615713D01*
X96845771Y-125615713D02*
X96845771Y-125377618D01*
X96845771Y-125377618D02*
X96893390Y-125282380D01*
X96893390Y-125282380D02*
X96941009Y-125234761D01*
X96941009Y-125234761D02*
X97036247Y-125187142D01*
X97036247Y-125187142D02*
X97274342Y-125187142D01*
X97274342Y-125187142D02*
X97369580Y-125234761D01*
X97369580Y-125234761D02*
X97417200Y-125282380D01*
X97417200Y-125282380D02*
X97464819Y-125377618D01*
X97464819Y-125377618D02*
X97464819Y-125615713D01*
X97464819Y-125615713D02*
X97417200Y-125710951D01*
X97417200Y-125710951D02*
X97369580Y-125758570D01*
X93125905Y-139822819D02*
X93697333Y-139822819D01*
X93411619Y-140822819D02*
X93411619Y-139822819D01*
X94030667Y-140822819D02*
X94030667Y-139822819D01*
X94030667Y-139822819D02*
X94411619Y-139822819D01*
X94411619Y-139822819D02*
X94506857Y-139870438D01*
X94506857Y-139870438D02*
X94554476Y-139918057D01*
X94554476Y-139918057D02*
X94602095Y-140013295D01*
X94602095Y-140013295D02*
X94602095Y-140156152D01*
X94602095Y-140156152D02*
X94554476Y-140251390D01*
X94554476Y-140251390D02*
X94506857Y-140299009D01*
X94506857Y-140299009D02*
X94411619Y-140346628D01*
X94411619Y-140346628D02*
X94030667Y-140346628D01*
X94935429Y-139822819D02*
X95554476Y-139822819D01*
X95554476Y-139822819D02*
X95221143Y-140203771D01*
X95221143Y-140203771D02*
X95364000Y-140203771D01*
X95364000Y-140203771D02*
X95459238Y-140251390D01*
X95459238Y-140251390D02*
X95506857Y-140299009D01*
X95506857Y-140299009D02*
X95554476Y-140394247D01*
X95554476Y-140394247D02*
X95554476Y-140632342D01*
X95554476Y-140632342D02*
X95506857Y-140727580D01*
X95506857Y-140727580D02*
X95459238Y-140775200D01*
X95459238Y-140775200D02*
X95364000Y-140822819D01*
X95364000Y-140822819D02*
X95078286Y-140822819D01*
X95078286Y-140822819D02*
X94983048Y-140775200D01*
X94983048Y-140775200D02*
X94935429Y-140727580D01*
X96125905Y-140251390D02*
X96030667Y-140203771D01*
X96030667Y-140203771D02*
X95983048Y-140156152D01*
X95983048Y-140156152D02*
X95935429Y-140060914D01*
X95935429Y-140060914D02*
X95935429Y-140013295D01*
X95935429Y-140013295D02*
X95983048Y-139918057D01*
X95983048Y-139918057D02*
X96030667Y-139870438D01*
X96030667Y-139870438D02*
X96125905Y-139822819D01*
X96125905Y-139822819D02*
X96316381Y-139822819D01*
X96316381Y-139822819D02*
X96411619Y-139870438D01*
X96411619Y-139870438D02*
X96459238Y-139918057D01*
X96459238Y-139918057D02*
X96506857Y-140013295D01*
X96506857Y-140013295D02*
X96506857Y-140060914D01*
X96506857Y-140060914D02*
X96459238Y-140156152D01*
X96459238Y-140156152D02*
X96411619Y-140203771D01*
X96411619Y-140203771D02*
X96316381Y-140251390D01*
X96316381Y-140251390D02*
X96125905Y-140251390D01*
X96125905Y-140251390D02*
X96030667Y-140299009D01*
X96030667Y-140299009D02*
X95983048Y-140346628D01*
X95983048Y-140346628D02*
X95935429Y-140441866D01*
X95935429Y-140441866D02*
X95935429Y-140632342D01*
X95935429Y-140632342D02*
X95983048Y-140727580D01*
X95983048Y-140727580D02*
X96030667Y-140775200D01*
X96030667Y-140775200D02*
X96125905Y-140822819D01*
X96125905Y-140822819D02*
X96316381Y-140822819D01*
X96316381Y-140822819D02*
X96411619Y-140775200D01*
X96411619Y-140775200D02*
X96459238Y-140727580D01*
X96459238Y-140727580D02*
X96506857Y-140632342D01*
X96506857Y-140632342D02*
X96506857Y-140441866D01*
X96506857Y-140441866D02*
X96459238Y-140346628D01*
X96459238Y-140346628D02*
X96411619Y-140299009D01*
X96411619Y-140299009D02*
X96316381Y-140251390D01*
X82301905Y-118044819D02*
X82873333Y-118044819D01*
X82587619Y-119044819D02*
X82587619Y-118044819D01*
X83206667Y-119044819D02*
X83206667Y-118044819D01*
X83206667Y-118044819D02*
X83587619Y-118044819D01*
X83587619Y-118044819D02*
X83682857Y-118092438D01*
X83682857Y-118092438D02*
X83730476Y-118140057D01*
X83730476Y-118140057D02*
X83778095Y-118235295D01*
X83778095Y-118235295D02*
X83778095Y-118378152D01*
X83778095Y-118378152D02*
X83730476Y-118473390D01*
X83730476Y-118473390D02*
X83682857Y-118521009D01*
X83682857Y-118521009D02*
X83587619Y-118568628D01*
X83587619Y-118568628D02*
X83206667Y-118568628D01*
X84111429Y-118044819D02*
X84730476Y-118044819D01*
X84730476Y-118044819D02*
X84397143Y-118425771D01*
X84397143Y-118425771D02*
X84540000Y-118425771D01*
X84540000Y-118425771D02*
X84635238Y-118473390D01*
X84635238Y-118473390D02*
X84682857Y-118521009D01*
X84682857Y-118521009D02*
X84730476Y-118616247D01*
X84730476Y-118616247D02*
X84730476Y-118854342D01*
X84730476Y-118854342D02*
X84682857Y-118949580D01*
X84682857Y-118949580D02*
X84635238Y-118997200D01*
X84635238Y-118997200D02*
X84540000Y-119044819D01*
X84540000Y-119044819D02*
X84254286Y-119044819D01*
X84254286Y-119044819D02*
X84159048Y-118997200D01*
X84159048Y-118997200D02*
X84111429Y-118949580D01*
X85063810Y-118044819D02*
X85682857Y-118044819D01*
X85682857Y-118044819D02*
X85349524Y-118425771D01*
X85349524Y-118425771D02*
X85492381Y-118425771D01*
X85492381Y-118425771D02*
X85587619Y-118473390D01*
X85587619Y-118473390D02*
X85635238Y-118521009D01*
X85635238Y-118521009D02*
X85682857Y-118616247D01*
X85682857Y-118616247D02*
X85682857Y-118854342D01*
X85682857Y-118854342D02*
X85635238Y-118949580D01*
X85635238Y-118949580D02*
X85587619Y-118997200D01*
X85587619Y-118997200D02*
X85492381Y-119044819D01*
X85492381Y-119044819D02*
X85206667Y-119044819D01*
X85206667Y-119044819D02*
X85111429Y-118997200D01*
X85111429Y-118997200D02*
X85063810Y-118949580D01*
X102283095Y-95307819D02*
X102854523Y-95307819D01*
X102568809Y-96307819D02*
X102568809Y-95307819D01*
X103187857Y-96307819D02*
X103187857Y-95307819D01*
X103187857Y-95307819D02*
X103568809Y-95307819D01*
X103568809Y-95307819D02*
X103664047Y-95355438D01*
X103664047Y-95355438D02*
X103711666Y-95403057D01*
X103711666Y-95403057D02*
X103759285Y-95498295D01*
X103759285Y-95498295D02*
X103759285Y-95641152D01*
X103759285Y-95641152D02*
X103711666Y-95736390D01*
X103711666Y-95736390D02*
X103664047Y-95784009D01*
X103664047Y-95784009D02*
X103568809Y-95831628D01*
X103568809Y-95831628D02*
X103187857Y-95831628D01*
X104092619Y-95307819D02*
X104711666Y-95307819D01*
X104711666Y-95307819D02*
X104378333Y-95688771D01*
X104378333Y-95688771D02*
X104521190Y-95688771D01*
X104521190Y-95688771D02*
X104616428Y-95736390D01*
X104616428Y-95736390D02*
X104664047Y-95784009D01*
X104664047Y-95784009D02*
X104711666Y-95879247D01*
X104711666Y-95879247D02*
X104711666Y-96117342D01*
X104711666Y-96117342D02*
X104664047Y-96212580D01*
X104664047Y-96212580D02*
X104616428Y-96260200D01*
X104616428Y-96260200D02*
X104521190Y-96307819D01*
X104521190Y-96307819D02*
X104235476Y-96307819D01*
X104235476Y-96307819D02*
X104140238Y-96260200D01*
X104140238Y-96260200D02*
X104092619Y-96212580D01*
X127008095Y-85817819D02*
X127579523Y-85817819D01*
X127293809Y-86817819D02*
X127293809Y-85817819D01*
X127912857Y-86817819D02*
X127912857Y-85817819D01*
X127912857Y-85817819D02*
X128293809Y-85817819D01*
X128293809Y-85817819D02*
X128389047Y-85865438D01*
X128389047Y-85865438D02*
X128436666Y-85913057D01*
X128436666Y-85913057D02*
X128484285Y-86008295D01*
X128484285Y-86008295D02*
X128484285Y-86151152D01*
X128484285Y-86151152D02*
X128436666Y-86246390D01*
X128436666Y-86246390D02*
X128389047Y-86294009D01*
X128389047Y-86294009D02*
X128293809Y-86341628D01*
X128293809Y-86341628D02*
X127912857Y-86341628D01*
X128865238Y-85913057D02*
X128912857Y-85865438D01*
X128912857Y-85865438D02*
X129008095Y-85817819D01*
X129008095Y-85817819D02*
X129246190Y-85817819D01*
X129246190Y-85817819D02*
X129341428Y-85865438D01*
X129341428Y-85865438D02*
X129389047Y-85913057D01*
X129389047Y-85913057D02*
X129436666Y-86008295D01*
X129436666Y-86008295D02*
X129436666Y-86103533D01*
X129436666Y-86103533D02*
X129389047Y-86246390D01*
X129389047Y-86246390D02*
X128817619Y-86817819D01*
X128817619Y-86817819D02*
X129436666Y-86817819D01*
X99909580Y-125832857D02*
X99957200Y-125880476D01*
X99957200Y-125880476D02*
X100004819Y-126023333D01*
X100004819Y-126023333D02*
X100004819Y-126118571D01*
X100004819Y-126118571D02*
X99957200Y-126261428D01*
X99957200Y-126261428D02*
X99861961Y-126356666D01*
X99861961Y-126356666D02*
X99766723Y-126404285D01*
X99766723Y-126404285D02*
X99576247Y-126451904D01*
X99576247Y-126451904D02*
X99433390Y-126451904D01*
X99433390Y-126451904D02*
X99242914Y-126404285D01*
X99242914Y-126404285D02*
X99147676Y-126356666D01*
X99147676Y-126356666D02*
X99052438Y-126261428D01*
X99052438Y-126261428D02*
X99004819Y-126118571D01*
X99004819Y-126118571D02*
X99004819Y-126023333D01*
X99004819Y-126023333D02*
X99052438Y-125880476D01*
X99052438Y-125880476D02*
X99100057Y-125832857D01*
X99338152Y-124975714D02*
X100004819Y-124975714D01*
X98957200Y-125213809D02*
X99671485Y-125451904D01*
X99671485Y-125451904D02*
X99671485Y-124832857D01*
X99004819Y-123975714D02*
X99004819Y-124451904D01*
X99004819Y-124451904D02*
X99481009Y-124499523D01*
X99481009Y-124499523D02*
X99433390Y-124451904D01*
X99433390Y-124451904D02*
X99385771Y-124356666D01*
X99385771Y-124356666D02*
X99385771Y-124118571D01*
X99385771Y-124118571D02*
X99433390Y-124023333D01*
X99433390Y-124023333D02*
X99481009Y-123975714D01*
X99481009Y-123975714D02*
X99576247Y-123928095D01*
X99576247Y-123928095D02*
X99814342Y-123928095D01*
X99814342Y-123928095D02*
X99909580Y-123975714D01*
X99909580Y-123975714D02*
X99957200Y-124023333D01*
X99957200Y-124023333D02*
X100004819Y-124118571D01*
X100004819Y-124118571D02*
X100004819Y-124356666D01*
X100004819Y-124356666D02*
X99957200Y-124451904D01*
X99957200Y-124451904D02*
X99909580Y-124499523D01*
X112539580Y-125362857D02*
X112587200Y-125410476D01*
X112587200Y-125410476D02*
X112634819Y-125553333D01*
X112634819Y-125553333D02*
X112634819Y-125648571D01*
X112634819Y-125648571D02*
X112587200Y-125791428D01*
X112587200Y-125791428D02*
X112491961Y-125886666D01*
X112491961Y-125886666D02*
X112396723Y-125934285D01*
X112396723Y-125934285D02*
X112206247Y-125981904D01*
X112206247Y-125981904D02*
X112063390Y-125981904D01*
X112063390Y-125981904D02*
X111872914Y-125934285D01*
X111872914Y-125934285D02*
X111777676Y-125886666D01*
X111777676Y-125886666D02*
X111682438Y-125791428D01*
X111682438Y-125791428D02*
X111634819Y-125648571D01*
X111634819Y-125648571D02*
X111634819Y-125553333D01*
X111634819Y-125553333D02*
X111682438Y-125410476D01*
X111682438Y-125410476D02*
X111730057Y-125362857D01*
X111634819Y-125029523D02*
X111634819Y-124410476D01*
X111634819Y-124410476D02*
X112015771Y-124743809D01*
X112015771Y-124743809D02*
X112015771Y-124600952D01*
X112015771Y-124600952D02*
X112063390Y-124505714D01*
X112063390Y-124505714D02*
X112111009Y-124458095D01*
X112111009Y-124458095D02*
X112206247Y-124410476D01*
X112206247Y-124410476D02*
X112444342Y-124410476D01*
X112444342Y-124410476D02*
X112539580Y-124458095D01*
X112539580Y-124458095D02*
X112587200Y-124505714D01*
X112587200Y-124505714D02*
X112634819Y-124600952D01*
X112634819Y-124600952D02*
X112634819Y-124886666D01*
X112634819Y-124886666D02*
X112587200Y-124981904D01*
X112587200Y-124981904D02*
X112539580Y-125029523D01*
X111634819Y-123505714D02*
X111634819Y-123981904D01*
X111634819Y-123981904D02*
X112111009Y-124029523D01*
X112111009Y-124029523D02*
X112063390Y-123981904D01*
X112063390Y-123981904D02*
X112015771Y-123886666D01*
X112015771Y-123886666D02*
X112015771Y-123648571D01*
X112015771Y-123648571D02*
X112063390Y-123553333D01*
X112063390Y-123553333D02*
X112111009Y-123505714D01*
X112111009Y-123505714D02*
X112206247Y-123458095D01*
X112206247Y-123458095D02*
X112444342Y-123458095D01*
X112444342Y-123458095D02*
X112539580Y-123505714D01*
X112539580Y-123505714D02*
X112587200Y-123553333D01*
X112587200Y-123553333D02*
X112634819Y-123648571D01*
X112634819Y-123648571D02*
X112634819Y-123886666D01*
X112634819Y-123886666D02*
X112587200Y-123981904D01*
X112587200Y-123981904D02*
X112539580Y-124029523D01*
X114068095Y-122104819D02*
X114068095Y-122914342D01*
X114068095Y-122914342D02*
X114115714Y-123009580D01*
X114115714Y-123009580D02*
X114163333Y-123057200D01*
X114163333Y-123057200D02*
X114258571Y-123104819D01*
X114258571Y-123104819D02*
X114449047Y-123104819D01*
X114449047Y-123104819D02*
X114544285Y-123057200D01*
X114544285Y-123057200D02*
X114591904Y-123009580D01*
X114591904Y-123009580D02*
X114639523Y-122914342D01*
X114639523Y-122914342D02*
X114639523Y-122104819D01*
X115020476Y-122104819D02*
X115687142Y-122104819D01*
X115687142Y-122104819D02*
X115258571Y-123104819D01*
X101687142Y-134689580D02*
X101639523Y-134737200D01*
X101639523Y-134737200D02*
X101496666Y-134784819D01*
X101496666Y-134784819D02*
X101401428Y-134784819D01*
X101401428Y-134784819D02*
X101258571Y-134737200D01*
X101258571Y-134737200D02*
X101163333Y-134641961D01*
X101163333Y-134641961D02*
X101115714Y-134546723D01*
X101115714Y-134546723D02*
X101068095Y-134356247D01*
X101068095Y-134356247D02*
X101068095Y-134213390D01*
X101068095Y-134213390D02*
X101115714Y-134022914D01*
X101115714Y-134022914D02*
X101163333Y-133927676D01*
X101163333Y-133927676D02*
X101258571Y-133832438D01*
X101258571Y-133832438D02*
X101401428Y-133784819D01*
X101401428Y-133784819D02*
X101496666Y-133784819D01*
X101496666Y-133784819D02*
X101639523Y-133832438D01*
X101639523Y-133832438D02*
X101687142Y-133880057D01*
X102068095Y-133880057D02*
X102115714Y-133832438D01*
X102115714Y-133832438D02*
X102210952Y-133784819D01*
X102210952Y-133784819D02*
X102449047Y-133784819D01*
X102449047Y-133784819D02*
X102544285Y-133832438D01*
X102544285Y-133832438D02*
X102591904Y-133880057D01*
X102591904Y-133880057D02*
X102639523Y-133975295D01*
X102639523Y-133975295D02*
X102639523Y-134070533D01*
X102639523Y-134070533D02*
X102591904Y-134213390D01*
X102591904Y-134213390D02*
X102020476Y-134784819D01*
X102020476Y-134784819D02*
X102639523Y-134784819D01*
X102972857Y-133784819D02*
X103639523Y-133784819D01*
X103639523Y-133784819D02*
X103210952Y-134784819D01*
X106033095Y-95427819D02*
X106604523Y-95427819D01*
X106318809Y-96427819D02*
X106318809Y-95427819D01*
X106937857Y-96427819D02*
X106937857Y-95427819D01*
X106937857Y-95427819D02*
X107318809Y-95427819D01*
X107318809Y-95427819D02*
X107414047Y-95475438D01*
X107414047Y-95475438D02*
X107461666Y-95523057D01*
X107461666Y-95523057D02*
X107509285Y-95618295D01*
X107509285Y-95618295D02*
X107509285Y-95761152D01*
X107509285Y-95761152D02*
X107461666Y-95856390D01*
X107461666Y-95856390D02*
X107414047Y-95904009D01*
X107414047Y-95904009D02*
X107318809Y-95951628D01*
X107318809Y-95951628D02*
X106937857Y-95951628D01*
X108366428Y-95761152D02*
X108366428Y-96427819D01*
X108128333Y-95380200D02*
X107890238Y-96094485D01*
X107890238Y-96094485D02*
X108509285Y-96094485D01*
X116927142Y-128609580D02*
X116879523Y-128657200D01*
X116879523Y-128657200D02*
X116736666Y-128704819D01*
X116736666Y-128704819D02*
X116641428Y-128704819D01*
X116641428Y-128704819D02*
X116498571Y-128657200D01*
X116498571Y-128657200D02*
X116403333Y-128561961D01*
X116403333Y-128561961D02*
X116355714Y-128466723D01*
X116355714Y-128466723D02*
X116308095Y-128276247D01*
X116308095Y-128276247D02*
X116308095Y-128133390D01*
X116308095Y-128133390D02*
X116355714Y-127942914D01*
X116355714Y-127942914D02*
X116403333Y-127847676D01*
X116403333Y-127847676D02*
X116498571Y-127752438D01*
X116498571Y-127752438D02*
X116641428Y-127704819D01*
X116641428Y-127704819D02*
X116736666Y-127704819D01*
X116736666Y-127704819D02*
X116879523Y-127752438D01*
X116879523Y-127752438D02*
X116927142Y-127800057D01*
X117308095Y-127800057D02*
X117355714Y-127752438D01*
X117355714Y-127752438D02*
X117450952Y-127704819D01*
X117450952Y-127704819D02*
X117689047Y-127704819D01*
X117689047Y-127704819D02*
X117784285Y-127752438D01*
X117784285Y-127752438D02*
X117831904Y-127800057D01*
X117831904Y-127800057D02*
X117879523Y-127895295D01*
X117879523Y-127895295D02*
X117879523Y-127990533D01*
X117879523Y-127990533D02*
X117831904Y-128133390D01*
X117831904Y-128133390D02*
X117260476Y-128704819D01*
X117260476Y-128704819D02*
X117879523Y-128704819D01*
X118355714Y-128704819D02*
X118546190Y-128704819D01*
X118546190Y-128704819D02*
X118641428Y-128657200D01*
X118641428Y-128657200D02*
X118689047Y-128609580D01*
X118689047Y-128609580D02*
X118784285Y-128466723D01*
X118784285Y-128466723D02*
X118831904Y-128276247D01*
X118831904Y-128276247D02*
X118831904Y-127895295D01*
X118831904Y-127895295D02*
X118784285Y-127800057D01*
X118784285Y-127800057D02*
X118736666Y-127752438D01*
X118736666Y-127752438D02*
X118641428Y-127704819D01*
X118641428Y-127704819D02*
X118450952Y-127704819D01*
X118450952Y-127704819D02*
X118355714Y-127752438D01*
X118355714Y-127752438D02*
X118308095Y-127800057D01*
X118308095Y-127800057D02*
X118260476Y-127895295D01*
X118260476Y-127895295D02*
X118260476Y-128133390D01*
X118260476Y-128133390D02*
X118308095Y-128228628D01*
X118308095Y-128228628D02*
X118355714Y-128276247D01*
X118355714Y-128276247D02*
X118450952Y-128323866D01*
X118450952Y-128323866D02*
X118641428Y-128323866D01*
X118641428Y-128323866D02*
X118736666Y-128276247D01*
X118736666Y-128276247D02*
X118784285Y-128228628D01*
X118784285Y-128228628D02*
X118831904Y-128133390D01*
X109251905Y-100894819D02*
X109823333Y-100894819D01*
X109537619Y-101894819D02*
X109537619Y-100894819D01*
X110156667Y-101894819D02*
X110156667Y-100894819D01*
X110156667Y-100894819D02*
X110537619Y-100894819D01*
X110537619Y-100894819D02*
X110632857Y-100942438D01*
X110632857Y-100942438D02*
X110680476Y-100990057D01*
X110680476Y-100990057D02*
X110728095Y-101085295D01*
X110728095Y-101085295D02*
X110728095Y-101228152D01*
X110728095Y-101228152D02*
X110680476Y-101323390D01*
X110680476Y-101323390D02*
X110632857Y-101371009D01*
X110632857Y-101371009D02*
X110537619Y-101418628D01*
X110537619Y-101418628D02*
X110156667Y-101418628D01*
X111680476Y-101894819D02*
X111109048Y-101894819D01*
X111394762Y-101894819D02*
X111394762Y-100894819D01*
X111394762Y-100894819D02*
X111299524Y-101037676D01*
X111299524Y-101037676D02*
X111204286Y-101132914D01*
X111204286Y-101132914D02*
X111109048Y-101180533D01*
X112537619Y-101228152D02*
X112537619Y-101894819D01*
X112299524Y-100847200D02*
X112061429Y-101561485D01*
X112061429Y-101561485D02*
X112680476Y-101561485D01*
X125027142Y-119514819D02*
X124693809Y-119038628D01*
X124455714Y-119514819D02*
X124455714Y-118514819D01*
X124455714Y-118514819D02*
X124836666Y-118514819D01*
X124836666Y-118514819D02*
X124931904Y-118562438D01*
X124931904Y-118562438D02*
X124979523Y-118610057D01*
X124979523Y-118610057D02*
X125027142Y-118705295D01*
X125027142Y-118705295D02*
X125027142Y-118848152D01*
X125027142Y-118848152D02*
X124979523Y-118943390D01*
X124979523Y-118943390D02*
X124931904Y-118991009D01*
X124931904Y-118991009D02*
X124836666Y-119038628D01*
X124836666Y-119038628D02*
X124455714Y-119038628D01*
X125979523Y-119514819D02*
X125408095Y-119514819D01*
X125693809Y-119514819D02*
X125693809Y-118514819D01*
X125693809Y-118514819D02*
X125598571Y-118657676D01*
X125598571Y-118657676D02*
X125503333Y-118752914D01*
X125503333Y-118752914D02*
X125408095Y-118800533D01*
X126455714Y-119514819D02*
X126646190Y-119514819D01*
X126646190Y-119514819D02*
X126741428Y-119467200D01*
X126741428Y-119467200D02*
X126789047Y-119419580D01*
X126789047Y-119419580D02*
X126884285Y-119276723D01*
X126884285Y-119276723D02*
X126931904Y-119086247D01*
X126931904Y-119086247D02*
X126931904Y-118705295D01*
X126931904Y-118705295D02*
X126884285Y-118610057D01*
X126884285Y-118610057D02*
X126836666Y-118562438D01*
X126836666Y-118562438D02*
X126741428Y-118514819D01*
X126741428Y-118514819D02*
X126550952Y-118514819D01*
X126550952Y-118514819D02*
X126455714Y-118562438D01*
X126455714Y-118562438D02*
X126408095Y-118610057D01*
X126408095Y-118610057D02*
X126360476Y-118705295D01*
X126360476Y-118705295D02*
X126360476Y-118943390D01*
X126360476Y-118943390D02*
X126408095Y-119038628D01*
X126408095Y-119038628D02*
X126455714Y-119086247D01*
X126455714Y-119086247D02*
X126550952Y-119133866D01*
X126550952Y-119133866D02*
X126741428Y-119133866D01*
X126741428Y-119133866D02*
X126836666Y-119086247D01*
X126836666Y-119086247D02*
X126884285Y-119038628D01*
X126884285Y-119038628D02*
X126931904Y-118943390D01*
X86921905Y-123374819D02*
X87493333Y-123374819D01*
X87207619Y-124374819D02*
X87207619Y-123374819D01*
X87826667Y-124374819D02*
X87826667Y-123374819D01*
X87826667Y-123374819D02*
X88207619Y-123374819D01*
X88207619Y-123374819D02*
X88302857Y-123422438D01*
X88302857Y-123422438D02*
X88350476Y-123470057D01*
X88350476Y-123470057D02*
X88398095Y-123565295D01*
X88398095Y-123565295D02*
X88398095Y-123708152D01*
X88398095Y-123708152D02*
X88350476Y-123803390D01*
X88350476Y-123803390D02*
X88302857Y-123851009D01*
X88302857Y-123851009D02*
X88207619Y-123898628D01*
X88207619Y-123898628D02*
X87826667Y-123898628D01*
X88731429Y-123374819D02*
X89350476Y-123374819D01*
X89350476Y-123374819D02*
X89017143Y-123755771D01*
X89017143Y-123755771D02*
X89160000Y-123755771D01*
X89160000Y-123755771D02*
X89255238Y-123803390D01*
X89255238Y-123803390D02*
X89302857Y-123851009D01*
X89302857Y-123851009D02*
X89350476Y-123946247D01*
X89350476Y-123946247D02*
X89350476Y-124184342D01*
X89350476Y-124184342D02*
X89302857Y-124279580D01*
X89302857Y-124279580D02*
X89255238Y-124327200D01*
X89255238Y-124327200D02*
X89160000Y-124374819D01*
X89160000Y-124374819D02*
X88874286Y-124374819D01*
X88874286Y-124374819D02*
X88779048Y-124327200D01*
X88779048Y-124327200D02*
X88731429Y-124279580D01*
X90207619Y-123374819D02*
X90017143Y-123374819D01*
X90017143Y-123374819D02*
X89921905Y-123422438D01*
X89921905Y-123422438D02*
X89874286Y-123470057D01*
X89874286Y-123470057D02*
X89779048Y-123612914D01*
X89779048Y-123612914D02*
X89731429Y-123803390D01*
X89731429Y-123803390D02*
X89731429Y-124184342D01*
X89731429Y-124184342D02*
X89779048Y-124279580D01*
X89779048Y-124279580D02*
X89826667Y-124327200D01*
X89826667Y-124327200D02*
X89921905Y-124374819D01*
X89921905Y-124374819D02*
X90112381Y-124374819D01*
X90112381Y-124374819D02*
X90207619Y-124327200D01*
X90207619Y-124327200D02*
X90255238Y-124279580D01*
X90255238Y-124279580D02*
X90302857Y-124184342D01*
X90302857Y-124184342D02*
X90302857Y-123946247D01*
X90302857Y-123946247D02*
X90255238Y-123851009D01*
X90255238Y-123851009D02*
X90207619Y-123803390D01*
X90207619Y-123803390D02*
X90112381Y-123755771D01*
X90112381Y-123755771D02*
X89921905Y-123755771D01*
X89921905Y-123755771D02*
X89826667Y-123803390D01*
X89826667Y-123803390D02*
X89779048Y-123851009D01*
X89779048Y-123851009D02*
X89731429Y-123946247D01*
X106059580Y-109442857D02*
X106107200Y-109490476D01*
X106107200Y-109490476D02*
X106154819Y-109633333D01*
X106154819Y-109633333D02*
X106154819Y-109728571D01*
X106154819Y-109728571D02*
X106107200Y-109871428D01*
X106107200Y-109871428D02*
X106011961Y-109966666D01*
X106011961Y-109966666D02*
X105916723Y-110014285D01*
X105916723Y-110014285D02*
X105726247Y-110061904D01*
X105726247Y-110061904D02*
X105583390Y-110061904D01*
X105583390Y-110061904D02*
X105392914Y-110014285D01*
X105392914Y-110014285D02*
X105297676Y-109966666D01*
X105297676Y-109966666D02*
X105202438Y-109871428D01*
X105202438Y-109871428D02*
X105154819Y-109728571D01*
X105154819Y-109728571D02*
X105154819Y-109633333D01*
X105154819Y-109633333D02*
X105202438Y-109490476D01*
X105202438Y-109490476D02*
X105250057Y-109442857D01*
X105488152Y-108585714D02*
X106154819Y-108585714D01*
X105107200Y-108823809D02*
X105821485Y-109061904D01*
X105821485Y-109061904D02*
X105821485Y-108442857D01*
X105154819Y-108157142D02*
X105154819Y-107538095D01*
X105154819Y-107538095D02*
X105535771Y-107871428D01*
X105535771Y-107871428D02*
X105535771Y-107728571D01*
X105535771Y-107728571D02*
X105583390Y-107633333D01*
X105583390Y-107633333D02*
X105631009Y-107585714D01*
X105631009Y-107585714D02*
X105726247Y-107538095D01*
X105726247Y-107538095D02*
X105964342Y-107538095D01*
X105964342Y-107538095D02*
X106059580Y-107585714D01*
X106059580Y-107585714D02*
X106107200Y-107633333D01*
X106107200Y-107633333D02*
X106154819Y-107728571D01*
X106154819Y-107728571D02*
X106154819Y-108014285D01*
X106154819Y-108014285D02*
X106107200Y-108109523D01*
X106107200Y-108109523D02*
X106059580Y-108157142D01*
X120721905Y-107724819D02*
X121293333Y-107724819D01*
X121007619Y-108724819D02*
X121007619Y-107724819D01*
X121626667Y-108724819D02*
X121626667Y-107724819D01*
X121626667Y-107724819D02*
X122007619Y-107724819D01*
X122007619Y-107724819D02*
X122102857Y-107772438D01*
X122102857Y-107772438D02*
X122150476Y-107820057D01*
X122150476Y-107820057D02*
X122198095Y-107915295D01*
X122198095Y-107915295D02*
X122198095Y-108058152D01*
X122198095Y-108058152D02*
X122150476Y-108153390D01*
X122150476Y-108153390D02*
X122102857Y-108201009D01*
X122102857Y-108201009D02*
X122007619Y-108248628D01*
X122007619Y-108248628D02*
X121626667Y-108248628D01*
X123150476Y-108724819D02*
X122579048Y-108724819D01*
X122864762Y-108724819D02*
X122864762Y-107724819D01*
X122864762Y-107724819D02*
X122769524Y-107867676D01*
X122769524Y-107867676D02*
X122674286Y-107962914D01*
X122674286Y-107962914D02*
X122579048Y-108010533D01*
X124055238Y-107724819D02*
X123579048Y-107724819D01*
X123579048Y-107724819D02*
X123531429Y-108201009D01*
X123531429Y-108201009D02*
X123579048Y-108153390D01*
X123579048Y-108153390D02*
X123674286Y-108105771D01*
X123674286Y-108105771D02*
X123912381Y-108105771D01*
X123912381Y-108105771D02*
X124007619Y-108153390D01*
X124007619Y-108153390D02*
X124055238Y-108201009D01*
X124055238Y-108201009D02*
X124102857Y-108296247D01*
X124102857Y-108296247D02*
X124102857Y-108534342D01*
X124102857Y-108534342D02*
X124055238Y-108629580D01*
X124055238Y-108629580D02*
X124007619Y-108677200D01*
X124007619Y-108677200D02*
X123912381Y-108724819D01*
X123912381Y-108724819D02*
X123674286Y-108724819D01*
X123674286Y-108724819D02*
X123579048Y-108677200D01*
X123579048Y-108677200D02*
X123531429Y-108629580D01*
X119371905Y-123614819D02*
X119943333Y-123614819D01*
X119657619Y-124614819D02*
X119657619Y-123614819D01*
X120276667Y-124614819D02*
X120276667Y-123614819D01*
X120276667Y-123614819D02*
X120657619Y-123614819D01*
X120657619Y-123614819D02*
X120752857Y-123662438D01*
X120752857Y-123662438D02*
X120800476Y-123710057D01*
X120800476Y-123710057D02*
X120848095Y-123805295D01*
X120848095Y-123805295D02*
X120848095Y-123948152D01*
X120848095Y-123948152D02*
X120800476Y-124043390D01*
X120800476Y-124043390D02*
X120752857Y-124091009D01*
X120752857Y-124091009D02*
X120657619Y-124138628D01*
X120657619Y-124138628D02*
X120276667Y-124138628D01*
X121229048Y-123710057D02*
X121276667Y-123662438D01*
X121276667Y-123662438D02*
X121371905Y-123614819D01*
X121371905Y-123614819D02*
X121610000Y-123614819D01*
X121610000Y-123614819D02*
X121705238Y-123662438D01*
X121705238Y-123662438D02*
X121752857Y-123710057D01*
X121752857Y-123710057D02*
X121800476Y-123805295D01*
X121800476Y-123805295D02*
X121800476Y-123900533D01*
X121800476Y-123900533D02*
X121752857Y-124043390D01*
X121752857Y-124043390D02*
X121181429Y-124614819D01*
X121181429Y-124614819D02*
X121800476Y-124614819D01*
X122181429Y-123710057D02*
X122229048Y-123662438D01*
X122229048Y-123662438D02*
X122324286Y-123614819D01*
X122324286Y-123614819D02*
X122562381Y-123614819D01*
X122562381Y-123614819D02*
X122657619Y-123662438D01*
X122657619Y-123662438D02*
X122705238Y-123710057D01*
X122705238Y-123710057D02*
X122752857Y-123805295D01*
X122752857Y-123805295D02*
X122752857Y-123900533D01*
X122752857Y-123900533D02*
X122705238Y-124043390D01*
X122705238Y-124043390D02*
X122133810Y-124614819D01*
X122133810Y-124614819D02*
X122752857Y-124614819D01*
X107818819Y-141370857D02*
X107342628Y-141704190D01*
X107818819Y-141942285D02*
X106818819Y-141942285D01*
X106818819Y-141942285D02*
X106818819Y-141561333D01*
X106818819Y-141561333D02*
X106866438Y-141466095D01*
X106866438Y-141466095D02*
X106914057Y-141418476D01*
X106914057Y-141418476D02*
X107009295Y-141370857D01*
X107009295Y-141370857D02*
X107152152Y-141370857D01*
X107152152Y-141370857D02*
X107247390Y-141418476D01*
X107247390Y-141418476D02*
X107295009Y-141466095D01*
X107295009Y-141466095D02*
X107342628Y-141561333D01*
X107342628Y-141561333D02*
X107342628Y-141942285D01*
X106914057Y-140989904D02*
X106866438Y-140942285D01*
X106866438Y-140942285D02*
X106818819Y-140847047D01*
X106818819Y-140847047D02*
X106818819Y-140608952D01*
X106818819Y-140608952D02*
X106866438Y-140513714D01*
X106866438Y-140513714D02*
X106914057Y-140466095D01*
X106914057Y-140466095D02*
X107009295Y-140418476D01*
X107009295Y-140418476D02*
X107104533Y-140418476D01*
X107104533Y-140418476D02*
X107247390Y-140466095D01*
X107247390Y-140466095D02*
X107818819Y-141037523D01*
X107818819Y-141037523D02*
X107818819Y-140418476D01*
X106818819Y-139513714D02*
X106818819Y-139989904D01*
X106818819Y-139989904D02*
X107295009Y-140037523D01*
X107295009Y-140037523D02*
X107247390Y-139989904D01*
X107247390Y-139989904D02*
X107199771Y-139894666D01*
X107199771Y-139894666D02*
X107199771Y-139656571D01*
X107199771Y-139656571D02*
X107247390Y-139561333D01*
X107247390Y-139561333D02*
X107295009Y-139513714D01*
X107295009Y-139513714D02*
X107390247Y-139466095D01*
X107390247Y-139466095D02*
X107628342Y-139466095D01*
X107628342Y-139466095D02*
X107723580Y-139513714D01*
X107723580Y-139513714D02*
X107771200Y-139561333D01*
X107771200Y-139561333D02*
X107818819Y-139656571D01*
X107818819Y-139656571D02*
X107818819Y-139894666D01*
X107818819Y-139894666D02*
X107771200Y-139989904D01*
X107771200Y-139989904D02*
X107723580Y-140037523D01*
X91049819Y-131198094D02*
X91859342Y-131198094D01*
X91859342Y-131198094D02*
X91954580Y-131150475D01*
X91954580Y-131150475D02*
X92002200Y-131102856D01*
X92002200Y-131102856D02*
X92049819Y-131007618D01*
X92049819Y-131007618D02*
X92049819Y-130817142D01*
X92049819Y-130817142D02*
X92002200Y-130721904D01*
X92002200Y-130721904D02*
X91954580Y-130674285D01*
X91954580Y-130674285D02*
X91859342Y-130626666D01*
X91859342Y-130626666D02*
X91049819Y-130626666D01*
X92049819Y-129626666D02*
X92049819Y-130198094D01*
X92049819Y-129912380D02*
X91049819Y-129912380D01*
X91049819Y-129912380D02*
X91192676Y-130007618D01*
X91192676Y-130007618D02*
X91287914Y-130102856D01*
X91287914Y-130102856D02*
X91335533Y-130198094D01*
X91049819Y-129007618D02*
X91049819Y-128912380D01*
X91049819Y-128912380D02*
X91097438Y-128817142D01*
X91097438Y-128817142D02*
X91145057Y-128769523D01*
X91145057Y-128769523D02*
X91240295Y-128721904D01*
X91240295Y-128721904D02*
X91430771Y-128674285D01*
X91430771Y-128674285D02*
X91668866Y-128674285D01*
X91668866Y-128674285D02*
X91859342Y-128721904D01*
X91859342Y-128721904D02*
X91954580Y-128769523D01*
X91954580Y-128769523D02*
X92002200Y-128817142D01*
X92002200Y-128817142D02*
X92049819Y-128912380D01*
X92049819Y-128912380D02*
X92049819Y-129007618D01*
X92049819Y-129007618D02*
X92002200Y-129102856D01*
X92002200Y-129102856D02*
X91954580Y-129150475D01*
X91954580Y-129150475D02*
X91859342Y-129198094D01*
X91859342Y-129198094D02*
X91668866Y-129245713D01*
X91668866Y-129245713D02*
X91430771Y-129245713D01*
X91430771Y-129245713D02*
X91240295Y-129198094D01*
X91240295Y-129198094D02*
X91145057Y-129150475D01*
X91145057Y-129150475D02*
X91097438Y-129102856D01*
X91097438Y-129102856D02*
X91049819Y-129007618D01*
X82301905Y-112078819D02*
X82873333Y-112078819D01*
X82587619Y-113078819D02*
X82587619Y-112078819D01*
X83206667Y-113078819D02*
X83206667Y-112078819D01*
X83206667Y-112078819D02*
X83587619Y-112078819D01*
X83587619Y-112078819D02*
X83682857Y-112126438D01*
X83682857Y-112126438D02*
X83730476Y-112174057D01*
X83730476Y-112174057D02*
X83778095Y-112269295D01*
X83778095Y-112269295D02*
X83778095Y-112412152D01*
X83778095Y-112412152D02*
X83730476Y-112507390D01*
X83730476Y-112507390D02*
X83682857Y-112555009D01*
X83682857Y-112555009D02*
X83587619Y-112602628D01*
X83587619Y-112602628D02*
X83206667Y-112602628D01*
X84159048Y-112174057D02*
X84206667Y-112126438D01*
X84206667Y-112126438D02*
X84301905Y-112078819D01*
X84301905Y-112078819D02*
X84540000Y-112078819D01*
X84540000Y-112078819D02*
X84635238Y-112126438D01*
X84635238Y-112126438D02*
X84682857Y-112174057D01*
X84682857Y-112174057D02*
X84730476Y-112269295D01*
X84730476Y-112269295D02*
X84730476Y-112364533D01*
X84730476Y-112364533D02*
X84682857Y-112507390D01*
X84682857Y-112507390D02*
X84111429Y-113078819D01*
X84111429Y-113078819D02*
X84730476Y-113078819D01*
X85206667Y-113078819D02*
X85397143Y-113078819D01*
X85397143Y-113078819D02*
X85492381Y-113031200D01*
X85492381Y-113031200D02*
X85540000Y-112983580D01*
X85540000Y-112983580D02*
X85635238Y-112840723D01*
X85635238Y-112840723D02*
X85682857Y-112650247D01*
X85682857Y-112650247D02*
X85682857Y-112269295D01*
X85682857Y-112269295D02*
X85635238Y-112174057D01*
X85635238Y-112174057D02*
X85587619Y-112126438D01*
X85587619Y-112126438D02*
X85492381Y-112078819D01*
X85492381Y-112078819D02*
X85301905Y-112078819D01*
X85301905Y-112078819D02*
X85206667Y-112126438D01*
X85206667Y-112126438D02*
X85159048Y-112174057D01*
X85159048Y-112174057D02*
X85111429Y-112269295D01*
X85111429Y-112269295D02*
X85111429Y-112507390D01*
X85111429Y-112507390D02*
X85159048Y-112602628D01*
X85159048Y-112602628D02*
X85206667Y-112650247D01*
X85206667Y-112650247D02*
X85301905Y-112697866D01*
X85301905Y-112697866D02*
X85492381Y-112697866D01*
X85492381Y-112697866D02*
X85587619Y-112650247D01*
X85587619Y-112650247D02*
X85635238Y-112602628D01*
X85635238Y-112602628D02*
X85682857Y-112507390D01*
X110219095Y-127283819D02*
X110219095Y-128093342D01*
X110219095Y-128093342D02*
X110266714Y-128188580D01*
X110266714Y-128188580D02*
X110314333Y-128236200D01*
X110314333Y-128236200D02*
X110409571Y-128283819D01*
X110409571Y-128283819D02*
X110600047Y-128283819D01*
X110600047Y-128283819D02*
X110695285Y-128236200D01*
X110695285Y-128236200D02*
X110742904Y-128188580D01*
X110742904Y-128188580D02*
X110790523Y-128093342D01*
X110790523Y-128093342D02*
X110790523Y-127283819D01*
X111742904Y-127283819D02*
X111266714Y-127283819D01*
X111266714Y-127283819D02*
X111219095Y-127760009D01*
X111219095Y-127760009D02*
X111266714Y-127712390D01*
X111266714Y-127712390D02*
X111361952Y-127664771D01*
X111361952Y-127664771D02*
X111600047Y-127664771D01*
X111600047Y-127664771D02*
X111695285Y-127712390D01*
X111695285Y-127712390D02*
X111742904Y-127760009D01*
X111742904Y-127760009D02*
X111790523Y-127855247D01*
X111790523Y-127855247D02*
X111790523Y-128093342D01*
X111790523Y-128093342D02*
X111742904Y-128188580D01*
X111742904Y-128188580D02*
X111695285Y-128236200D01*
X111695285Y-128236200D02*
X111600047Y-128283819D01*
X111600047Y-128283819D02*
X111361952Y-128283819D01*
X111361952Y-128283819D02*
X111266714Y-128236200D01*
X111266714Y-128236200D02*
X111219095Y-128188580D01*
X124449580Y-101762857D02*
X124497200Y-101810476D01*
X124497200Y-101810476D02*
X124544819Y-101953333D01*
X124544819Y-101953333D02*
X124544819Y-102048571D01*
X124544819Y-102048571D02*
X124497200Y-102191428D01*
X124497200Y-102191428D02*
X124401961Y-102286666D01*
X124401961Y-102286666D02*
X124306723Y-102334285D01*
X124306723Y-102334285D02*
X124116247Y-102381904D01*
X124116247Y-102381904D02*
X123973390Y-102381904D01*
X123973390Y-102381904D02*
X123782914Y-102334285D01*
X123782914Y-102334285D02*
X123687676Y-102286666D01*
X123687676Y-102286666D02*
X123592438Y-102191428D01*
X123592438Y-102191428D02*
X123544819Y-102048571D01*
X123544819Y-102048571D02*
X123544819Y-101953333D01*
X123544819Y-101953333D02*
X123592438Y-101810476D01*
X123592438Y-101810476D02*
X123640057Y-101762857D01*
X123878152Y-100905714D02*
X124544819Y-100905714D01*
X123497200Y-101143809D02*
X124211485Y-101381904D01*
X124211485Y-101381904D02*
X124211485Y-100762857D01*
X124544819Y-100334285D02*
X124544819Y-100143809D01*
X124544819Y-100143809D02*
X124497200Y-100048571D01*
X124497200Y-100048571D02*
X124449580Y-100000952D01*
X124449580Y-100000952D02*
X124306723Y-99905714D01*
X124306723Y-99905714D02*
X124116247Y-99858095D01*
X124116247Y-99858095D02*
X123735295Y-99858095D01*
X123735295Y-99858095D02*
X123640057Y-99905714D01*
X123640057Y-99905714D02*
X123592438Y-99953333D01*
X123592438Y-99953333D02*
X123544819Y-100048571D01*
X123544819Y-100048571D02*
X123544819Y-100239047D01*
X123544819Y-100239047D02*
X123592438Y-100334285D01*
X123592438Y-100334285D02*
X123640057Y-100381904D01*
X123640057Y-100381904D02*
X123735295Y-100429523D01*
X123735295Y-100429523D02*
X123973390Y-100429523D01*
X123973390Y-100429523D02*
X124068628Y-100381904D01*
X124068628Y-100381904D02*
X124116247Y-100334285D01*
X124116247Y-100334285D02*
X124163866Y-100239047D01*
X124163866Y-100239047D02*
X124163866Y-100048571D01*
X124163866Y-100048571D02*
X124116247Y-99953333D01*
X124116247Y-99953333D02*
X124068628Y-99905714D01*
X124068628Y-99905714D02*
X123973390Y-99858095D01*
X103704580Y-107862857D02*
X103752200Y-107910476D01*
X103752200Y-107910476D02*
X103799819Y-108053333D01*
X103799819Y-108053333D02*
X103799819Y-108148571D01*
X103799819Y-108148571D02*
X103752200Y-108291428D01*
X103752200Y-108291428D02*
X103656961Y-108386666D01*
X103656961Y-108386666D02*
X103561723Y-108434285D01*
X103561723Y-108434285D02*
X103371247Y-108481904D01*
X103371247Y-108481904D02*
X103228390Y-108481904D01*
X103228390Y-108481904D02*
X103037914Y-108434285D01*
X103037914Y-108434285D02*
X102942676Y-108386666D01*
X102942676Y-108386666D02*
X102847438Y-108291428D01*
X102847438Y-108291428D02*
X102799819Y-108148571D01*
X102799819Y-108148571D02*
X102799819Y-108053333D01*
X102799819Y-108053333D02*
X102847438Y-107910476D01*
X102847438Y-107910476D02*
X102895057Y-107862857D01*
X102799819Y-107529523D02*
X102799819Y-106910476D01*
X102799819Y-106910476D02*
X103180771Y-107243809D01*
X103180771Y-107243809D02*
X103180771Y-107100952D01*
X103180771Y-107100952D02*
X103228390Y-107005714D01*
X103228390Y-107005714D02*
X103276009Y-106958095D01*
X103276009Y-106958095D02*
X103371247Y-106910476D01*
X103371247Y-106910476D02*
X103609342Y-106910476D01*
X103609342Y-106910476D02*
X103704580Y-106958095D01*
X103704580Y-106958095D02*
X103752200Y-107005714D01*
X103752200Y-107005714D02*
X103799819Y-107100952D01*
X103799819Y-107100952D02*
X103799819Y-107386666D01*
X103799819Y-107386666D02*
X103752200Y-107481904D01*
X103752200Y-107481904D02*
X103704580Y-107529523D01*
X103228390Y-106339047D02*
X103180771Y-106434285D01*
X103180771Y-106434285D02*
X103133152Y-106481904D01*
X103133152Y-106481904D02*
X103037914Y-106529523D01*
X103037914Y-106529523D02*
X102990295Y-106529523D01*
X102990295Y-106529523D02*
X102895057Y-106481904D01*
X102895057Y-106481904D02*
X102847438Y-106434285D01*
X102847438Y-106434285D02*
X102799819Y-106339047D01*
X102799819Y-106339047D02*
X102799819Y-106148571D01*
X102799819Y-106148571D02*
X102847438Y-106053333D01*
X102847438Y-106053333D02*
X102895057Y-106005714D01*
X102895057Y-106005714D02*
X102990295Y-105958095D01*
X102990295Y-105958095D02*
X103037914Y-105958095D01*
X103037914Y-105958095D02*
X103133152Y-106005714D01*
X103133152Y-106005714D02*
X103180771Y-106053333D01*
X103180771Y-106053333D02*
X103228390Y-106148571D01*
X103228390Y-106148571D02*
X103228390Y-106339047D01*
X103228390Y-106339047D02*
X103276009Y-106434285D01*
X103276009Y-106434285D02*
X103323628Y-106481904D01*
X103323628Y-106481904D02*
X103418866Y-106529523D01*
X103418866Y-106529523D02*
X103609342Y-106529523D01*
X103609342Y-106529523D02*
X103704580Y-106481904D01*
X103704580Y-106481904D02*
X103752200Y-106434285D01*
X103752200Y-106434285D02*
X103799819Y-106339047D01*
X103799819Y-106339047D02*
X103799819Y-106148571D01*
X103799819Y-106148571D02*
X103752200Y-106053333D01*
X103752200Y-106053333D02*
X103704580Y-106005714D01*
X103704580Y-106005714D02*
X103609342Y-105958095D01*
X103609342Y-105958095D02*
X103418866Y-105958095D01*
X103418866Y-105958095D02*
X103323628Y-106005714D01*
X103323628Y-106005714D02*
X103276009Y-106053333D01*
X103276009Y-106053333D02*
X103228390Y-106148571D01*
X119037142Y-112244819D02*
X118703809Y-111768628D01*
X118465714Y-112244819D02*
X118465714Y-111244819D01*
X118465714Y-111244819D02*
X118846666Y-111244819D01*
X118846666Y-111244819D02*
X118941904Y-111292438D01*
X118941904Y-111292438D02*
X118989523Y-111340057D01*
X118989523Y-111340057D02*
X119037142Y-111435295D01*
X119037142Y-111435295D02*
X119037142Y-111578152D01*
X119037142Y-111578152D02*
X118989523Y-111673390D01*
X118989523Y-111673390D02*
X118941904Y-111721009D01*
X118941904Y-111721009D02*
X118846666Y-111768628D01*
X118846666Y-111768628D02*
X118465714Y-111768628D01*
X119989523Y-112244819D02*
X119418095Y-112244819D01*
X119703809Y-112244819D02*
X119703809Y-111244819D01*
X119703809Y-111244819D02*
X119608571Y-111387676D01*
X119608571Y-111387676D02*
X119513333Y-111482914D01*
X119513333Y-111482914D02*
X119418095Y-111530533D01*
X120322857Y-111244819D02*
X120989523Y-111244819D01*
X120989523Y-111244819D02*
X120560952Y-112244819D01*
X124021905Y-113494819D02*
X124593333Y-113494819D01*
X124307619Y-114494819D02*
X124307619Y-113494819D01*
X124926667Y-114494819D02*
X124926667Y-113494819D01*
X124926667Y-113494819D02*
X125307619Y-113494819D01*
X125307619Y-113494819D02*
X125402857Y-113542438D01*
X125402857Y-113542438D02*
X125450476Y-113590057D01*
X125450476Y-113590057D02*
X125498095Y-113685295D01*
X125498095Y-113685295D02*
X125498095Y-113828152D01*
X125498095Y-113828152D02*
X125450476Y-113923390D01*
X125450476Y-113923390D02*
X125402857Y-113971009D01*
X125402857Y-113971009D02*
X125307619Y-114018628D01*
X125307619Y-114018628D02*
X124926667Y-114018628D01*
X126450476Y-114494819D02*
X125879048Y-114494819D01*
X126164762Y-114494819D02*
X126164762Y-113494819D01*
X126164762Y-113494819D02*
X126069524Y-113637676D01*
X126069524Y-113637676D02*
X125974286Y-113732914D01*
X125974286Y-113732914D02*
X125879048Y-113780533D01*
X127307619Y-113494819D02*
X127117143Y-113494819D01*
X127117143Y-113494819D02*
X127021905Y-113542438D01*
X127021905Y-113542438D02*
X126974286Y-113590057D01*
X126974286Y-113590057D02*
X126879048Y-113732914D01*
X126879048Y-113732914D02*
X126831429Y-113923390D01*
X126831429Y-113923390D02*
X126831429Y-114304342D01*
X126831429Y-114304342D02*
X126879048Y-114399580D01*
X126879048Y-114399580D02*
X126926667Y-114447200D01*
X126926667Y-114447200D02*
X127021905Y-114494819D01*
X127021905Y-114494819D02*
X127212381Y-114494819D01*
X127212381Y-114494819D02*
X127307619Y-114447200D01*
X127307619Y-114447200D02*
X127355238Y-114399580D01*
X127355238Y-114399580D02*
X127402857Y-114304342D01*
X127402857Y-114304342D02*
X127402857Y-114066247D01*
X127402857Y-114066247D02*
X127355238Y-113971009D01*
X127355238Y-113971009D02*
X127307619Y-113923390D01*
X127307619Y-113923390D02*
X127212381Y-113875771D01*
X127212381Y-113875771D02*
X127021905Y-113875771D01*
X127021905Y-113875771D02*
X126926667Y-113923390D01*
X126926667Y-113923390D02*
X126879048Y-113971009D01*
X126879048Y-113971009D02*
X126831429Y-114066247D01*
X84981905Y-120464819D02*
X85553333Y-120464819D01*
X85267619Y-121464819D02*
X85267619Y-120464819D01*
X85886667Y-121464819D02*
X85886667Y-120464819D01*
X85886667Y-120464819D02*
X86267619Y-120464819D01*
X86267619Y-120464819D02*
X86362857Y-120512438D01*
X86362857Y-120512438D02*
X86410476Y-120560057D01*
X86410476Y-120560057D02*
X86458095Y-120655295D01*
X86458095Y-120655295D02*
X86458095Y-120798152D01*
X86458095Y-120798152D02*
X86410476Y-120893390D01*
X86410476Y-120893390D02*
X86362857Y-120941009D01*
X86362857Y-120941009D02*
X86267619Y-120988628D01*
X86267619Y-120988628D02*
X85886667Y-120988628D01*
X86791429Y-120464819D02*
X87410476Y-120464819D01*
X87410476Y-120464819D02*
X87077143Y-120845771D01*
X87077143Y-120845771D02*
X87220000Y-120845771D01*
X87220000Y-120845771D02*
X87315238Y-120893390D01*
X87315238Y-120893390D02*
X87362857Y-120941009D01*
X87362857Y-120941009D02*
X87410476Y-121036247D01*
X87410476Y-121036247D02*
X87410476Y-121274342D01*
X87410476Y-121274342D02*
X87362857Y-121369580D01*
X87362857Y-121369580D02*
X87315238Y-121417200D01*
X87315238Y-121417200D02*
X87220000Y-121464819D01*
X87220000Y-121464819D02*
X86934286Y-121464819D01*
X86934286Y-121464819D02*
X86839048Y-121417200D01*
X86839048Y-121417200D02*
X86791429Y-121369580D01*
X88267619Y-120798152D02*
X88267619Y-121464819D01*
X88029524Y-120417200D02*
X87791429Y-121131485D01*
X87791429Y-121131485D02*
X88410476Y-121131485D01*
X103973580Y-141140857D02*
X104021200Y-141188476D01*
X104021200Y-141188476D02*
X104068819Y-141331333D01*
X104068819Y-141331333D02*
X104068819Y-141426571D01*
X104068819Y-141426571D02*
X104021200Y-141569428D01*
X104021200Y-141569428D02*
X103925961Y-141664666D01*
X103925961Y-141664666D02*
X103830723Y-141712285D01*
X103830723Y-141712285D02*
X103640247Y-141759904D01*
X103640247Y-141759904D02*
X103497390Y-141759904D01*
X103497390Y-141759904D02*
X103306914Y-141712285D01*
X103306914Y-141712285D02*
X103211676Y-141664666D01*
X103211676Y-141664666D02*
X103116438Y-141569428D01*
X103116438Y-141569428D02*
X103068819Y-141426571D01*
X103068819Y-141426571D02*
X103068819Y-141331333D01*
X103068819Y-141331333D02*
X103116438Y-141188476D01*
X103116438Y-141188476D02*
X103164057Y-141140857D01*
X103068819Y-140236095D02*
X103068819Y-140712285D01*
X103068819Y-140712285D02*
X103545009Y-140759904D01*
X103545009Y-140759904D02*
X103497390Y-140712285D01*
X103497390Y-140712285D02*
X103449771Y-140617047D01*
X103449771Y-140617047D02*
X103449771Y-140378952D01*
X103449771Y-140378952D02*
X103497390Y-140283714D01*
X103497390Y-140283714D02*
X103545009Y-140236095D01*
X103545009Y-140236095D02*
X103640247Y-140188476D01*
X103640247Y-140188476D02*
X103878342Y-140188476D01*
X103878342Y-140188476D02*
X103973580Y-140236095D01*
X103973580Y-140236095D02*
X104021200Y-140283714D01*
X104021200Y-140283714D02*
X104068819Y-140378952D01*
X104068819Y-140378952D02*
X104068819Y-140617047D01*
X104068819Y-140617047D02*
X104021200Y-140712285D01*
X104021200Y-140712285D02*
X103973580Y-140759904D01*
X103068819Y-139855142D02*
X103068819Y-139236095D01*
X103068819Y-139236095D02*
X103449771Y-139569428D01*
X103449771Y-139569428D02*
X103449771Y-139426571D01*
X103449771Y-139426571D02*
X103497390Y-139331333D01*
X103497390Y-139331333D02*
X103545009Y-139283714D01*
X103545009Y-139283714D02*
X103640247Y-139236095D01*
X103640247Y-139236095D02*
X103878342Y-139236095D01*
X103878342Y-139236095D02*
X103973580Y-139283714D01*
X103973580Y-139283714D02*
X104021200Y-139331333D01*
X104021200Y-139331333D02*
X104068819Y-139426571D01*
X104068819Y-139426571D02*
X104068819Y-139712285D01*
X104068819Y-139712285D02*
X104021200Y-139807523D01*
X104021200Y-139807523D02*
X103973580Y-139855142D01*
X94437142Y-110329580D02*
X94389523Y-110377200D01*
X94389523Y-110377200D02*
X94246666Y-110424819D01*
X94246666Y-110424819D02*
X94151428Y-110424819D01*
X94151428Y-110424819D02*
X94008571Y-110377200D01*
X94008571Y-110377200D02*
X93913333Y-110281961D01*
X93913333Y-110281961D02*
X93865714Y-110186723D01*
X93865714Y-110186723D02*
X93818095Y-109996247D01*
X93818095Y-109996247D02*
X93818095Y-109853390D01*
X93818095Y-109853390D02*
X93865714Y-109662914D01*
X93865714Y-109662914D02*
X93913333Y-109567676D01*
X93913333Y-109567676D02*
X94008571Y-109472438D01*
X94008571Y-109472438D02*
X94151428Y-109424819D01*
X94151428Y-109424819D02*
X94246666Y-109424819D01*
X94246666Y-109424819D02*
X94389523Y-109472438D01*
X94389523Y-109472438D02*
X94437142Y-109520057D01*
X95294285Y-109758152D02*
X95294285Y-110424819D01*
X95056190Y-109377200D02*
X94818095Y-110091485D01*
X94818095Y-110091485D02*
X95437142Y-110091485D01*
X95960952Y-109853390D02*
X95865714Y-109805771D01*
X95865714Y-109805771D02*
X95818095Y-109758152D01*
X95818095Y-109758152D02*
X95770476Y-109662914D01*
X95770476Y-109662914D02*
X95770476Y-109615295D01*
X95770476Y-109615295D02*
X95818095Y-109520057D01*
X95818095Y-109520057D02*
X95865714Y-109472438D01*
X95865714Y-109472438D02*
X95960952Y-109424819D01*
X95960952Y-109424819D02*
X96151428Y-109424819D01*
X96151428Y-109424819D02*
X96246666Y-109472438D01*
X96246666Y-109472438D02*
X96294285Y-109520057D01*
X96294285Y-109520057D02*
X96341904Y-109615295D01*
X96341904Y-109615295D02*
X96341904Y-109662914D01*
X96341904Y-109662914D02*
X96294285Y-109758152D01*
X96294285Y-109758152D02*
X96246666Y-109805771D01*
X96246666Y-109805771D02*
X96151428Y-109853390D01*
X96151428Y-109853390D02*
X95960952Y-109853390D01*
X95960952Y-109853390D02*
X95865714Y-109901009D01*
X95865714Y-109901009D02*
X95818095Y-109948628D01*
X95818095Y-109948628D02*
X95770476Y-110043866D01*
X95770476Y-110043866D02*
X95770476Y-110234342D01*
X95770476Y-110234342D02*
X95818095Y-110329580D01*
X95818095Y-110329580D02*
X95865714Y-110377200D01*
X95865714Y-110377200D02*
X95960952Y-110424819D01*
X95960952Y-110424819D02*
X96151428Y-110424819D01*
X96151428Y-110424819D02*
X96246666Y-110377200D01*
X96246666Y-110377200D02*
X96294285Y-110329580D01*
X96294285Y-110329580D02*
X96341904Y-110234342D01*
X96341904Y-110234342D02*
X96341904Y-110043866D01*
X96341904Y-110043866D02*
X96294285Y-109948628D01*
X96294285Y-109948628D02*
X96246666Y-109901009D01*
X96246666Y-109901009D02*
X96151428Y-109853390D01*
X115637142Y-110349580D02*
X115589523Y-110397200D01*
X115589523Y-110397200D02*
X115446666Y-110444819D01*
X115446666Y-110444819D02*
X115351428Y-110444819D01*
X115351428Y-110444819D02*
X115208571Y-110397200D01*
X115208571Y-110397200D02*
X115113333Y-110301961D01*
X115113333Y-110301961D02*
X115065714Y-110206723D01*
X115065714Y-110206723D02*
X115018095Y-110016247D01*
X115018095Y-110016247D02*
X115018095Y-109873390D01*
X115018095Y-109873390D02*
X115065714Y-109682914D01*
X115065714Y-109682914D02*
X115113333Y-109587676D01*
X115113333Y-109587676D02*
X115208571Y-109492438D01*
X115208571Y-109492438D02*
X115351428Y-109444819D01*
X115351428Y-109444819D02*
X115446666Y-109444819D01*
X115446666Y-109444819D02*
X115589523Y-109492438D01*
X115589523Y-109492438D02*
X115637142Y-109540057D01*
X116018095Y-109540057D02*
X116065714Y-109492438D01*
X116065714Y-109492438D02*
X116160952Y-109444819D01*
X116160952Y-109444819D02*
X116399047Y-109444819D01*
X116399047Y-109444819D02*
X116494285Y-109492438D01*
X116494285Y-109492438D02*
X116541904Y-109540057D01*
X116541904Y-109540057D02*
X116589523Y-109635295D01*
X116589523Y-109635295D02*
X116589523Y-109730533D01*
X116589523Y-109730533D02*
X116541904Y-109873390D01*
X116541904Y-109873390D02*
X115970476Y-110444819D01*
X115970476Y-110444819D02*
X116589523Y-110444819D01*
X117160952Y-109873390D02*
X117065714Y-109825771D01*
X117065714Y-109825771D02*
X117018095Y-109778152D01*
X117018095Y-109778152D02*
X116970476Y-109682914D01*
X116970476Y-109682914D02*
X116970476Y-109635295D01*
X116970476Y-109635295D02*
X117018095Y-109540057D01*
X117018095Y-109540057D02*
X117065714Y-109492438D01*
X117065714Y-109492438D02*
X117160952Y-109444819D01*
X117160952Y-109444819D02*
X117351428Y-109444819D01*
X117351428Y-109444819D02*
X117446666Y-109492438D01*
X117446666Y-109492438D02*
X117494285Y-109540057D01*
X117494285Y-109540057D02*
X117541904Y-109635295D01*
X117541904Y-109635295D02*
X117541904Y-109682914D01*
X117541904Y-109682914D02*
X117494285Y-109778152D01*
X117494285Y-109778152D02*
X117446666Y-109825771D01*
X117446666Y-109825771D02*
X117351428Y-109873390D01*
X117351428Y-109873390D02*
X117160952Y-109873390D01*
X117160952Y-109873390D02*
X117065714Y-109921009D01*
X117065714Y-109921009D02*
X117018095Y-109968628D01*
X117018095Y-109968628D02*
X116970476Y-110063866D01*
X116970476Y-110063866D02*
X116970476Y-110254342D01*
X116970476Y-110254342D02*
X117018095Y-110349580D01*
X117018095Y-110349580D02*
X117065714Y-110397200D01*
X117065714Y-110397200D02*
X117160952Y-110444819D01*
X117160952Y-110444819D02*
X117351428Y-110444819D01*
X117351428Y-110444819D02*
X117446666Y-110397200D01*
X117446666Y-110397200D02*
X117494285Y-110349580D01*
X117494285Y-110349580D02*
X117541904Y-110254342D01*
X117541904Y-110254342D02*
X117541904Y-110063866D01*
X117541904Y-110063866D02*
X117494285Y-109968628D01*
X117494285Y-109968628D02*
X117446666Y-109921009D01*
X117446666Y-109921009D02*
X117351428Y-109873390D01*
X117528095Y-96134819D02*
X117528095Y-96944342D01*
X117528095Y-96944342D02*
X117575714Y-97039580D01*
X117575714Y-97039580D02*
X117623333Y-97087200D01*
X117623333Y-97087200D02*
X117718571Y-97134819D01*
X117718571Y-97134819D02*
X117909047Y-97134819D01*
X117909047Y-97134819D02*
X118004285Y-97087200D01*
X118004285Y-97087200D02*
X118051904Y-97039580D01*
X118051904Y-97039580D02*
X118099523Y-96944342D01*
X118099523Y-96944342D02*
X118099523Y-96134819D01*
X118623333Y-97134819D02*
X118813809Y-97134819D01*
X118813809Y-97134819D02*
X118909047Y-97087200D01*
X118909047Y-97087200D02*
X118956666Y-97039580D01*
X118956666Y-97039580D02*
X119051904Y-96896723D01*
X119051904Y-96896723D02*
X119099523Y-96706247D01*
X119099523Y-96706247D02*
X119099523Y-96325295D01*
X119099523Y-96325295D02*
X119051904Y-96230057D01*
X119051904Y-96230057D02*
X119004285Y-96182438D01*
X119004285Y-96182438D02*
X118909047Y-96134819D01*
X118909047Y-96134819D02*
X118718571Y-96134819D01*
X118718571Y-96134819D02*
X118623333Y-96182438D01*
X118623333Y-96182438D02*
X118575714Y-96230057D01*
X118575714Y-96230057D02*
X118528095Y-96325295D01*
X118528095Y-96325295D02*
X118528095Y-96563390D01*
X118528095Y-96563390D02*
X118575714Y-96658628D01*
X118575714Y-96658628D02*
X118623333Y-96706247D01*
X118623333Y-96706247D02*
X118718571Y-96753866D01*
X118718571Y-96753866D02*
X118909047Y-96753866D01*
X118909047Y-96753866D02*
X119004285Y-96706247D01*
X119004285Y-96706247D02*
X119051904Y-96658628D01*
X119051904Y-96658628D02*
X119099523Y-96563390D01*
X93416142Y-137410219D02*
X93082809Y-136934028D01*
X92844714Y-137410219D02*
X92844714Y-136410219D01*
X92844714Y-136410219D02*
X93225666Y-136410219D01*
X93225666Y-136410219D02*
X93320904Y-136457838D01*
X93320904Y-136457838D02*
X93368523Y-136505457D01*
X93368523Y-136505457D02*
X93416142Y-136600695D01*
X93416142Y-136600695D02*
X93416142Y-136743552D01*
X93416142Y-136743552D02*
X93368523Y-136838790D01*
X93368523Y-136838790D02*
X93320904Y-136886409D01*
X93320904Y-136886409D02*
X93225666Y-136934028D01*
X93225666Y-136934028D02*
X92844714Y-136934028D01*
X93797095Y-136505457D02*
X93844714Y-136457838D01*
X93844714Y-136457838D02*
X93939952Y-136410219D01*
X93939952Y-136410219D02*
X94178047Y-136410219D01*
X94178047Y-136410219D02*
X94273285Y-136457838D01*
X94273285Y-136457838D02*
X94320904Y-136505457D01*
X94320904Y-136505457D02*
X94368523Y-136600695D01*
X94368523Y-136600695D02*
X94368523Y-136695933D01*
X94368523Y-136695933D02*
X94320904Y-136838790D01*
X94320904Y-136838790D02*
X93749476Y-137410219D01*
X93749476Y-137410219D02*
X94368523Y-137410219D01*
X95225666Y-136743552D02*
X95225666Y-137410219D01*
X94987571Y-136362600D02*
X94749476Y-137076885D01*
X94749476Y-137076885D02*
X95368523Y-137076885D01*
X113217142Y-106679580D02*
X113169523Y-106727200D01*
X113169523Y-106727200D02*
X113026666Y-106774819D01*
X113026666Y-106774819D02*
X112931428Y-106774819D01*
X112931428Y-106774819D02*
X112788571Y-106727200D01*
X112788571Y-106727200D02*
X112693333Y-106631961D01*
X112693333Y-106631961D02*
X112645714Y-106536723D01*
X112645714Y-106536723D02*
X112598095Y-106346247D01*
X112598095Y-106346247D02*
X112598095Y-106203390D01*
X112598095Y-106203390D02*
X112645714Y-106012914D01*
X112645714Y-106012914D02*
X112693333Y-105917676D01*
X112693333Y-105917676D02*
X112788571Y-105822438D01*
X112788571Y-105822438D02*
X112931428Y-105774819D01*
X112931428Y-105774819D02*
X113026666Y-105774819D01*
X113026666Y-105774819D02*
X113169523Y-105822438D01*
X113169523Y-105822438D02*
X113217142Y-105870057D01*
X113550476Y-105774819D02*
X114169523Y-105774819D01*
X114169523Y-105774819D02*
X113836190Y-106155771D01*
X113836190Y-106155771D02*
X113979047Y-106155771D01*
X113979047Y-106155771D02*
X114074285Y-106203390D01*
X114074285Y-106203390D02*
X114121904Y-106251009D01*
X114121904Y-106251009D02*
X114169523Y-106346247D01*
X114169523Y-106346247D02*
X114169523Y-106584342D01*
X114169523Y-106584342D02*
X114121904Y-106679580D01*
X114121904Y-106679580D02*
X114074285Y-106727200D01*
X114074285Y-106727200D02*
X113979047Y-106774819D01*
X113979047Y-106774819D02*
X113693333Y-106774819D01*
X113693333Y-106774819D02*
X113598095Y-106727200D01*
X113598095Y-106727200D02*
X113550476Y-106679580D01*
X115026666Y-106108152D02*
X115026666Y-106774819D01*
X114788571Y-105727200D02*
X114550476Y-106441485D01*
X114550476Y-106441485D02*
X115169523Y-106441485D01*
X95104819Y-122752857D02*
X94628628Y-123086190D01*
X95104819Y-123324285D02*
X94104819Y-123324285D01*
X94104819Y-123324285D02*
X94104819Y-122943333D01*
X94104819Y-122943333D02*
X94152438Y-122848095D01*
X94152438Y-122848095D02*
X94200057Y-122800476D01*
X94200057Y-122800476D02*
X94295295Y-122752857D01*
X94295295Y-122752857D02*
X94438152Y-122752857D01*
X94438152Y-122752857D02*
X94533390Y-122800476D01*
X94533390Y-122800476D02*
X94581009Y-122848095D01*
X94581009Y-122848095D02*
X94628628Y-122943333D01*
X94628628Y-122943333D02*
X94628628Y-123324285D01*
X94200057Y-122371904D02*
X94152438Y-122324285D01*
X94152438Y-122324285D02*
X94104819Y-122229047D01*
X94104819Y-122229047D02*
X94104819Y-121990952D01*
X94104819Y-121990952D02*
X94152438Y-121895714D01*
X94152438Y-121895714D02*
X94200057Y-121848095D01*
X94200057Y-121848095D02*
X94295295Y-121800476D01*
X94295295Y-121800476D02*
X94390533Y-121800476D01*
X94390533Y-121800476D02*
X94533390Y-121848095D01*
X94533390Y-121848095D02*
X95104819Y-122419523D01*
X95104819Y-122419523D02*
X95104819Y-121800476D01*
X94200057Y-121419523D02*
X94152438Y-121371904D01*
X94152438Y-121371904D02*
X94104819Y-121276666D01*
X94104819Y-121276666D02*
X94104819Y-121038571D01*
X94104819Y-121038571D02*
X94152438Y-120943333D01*
X94152438Y-120943333D02*
X94200057Y-120895714D01*
X94200057Y-120895714D02*
X94295295Y-120848095D01*
X94295295Y-120848095D02*
X94390533Y-120848095D01*
X94390533Y-120848095D02*
X94533390Y-120895714D01*
X94533390Y-120895714D02*
X95104819Y-121467142D01*
X95104819Y-121467142D02*
X95104819Y-120848095D01*
X110288142Y-134548580D02*
X110240523Y-134596200D01*
X110240523Y-134596200D02*
X110097666Y-134643819D01*
X110097666Y-134643819D02*
X110002428Y-134643819D01*
X110002428Y-134643819D02*
X109859571Y-134596200D01*
X109859571Y-134596200D02*
X109764333Y-134500961D01*
X109764333Y-134500961D02*
X109716714Y-134405723D01*
X109716714Y-134405723D02*
X109669095Y-134215247D01*
X109669095Y-134215247D02*
X109669095Y-134072390D01*
X109669095Y-134072390D02*
X109716714Y-133881914D01*
X109716714Y-133881914D02*
X109764333Y-133786676D01*
X109764333Y-133786676D02*
X109859571Y-133691438D01*
X109859571Y-133691438D02*
X110002428Y-133643819D01*
X110002428Y-133643819D02*
X110097666Y-133643819D01*
X110097666Y-133643819D02*
X110240523Y-133691438D01*
X110240523Y-133691438D02*
X110288142Y-133739057D01*
X110669095Y-133739057D02*
X110716714Y-133691438D01*
X110716714Y-133691438D02*
X110811952Y-133643819D01*
X110811952Y-133643819D02*
X111050047Y-133643819D01*
X111050047Y-133643819D02*
X111145285Y-133691438D01*
X111145285Y-133691438D02*
X111192904Y-133739057D01*
X111192904Y-133739057D02*
X111240523Y-133834295D01*
X111240523Y-133834295D02*
X111240523Y-133929533D01*
X111240523Y-133929533D02*
X111192904Y-134072390D01*
X111192904Y-134072390D02*
X110621476Y-134643819D01*
X110621476Y-134643819D02*
X111240523Y-134643819D01*
X112097666Y-133643819D02*
X111907190Y-133643819D01*
X111907190Y-133643819D02*
X111811952Y-133691438D01*
X111811952Y-133691438D02*
X111764333Y-133739057D01*
X111764333Y-133739057D02*
X111669095Y-133881914D01*
X111669095Y-133881914D02*
X111621476Y-134072390D01*
X111621476Y-134072390D02*
X111621476Y-134453342D01*
X111621476Y-134453342D02*
X111669095Y-134548580D01*
X111669095Y-134548580D02*
X111716714Y-134596200D01*
X111716714Y-134596200D02*
X111811952Y-134643819D01*
X111811952Y-134643819D02*
X112002428Y-134643819D01*
X112002428Y-134643819D02*
X112097666Y-134596200D01*
X112097666Y-134596200D02*
X112145285Y-134548580D01*
X112145285Y-134548580D02*
X112192904Y-134453342D01*
X112192904Y-134453342D02*
X112192904Y-134215247D01*
X112192904Y-134215247D02*
X112145285Y-134120009D01*
X112145285Y-134120009D02*
X112097666Y-134072390D01*
X112097666Y-134072390D02*
X112002428Y-134024771D01*
X112002428Y-134024771D02*
X111811952Y-134024771D01*
X111811952Y-134024771D02*
X111716714Y-134072390D01*
X111716714Y-134072390D02*
X111669095Y-134120009D01*
X111669095Y-134120009D02*
X111621476Y-134215247D01*
X123407142Y-104619580D02*
X123359523Y-104667200D01*
X123359523Y-104667200D02*
X123216666Y-104714819D01*
X123216666Y-104714819D02*
X123121428Y-104714819D01*
X123121428Y-104714819D02*
X122978571Y-104667200D01*
X122978571Y-104667200D02*
X122883333Y-104571961D01*
X122883333Y-104571961D02*
X122835714Y-104476723D01*
X122835714Y-104476723D02*
X122788095Y-104286247D01*
X122788095Y-104286247D02*
X122788095Y-104143390D01*
X122788095Y-104143390D02*
X122835714Y-103952914D01*
X122835714Y-103952914D02*
X122883333Y-103857676D01*
X122883333Y-103857676D02*
X122978571Y-103762438D01*
X122978571Y-103762438D02*
X123121428Y-103714819D01*
X123121428Y-103714819D02*
X123216666Y-103714819D01*
X123216666Y-103714819D02*
X123359523Y-103762438D01*
X123359523Y-103762438D02*
X123407142Y-103810057D01*
X124264285Y-104048152D02*
X124264285Y-104714819D01*
X124026190Y-103667200D02*
X123788095Y-104381485D01*
X123788095Y-104381485D02*
X124407142Y-104381485D01*
X124692857Y-103714819D02*
X125359523Y-103714819D01*
X125359523Y-103714819D02*
X124930952Y-104714819D01*
X108487142Y-122769580D02*
X108439523Y-122817200D01*
X108439523Y-122817200D02*
X108296666Y-122864819D01*
X108296666Y-122864819D02*
X108201428Y-122864819D01*
X108201428Y-122864819D02*
X108058571Y-122817200D01*
X108058571Y-122817200D02*
X107963333Y-122721961D01*
X107963333Y-122721961D02*
X107915714Y-122626723D01*
X107915714Y-122626723D02*
X107868095Y-122436247D01*
X107868095Y-122436247D02*
X107868095Y-122293390D01*
X107868095Y-122293390D02*
X107915714Y-122102914D01*
X107915714Y-122102914D02*
X107963333Y-122007676D01*
X107963333Y-122007676D02*
X108058571Y-121912438D01*
X108058571Y-121912438D02*
X108201428Y-121864819D01*
X108201428Y-121864819D02*
X108296666Y-121864819D01*
X108296666Y-121864819D02*
X108439523Y-121912438D01*
X108439523Y-121912438D02*
X108487142Y-121960057D01*
X108820476Y-121864819D02*
X109439523Y-121864819D01*
X109439523Y-121864819D02*
X109106190Y-122245771D01*
X109106190Y-122245771D02*
X109249047Y-122245771D01*
X109249047Y-122245771D02*
X109344285Y-122293390D01*
X109344285Y-122293390D02*
X109391904Y-122341009D01*
X109391904Y-122341009D02*
X109439523Y-122436247D01*
X109439523Y-122436247D02*
X109439523Y-122674342D01*
X109439523Y-122674342D02*
X109391904Y-122769580D01*
X109391904Y-122769580D02*
X109344285Y-122817200D01*
X109344285Y-122817200D02*
X109249047Y-122864819D01*
X109249047Y-122864819D02*
X108963333Y-122864819D01*
X108963333Y-122864819D02*
X108868095Y-122817200D01*
X108868095Y-122817200D02*
X108820476Y-122769580D01*
X109772857Y-121864819D02*
X110391904Y-121864819D01*
X110391904Y-121864819D02*
X110058571Y-122245771D01*
X110058571Y-122245771D02*
X110201428Y-122245771D01*
X110201428Y-122245771D02*
X110296666Y-122293390D01*
X110296666Y-122293390D02*
X110344285Y-122341009D01*
X110344285Y-122341009D02*
X110391904Y-122436247D01*
X110391904Y-122436247D02*
X110391904Y-122674342D01*
X110391904Y-122674342D02*
X110344285Y-122769580D01*
X110344285Y-122769580D02*
X110296666Y-122817200D01*
X110296666Y-122817200D02*
X110201428Y-122864819D01*
X110201428Y-122864819D02*
X109915714Y-122864819D01*
X109915714Y-122864819D02*
X109820476Y-122817200D01*
X109820476Y-122817200D02*
X109772857Y-122769580D01*
X109844580Y-107862857D02*
X109892200Y-107910476D01*
X109892200Y-107910476D02*
X109939819Y-108053333D01*
X109939819Y-108053333D02*
X109939819Y-108148571D01*
X109939819Y-108148571D02*
X109892200Y-108291428D01*
X109892200Y-108291428D02*
X109796961Y-108386666D01*
X109796961Y-108386666D02*
X109701723Y-108434285D01*
X109701723Y-108434285D02*
X109511247Y-108481904D01*
X109511247Y-108481904D02*
X109368390Y-108481904D01*
X109368390Y-108481904D02*
X109177914Y-108434285D01*
X109177914Y-108434285D02*
X109082676Y-108386666D01*
X109082676Y-108386666D02*
X108987438Y-108291428D01*
X108987438Y-108291428D02*
X108939819Y-108148571D01*
X108939819Y-108148571D02*
X108939819Y-108053333D01*
X108939819Y-108053333D02*
X108987438Y-107910476D01*
X108987438Y-107910476D02*
X109035057Y-107862857D01*
X108939819Y-107529523D02*
X108939819Y-106910476D01*
X108939819Y-106910476D02*
X109320771Y-107243809D01*
X109320771Y-107243809D02*
X109320771Y-107100952D01*
X109320771Y-107100952D02*
X109368390Y-107005714D01*
X109368390Y-107005714D02*
X109416009Y-106958095D01*
X109416009Y-106958095D02*
X109511247Y-106910476D01*
X109511247Y-106910476D02*
X109749342Y-106910476D01*
X109749342Y-106910476D02*
X109844580Y-106958095D01*
X109844580Y-106958095D02*
X109892200Y-107005714D01*
X109892200Y-107005714D02*
X109939819Y-107100952D01*
X109939819Y-107100952D02*
X109939819Y-107386666D01*
X109939819Y-107386666D02*
X109892200Y-107481904D01*
X109892200Y-107481904D02*
X109844580Y-107529523D01*
X108939819Y-106577142D02*
X108939819Y-105910476D01*
X108939819Y-105910476D02*
X109939819Y-106339047D01*
X125027142Y-116674819D02*
X124693809Y-116198628D01*
X124455714Y-116674819D02*
X124455714Y-115674819D01*
X124455714Y-115674819D02*
X124836666Y-115674819D01*
X124836666Y-115674819D02*
X124931904Y-115722438D01*
X124931904Y-115722438D02*
X124979523Y-115770057D01*
X124979523Y-115770057D02*
X125027142Y-115865295D01*
X125027142Y-115865295D02*
X125027142Y-116008152D01*
X125027142Y-116008152D02*
X124979523Y-116103390D01*
X124979523Y-116103390D02*
X124931904Y-116151009D01*
X124931904Y-116151009D02*
X124836666Y-116198628D01*
X124836666Y-116198628D02*
X124455714Y-116198628D01*
X125979523Y-116674819D02*
X125408095Y-116674819D01*
X125693809Y-116674819D02*
X125693809Y-115674819D01*
X125693809Y-115674819D02*
X125598571Y-115817676D01*
X125598571Y-115817676D02*
X125503333Y-115912914D01*
X125503333Y-115912914D02*
X125408095Y-115960533D01*
X126550952Y-116103390D02*
X126455714Y-116055771D01*
X126455714Y-116055771D02*
X126408095Y-116008152D01*
X126408095Y-116008152D02*
X126360476Y-115912914D01*
X126360476Y-115912914D02*
X126360476Y-115865295D01*
X126360476Y-115865295D02*
X126408095Y-115770057D01*
X126408095Y-115770057D02*
X126455714Y-115722438D01*
X126455714Y-115722438D02*
X126550952Y-115674819D01*
X126550952Y-115674819D02*
X126741428Y-115674819D01*
X126741428Y-115674819D02*
X126836666Y-115722438D01*
X126836666Y-115722438D02*
X126884285Y-115770057D01*
X126884285Y-115770057D02*
X126931904Y-115865295D01*
X126931904Y-115865295D02*
X126931904Y-115912914D01*
X126931904Y-115912914D02*
X126884285Y-116008152D01*
X126884285Y-116008152D02*
X126836666Y-116055771D01*
X126836666Y-116055771D02*
X126741428Y-116103390D01*
X126741428Y-116103390D02*
X126550952Y-116103390D01*
X126550952Y-116103390D02*
X126455714Y-116151009D01*
X126455714Y-116151009D02*
X126408095Y-116198628D01*
X126408095Y-116198628D02*
X126360476Y-116293866D01*
X126360476Y-116293866D02*
X126360476Y-116484342D01*
X126360476Y-116484342D02*
X126408095Y-116579580D01*
X126408095Y-116579580D02*
X126455714Y-116627200D01*
X126455714Y-116627200D02*
X126550952Y-116674819D01*
X126550952Y-116674819D02*
X126741428Y-116674819D01*
X126741428Y-116674819D02*
X126836666Y-116627200D01*
X126836666Y-116627200D02*
X126884285Y-116579580D01*
X126884285Y-116579580D02*
X126931904Y-116484342D01*
X126931904Y-116484342D02*
X126931904Y-116293866D01*
X126931904Y-116293866D02*
X126884285Y-116198628D01*
X126884285Y-116198628D02*
X126836666Y-116151009D01*
X126836666Y-116151009D02*
X126741428Y-116103390D01*
X111962142Y-103579580D02*
X111914523Y-103627200D01*
X111914523Y-103627200D02*
X111771666Y-103674819D01*
X111771666Y-103674819D02*
X111676428Y-103674819D01*
X111676428Y-103674819D02*
X111533571Y-103627200D01*
X111533571Y-103627200D02*
X111438333Y-103531961D01*
X111438333Y-103531961D02*
X111390714Y-103436723D01*
X111390714Y-103436723D02*
X111343095Y-103246247D01*
X111343095Y-103246247D02*
X111343095Y-103103390D01*
X111343095Y-103103390D02*
X111390714Y-102912914D01*
X111390714Y-102912914D02*
X111438333Y-102817676D01*
X111438333Y-102817676D02*
X111533571Y-102722438D01*
X111533571Y-102722438D02*
X111676428Y-102674819D01*
X111676428Y-102674819D02*
X111771666Y-102674819D01*
X111771666Y-102674819D02*
X111914523Y-102722438D01*
X111914523Y-102722438D02*
X111962142Y-102770057D01*
X112295476Y-102674819D02*
X112914523Y-102674819D01*
X112914523Y-102674819D02*
X112581190Y-103055771D01*
X112581190Y-103055771D02*
X112724047Y-103055771D01*
X112724047Y-103055771D02*
X112819285Y-103103390D01*
X112819285Y-103103390D02*
X112866904Y-103151009D01*
X112866904Y-103151009D02*
X112914523Y-103246247D01*
X112914523Y-103246247D02*
X112914523Y-103484342D01*
X112914523Y-103484342D02*
X112866904Y-103579580D01*
X112866904Y-103579580D02*
X112819285Y-103627200D01*
X112819285Y-103627200D02*
X112724047Y-103674819D01*
X112724047Y-103674819D02*
X112438333Y-103674819D01*
X112438333Y-103674819D02*
X112343095Y-103627200D01*
X112343095Y-103627200D02*
X112295476Y-103579580D01*
X113771666Y-102674819D02*
X113581190Y-102674819D01*
X113581190Y-102674819D02*
X113485952Y-102722438D01*
X113485952Y-102722438D02*
X113438333Y-102770057D01*
X113438333Y-102770057D02*
X113343095Y-102912914D01*
X113343095Y-102912914D02*
X113295476Y-103103390D01*
X113295476Y-103103390D02*
X113295476Y-103484342D01*
X113295476Y-103484342D02*
X113343095Y-103579580D01*
X113343095Y-103579580D02*
X113390714Y-103627200D01*
X113390714Y-103627200D02*
X113485952Y-103674819D01*
X113485952Y-103674819D02*
X113676428Y-103674819D01*
X113676428Y-103674819D02*
X113771666Y-103627200D01*
X113771666Y-103627200D02*
X113819285Y-103579580D01*
X113819285Y-103579580D02*
X113866904Y-103484342D01*
X113866904Y-103484342D02*
X113866904Y-103246247D01*
X113866904Y-103246247D02*
X113819285Y-103151009D01*
X113819285Y-103151009D02*
X113771666Y-103103390D01*
X113771666Y-103103390D02*
X113676428Y-103055771D01*
X113676428Y-103055771D02*
X113485952Y-103055771D01*
X113485952Y-103055771D02*
X113390714Y-103103390D01*
X113390714Y-103103390D02*
X113343095Y-103151009D01*
X113343095Y-103151009D02*
X113295476Y-103246247D01*
X107227905Y-135344819D02*
X107799333Y-135344819D01*
X107513619Y-136344819D02*
X107513619Y-135344819D01*
X108132667Y-136344819D02*
X108132667Y-135344819D01*
X108132667Y-135344819D02*
X108513619Y-135344819D01*
X108513619Y-135344819D02*
X108608857Y-135392438D01*
X108608857Y-135392438D02*
X108656476Y-135440057D01*
X108656476Y-135440057D02*
X108704095Y-135535295D01*
X108704095Y-135535295D02*
X108704095Y-135678152D01*
X108704095Y-135678152D02*
X108656476Y-135773390D01*
X108656476Y-135773390D02*
X108608857Y-135821009D01*
X108608857Y-135821009D02*
X108513619Y-135868628D01*
X108513619Y-135868628D02*
X108132667Y-135868628D01*
X109085048Y-135440057D02*
X109132667Y-135392438D01*
X109132667Y-135392438D02*
X109227905Y-135344819D01*
X109227905Y-135344819D02*
X109466000Y-135344819D01*
X109466000Y-135344819D02*
X109561238Y-135392438D01*
X109561238Y-135392438D02*
X109608857Y-135440057D01*
X109608857Y-135440057D02*
X109656476Y-135535295D01*
X109656476Y-135535295D02*
X109656476Y-135630533D01*
X109656476Y-135630533D02*
X109608857Y-135773390D01*
X109608857Y-135773390D02*
X109037429Y-136344819D01*
X109037429Y-136344819D02*
X109656476Y-136344819D01*
X110275524Y-135344819D02*
X110370762Y-135344819D01*
X110370762Y-135344819D02*
X110466000Y-135392438D01*
X110466000Y-135392438D02*
X110513619Y-135440057D01*
X110513619Y-135440057D02*
X110561238Y-135535295D01*
X110561238Y-135535295D02*
X110608857Y-135725771D01*
X110608857Y-135725771D02*
X110608857Y-135963866D01*
X110608857Y-135963866D02*
X110561238Y-136154342D01*
X110561238Y-136154342D02*
X110513619Y-136249580D01*
X110513619Y-136249580D02*
X110466000Y-136297200D01*
X110466000Y-136297200D02*
X110370762Y-136344819D01*
X110370762Y-136344819D02*
X110275524Y-136344819D01*
X110275524Y-136344819D02*
X110180286Y-136297200D01*
X110180286Y-136297200D02*
X110132667Y-136249580D01*
X110132667Y-136249580D02*
X110085048Y-136154342D01*
X110085048Y-136154342D02*
X110037429Y-135963866D01*
X110037429Y-135963866D02*
X110037429Y-135725771D01*
X110037429Y-135725771D02*
X110085048Y-135535295D01*
X110085048Y-135535295D02*
X110132667Y-135440057D01*
X110132667Y-135440057D02*
X110180286Y-135392438D01*
X110180286Y-135392438D02*
X110275524Y-135344819D01*
X118614819Y-117558094D02*
X118614819Y-116986666D01*
X119614819Y-117272380D02*
X118614819Y-117272380D01*
X119614819Y-116653332D02*
X118614819Y-116653332D01*
X118614819Y-116653332D02*
X118614819Y-116272380D01*
X118614819Y-116272380D02*
X118662438Y-116177142D01*
X118662438Y-116177142D02*
X118710057Y-116129523D01*
X118710057Y-116129523D02*
X118805295Y-116081904D01*
X118805295Y-116081904D02*
X118948152Y-116081904D01*
X118948152Y-116081904D02*
X119043390Y-116129523D01*
X119043390Y-116129523D02*
X119091009Y-116177142D01*
X119091009Y-116177142D02*
X119138628Y-116272380D01*
X119138628Y-116272380D02*
X119138628Y-116653332D01*
X119614819Y-115129523D02*
X119614819Y-115700951D01*
X119614819Y-115415237D02*
X118614819Y-115415237D01*
X118614819Y-115415237D02*
X118757676Y-115510475D01*
X118757676Y-115510475D02*
X118852914Y-115605713D01*
X118852914Y-115605713D02*
X118900533Y-115700951D01*
X118614819Y-114796189D02*
X118614819Y-114129523D01*
X118614819Y-114129523D02*
X119614819Y-114558094D01*
X88731905Y-112254819D02*
X89303333Y-112254819D01*
X89017619Y-113254819D02*
X89017619Y-112254819D01*
X89636667Y-113254819D02*
X89636667Y-112254819D01*
X89636667Y-112254819D02*
X90017619Y-112254819D01*
X90017619Y-112254819D02*
X90112857Y-112302438D01*
X90112857Y-112302438D02*
X90160476Y-112350057D01*
X90160476Y-112350057D02*
X90208095Y-112445295D01*
X90208095Y-112445295D02*
X90208095Y-112588152D01*
X90208095Y-112588152D02*
X90160476Y-112683390D01*
X90160476Y-112683390D02*
X90112857Y-112731009D01*
X90112857Y-112731009D02*
X90017619Y-112778628D01*
X90017619Y-112778628D02*
X89636667Y-112778628D01*
X90541429Y-112254819D02*
X91160476Y-112254819D01*
X91160476Y-112254819D02*
X90827143Y-112635771D01*
X90827143Y-112635771D02*
X90970000Y-112635771D01*
X90970000Y-112635771D02*
X91065238Y-112683390D01*
X91065238Y-112683390D02*
X91112857Y-112731009D01*
X91112857Y-112731009D02*
X91160476Y-112826247D01*
X91160476Y-112826247D02*
X91160476Y-113064342D01*
X91160476Y-113064342D02*
X91112857Y-113159580D01*
X91112857Y-113159580D02*
X91065238Y-113207200D01*
X91065238Y-113207200D02*
X90970000Y-113254819D01*
X90970000Y-113254819D02*
X90684286Y-113254819D01*
X90684286Y-113254819D02*
X90589048Y-113207200D01*
X90589048Y-113207200D02*
X90541429Y-113159580D01*
X91779524Y-112254819D02*
X91874762Y-112254819D01*
X91874762Y-112254819D02*
X91970000Y-112302438D01*
X91970000Y-112302438D02*
X92017619Y-112350057D01*
X92017619Y-112350057D02*
X92065238Y-112445295D01*
X92065238Y-112445295D02*
X92112857Y-112635771D01*
X92112857Y-112635771D02*
X92112857Y-112873866D01*
X92112857Y-112873866D02*
X92065238Y-113064342D01*
X92065238Y-113064342D02*
X92017619Y-113159580D01*
X92017619Y-113159580D02*
X91970000Y-113207200D01*
X91970000Y-113207200D02*
X91874762Y-113254819D01*
X91874762Y-113254819D02*
X91779524Y-113254819D01*
X91779524Y-113254819D02*
X91684286Y-113207200D01*
X91684286Y-113207200D02*
X91636667Y-113159580D01*
X91636667Y-113159580D02*
X91589048Y-113064342D01*
X91589048Y-113064342D02*
X91541429Y-112873866D01*
X91541429Y-112873866D02*
X91541429Y-112635771D01*
X91541429Y-112635771D02*
X91589048Y-112445295D01*
X91589048Y-112445295D02*
X91636667Y-112350057D01*
X91636667Y-112350057D02*
X91684286Y-112302438D01*
X91684286Y-112302438D02*
X91779524Y-112254819D01*
X90957142Y-126399580D02*
X90909523Y-126447200D01*
X90909523Y-126447200D02*
X90766666Y-126494819D01*
X90766666Y-126494819D02*
X90671428Y-126494819D01*
X90671428Y-126494819D02*
X90528571Y-126447200D01*
X90528571Y-126447200D02*
X90433333Y-126351961D01*
X90433333Y-126351961D02*
X90385714Y-126256723D01*
X90385714Y-126256723D02*
X90338095Y-126066247D01*
X90338095Y-126066247D02*
X90338095Y-125923390D01*
X90338095Y-125923390D02*
X90385714Y-125732914D01*
X90385714Y-125732914D02*
X90433333Y-125637676D01*
X90433333Y-125637676D02*
X90528571Y-125542438D01*
X90528571Y-125542438D02*
X90671428Y-125494819D01*
X90671428Y-125494819D02*
X90766666Y-125494819D01*
X90766666Y-125494819D02*
X90909523Y-125542438D01*
X90909523Y-125542438D02*
X90957142Y-125590057D01*
X91861904Y-125494819D02*
X91385714Y-125494819D01*
X91385714Y-125494819D02*
X91338095Y-125971009D01*
X91338095Y-125971009D02*
X91385714Y-125923390D01*
X91385714Y-125923390D02*
X91480952Y-125875771D01*
X91480952Y-125875771D02*
X91719047Y-125875771D01*
X91719047Y-125875771D02*
X91814285Y-125923390D01*
X91814285Y-125923390D02*
X91861904Y-125971009D01*
X91861904Y-125971009D02*
X91909523Y-126066247D01*
X91909523Y-126066247D02*
X91909523Y-126304342D01*
X91909523Y-126304342D02*
X91861904Y-126399580D01*
X91861904Y-126399580D02*
X91814285Y-126447200D01*
X91814285Y-126447200D02*
X91719047Y-126494819D01*
X91719047Y-126494819D02*
X91480952Y-126494819D01*
X91480952Y-126494819D02*
X91385714Y-126447200D01*
X91385714Y-126447200D02*
X91338095Y-126399580D01*
X92528571Y-125494819D02*
X92623809Y-125494819D01*
X92623809Y-125494819D02*
X92719047Y-125542438D01*
X92719047Y-125542438D02*
X92766666Y-125590057D01*
X92766666Y-125590057D02*
X92814285Y-125685295D01*
X92814285Y-125685295D02*
X92861904Y-125875771D01*
X92861904Y-125875771D02*
X92861904Y-126113866D01*
X92861904Y-126113866D02*
X92814285Y-126304342D01*
X92814285Y-126304342D02*
X92766666Y-126399580D01*
X92766666Y-126399580D02*
X92719047Y-126447200D01*
X92719047Y-126447200D02*
X92623809Y-126494819D01*
X92623809Y-126494819D02*
X92528571Y-126494819D01*
X92528571Y-126494819D02*
X92433333Y-126447200D01*
X92433333Y-126447200D02*
X92385714Y-126399580D01*
X92385714Y-126399580D02*
X92338095Y-126304342D01*
X92338095Y-126304342D02*
X92290476Y-126113866D01*
X92290476Y-126113866D02*
X92290476Y-125875771D01*
X92290476Y-125875771D02*
X92338095Y-125685295D01*
X92338095Y-125685295D02*
X92385714Y-125590057D01*
X92385714Y-125590057D02*
X92433333Y-125542438D01*
X92433333Y-125542438D02*
X92528571Y-125494819D01*
X114557142Y-108459580D02*
X114509523Y-108507200D01*
X114509523Y-108507200D02*
X114366666Y-108554819D01*
X114366666Y-108554819D02*
X114271428Y-108554819D01*
X114271428Y-108554819D02*
X114128571Y-108507200D01*
X114128571Y-108507200D02*
X114033333Y-108411961D01*
X114033333Y-108411961D02*
X113985714Y-108316723D01*
X113985714Y-108316723D02*
X113938095Y-108126247D01*
X113938095Y-108126247D02*
X113938095Y-107983390D01*
X113938095Y-107983390D02*
X113985714Y-107792914D01*
X113985714Y-107792914D02*
X114033333Y-107697676D01*
X114033333Y-107697676D02*
X114128571Y-107602438D01*
X114128571Y-107602438D02*
X114271428Y-107554819D01*
X114271428Y-107554819D02*
X114366666Y-107554819D01*
X114366666Y-107554819D02*
X114509523Y-107602438D01*
X114509523Y-107602438D02*
X114557142Y-107650057D01*
X114890476Y-107554819D02*
X115509523Y-107554819D01*
X115509523Y-107554819D02*
X115176190Y-107935771D01*
X115176190Y-107935771D02*
X115319047Y-107935771D01*
X115319047Y-107935771D02*
X115414285Y-107983390D01*
X115414285Y-107983390D02*
X115461904Y-108031009D01*
X115461904Y-108031009D02*
X115509523Y-108126247D01*
X115509523Y-108126247D02*
X115509523Y-108364342D01*
X115509523Y-108364342D02*
X115461904Y-108459580D01*
X115461904Y-108459580D02*
X115414285Y-108507200D01*
X115414285Y-108507200D02*
X115319047Y-108554819D01*
X115319047Y-108554819D02*
X115033333Y-108554819D01*
X115033333Y-108554819D02*
X114938095Y-108507200D01*
X114938095Y-108507200D02*
X114890476Y-108459580D01*
X115890476Y-107650057D02*
X115938095Y-107602438D01*
X115938095Y-107602438D02*
X116033333Y-107554819D01*
X116033333Y-107554819D02*
X116271428Y-107554819D01*
X116271428Y-107554819D02*
X116366666Y-107602438D01*
X116366666Y-107602438D02*
X116414285Y-107650057D01*
X116414285Y-107650057D02*
X116461904Y-107745295D01*
X116461904Y-107745295D02*
X116461904Y-107840533D01*
X116461904Y-107840533D02*
X116414285Y-107983390D01*
X116414285Y-107983390D02*
X115842857Y-108554819D01*
X115842857Y-108554819D02*
X116461904Y-108554819D01*
X104211142Y-136717580D02*
X104163523Y-136765200D01*
X104163523Y-136765200D02*
X104020666Y-136812819D01*
X104020666Y-136812819D02*
X103925428Y-136812819D01*
X103925428Y-136812819D02*
X103782571Y-136765200D01*
X103782571Y-136765200D02*
X103687333Y-136669961D01*
X103687333Y-136669961D02*
X103639714Y-136574723D01*
X103639714Y-136574723D02*
X103592095Y-136384247D01*
X103592095Y-136384247D02*
X103592095Y-136241390D01*
X103592095Y-136241390D02*
X103639714Y-136050914D01*
X103639714Y-136050914D02*
X103687333Y-135955676D01*
X103687333Y-135955676D02*
X103782571Y-135860438D01*
X103782571Y-135860438D02*
X103925428Y-135812819D01*
X103925428Y-135812819D02*
X104020666Y-135812819D01*
X104020666Y-135812819D02*
X104163523Y-135860438D01*
X104163523Y-135860438D02*
X104211142Y-135908057D01*
X105115904Y-135812819D02*
X104639714Y-135812819D01*
X104639714Y-135812819D02*
X104592095Y-136289009D01*
X104592095Y-136289009D02*
X104639714Y-136241390D01*
X104639714Y-136241390D02*
X104734952Y-136193771D01*
X104734952Y-136193771D02*
X104973047Y-136193771D01*
X104973047Y-136193771D02*
X105068285Y-136241390D01*
X105068285Y-136241390D02*
X105115904Y-136289009D01*
X105115904Y-136289009D02*
X105163523Y-136384247D01*
X105163523Y-136384247D02*
X105163523Y-136622342D01*
X105163523Y-136622342D02*
X105115904Y-136717580D01*
X105115904Y-136717580D02*
X105068285Y-136765200D01*
X105068285Y-136765200D02*
X104973047Y-136812819D01*
X104973047Y-136812819D02*
X104734952Y-136812819D01*
X104734952Y-136812819D02*
X104639714Y-136765200D01*
X104639714Y-136765200D02*
X104592095Y-136717580D01*
X105544476Y-135908057D02*
X105592095Y-135860438D01*
X105592095Y-135860438D02*
X105687333Y-135812819D01*
X105687333Y-135812819D02*
X105925428Y-135812819D01*
X105925428Y-135812819D02*
X106020666Y-135860438D01*
X106020666Y-135860438D02*
X106068285Y-135908057D01*
X106068285Y-135908057D02*
X106115904Y-136003295D01*
X106115904Y-136003295D02*
X106115904Y-136098533D01*
X106115904Y-136098533D02*
X106068285Y-136241390D01*
X106068285Y-136241390D02*
X105496857Y-136812819D01*
X105496857Y-136812819D02*
X106115904Y-136812819D01*
X82301905Y-115042219D02*
X82873333Y-115042219D01*
X82587619Y-116042219D02*
X82587619Y-115042219D01*
X83206667Y-116042219D02*
X83206667Y-115042219D01*
X83206667Y-115042219D02*
X83587619Y-115042219D01*
X83587619Y-115042219D02*
X83682857Y-115089838D01*
X83682857Y-115089838D02*
X83730476Y-115137457D01*
X83730476Y-115137457D02*
X83778095Y-115232695D01*
X83778095Y-115232695D02*
X83778095Y-115375552D01*
X83778095Y-115375552D02*
X83730476Y-115470790D01*
X83730476Y-115470790D02*
X83682857Y-115518409D01*
X83682857Y-115518409D02*
X83587619Y-115566028D01*
X83587619Y-115566028D02*
X83206667Y-115566028D01*
X84111429Y-115042219D02*
X84730476Y-115042219D01*
X84730476Y-115042219D02*
X84397143Y-115423171D01*
X84397143Y-115423171D02*
X84540000Y-115423171D01*
X84540000Y-115423171D02*
X84635238Y-115470790D01*
X84635238Y-115470790D02*
X84682857Y-115518409D01*
X84682857Y-115518409D02*
X84730476Y-115613647D01*
X84730476Y-115613647D02*
X84730476Y-115851742D01*
X84730476Y-115851742D02*
X84682857Y-115946980D01*
X84682857Y-115946980D02*
X84635238Y-115994600D01*
X84635238Y-115994600D02*
X84540000Y-116042219D01*
X84540000Y-116042219D02*
X84254286Y-116042219D01*
X84254286Y-116042219D02*
X84159048Y-115994600D01*
X84159048Y-115994600D02*
X84111429Y-115946980D01*
X85682857Y-116042219D02*
X85111429Y-116042219D01*
X85397143Y-116042219D02*
X85397143Y-115042219D01*
X85397143Y-115042219D02*
X85301905Y-115185076D01*
X85301905Y-115185076D02*
X85206667Y-115280314D01*
X85206667Y-115280314D02*
X85111429Y-115327933D01*
X91124819Y-119118094D02*
X91124819Y-118546666D01*
X92124819Y-118832380D02*
X91124819Y-118832380D01*
X92124819Y-118213332D02*
X91124819Y-118213332D01*
X91124819Y-118213332D02*
X91124819Y-117832380D01*
X91124819Y-117832380D02*
X91172438Y-117737142D01*
X91172438Y-117737142D02*
X91220057Y-117689523D01*
X91220057Y-117689523D02*
X91315295Y-117641904D01*
X91315295Y-117641904D02*
X91458152Y-117641904D01*
X91458152Y-117641904D02*
X91553390Y-117689523D01*
X91553390Y-117689523D02*
X91601009Y-117737142D01*
X91601009Y-117737142D02*
X91648628Y-117832380D01*
X91648628Y-117832380D02*
X91648628Y-118213332D01*
X91124819Y-117308570D02*
X91124819Y-116689523D01*
X91124819Y-116689523D02*
X91505771Y-117022856D01*
X91505771Y-117022856D02*
X91505771Y-116879999D01*
X91505771Y-116879999D02*
X91553390Y-116784761D01*
X91553390Y-116784761D02*
X91601009Y-116737142D01*
X91601009Y-116737142D02*
X91696247Y-116689523D01*
X91696247Y-116689523D02*
X91934342Y-116689523D01*
X91934342Y-116689523D02*
X92029580Y-116737142D01*
X92029580Y-116737142D02*
X92077200Y-116784761D01*
X92077200Y-116784761D02*
X92124819Y-116879999D01*
X92124819Y-116879999D02*
X92124819Y-117165713D01*
X92124819Y-117165713D02*
X92077200Y-117260951D01*
X92077200Y-117260951D02*
X92029580Y-117308570D01*
X91220057Y-116308570D02*
X91172438Y-116260951D01*
X91172438Y-116260951D02*
X91124819Y-116165713D01*
X91124819Y-116165713D02*
X91124819Y-115927618D01*
X91124819Y-115927618D02*
X91172438Y-115832380D01*
X91172438Y-115832380D02*
X91220057Y-115784761D01*
X91220057Y-115784761D02*
X91315295Y-115737142D01*
X91315295Y-115737142D02*
X91410533Y-115737142D01*
X91410533Y-115737142D02*
X91553390Y-115784761D01*
X91553390Y-115784761D02*
X92124819Y-116356189D01*
X92124819Y-116356189D02*
X92124819Y-115737142D01*
X115879580Y-131092857D02*
X115927200Y-131140476D01*
X115927200Y-131140476D02*
X115974819Y-131283333D01*
X115974819Y-131283333D02*
X115974819Y-131378571D01*
X115974819Y-131378571D02*
X115927200Y-131521428D01*
X115927200Y-131521428D02*
X115831961Y-131616666D01*
X115831961Y-131616666D02*
X115736723Y-131664285D01*
X115736723Y-131664285D02*
X115546247Y-131711904D01*
X115546247Y-131711904D02*
X115403390Y-131711904D01*
X115403390Y-131711904D02*
X115212914Y-131664285D01*
X115212914Y-131664285D02*
X115117676Y-131616666D01*
X115117676Y-131616666D02*
X115022438Y-131521428D01*
X115022438Y-131521428D02*
X114974819Y-131378571D01*
X114974819Y-131378571D02*
X114974819Y-131283333D01*
X114974819Y-131283333D02*
X115022438Y-131140476D01*
X115022438Y-131140476D02*
X115070057Y-131092857D01*
X114974819Y-130759523D02*
X114974819Y-130140476D01*
X114974819Y-130140476D02*
X115355771Y-130473809D01*
X115355771Y-130473809D02*
X115355771Y-130330952D01*
X115355771Y-130330952D02*
X115403390Y-130235714D01*
X115403390Y-130235714D02*
X115451009Y-130188095D01*
X115451009Y-130188095D02*
X115546247Y-130140476D01*
X115546247Y-130140476D02*
X115784342Y-130140476D01*
X115784342Y-130140476D02*
X115879580Y-130188095D01*
X115879580Y-130188095D02*
X115927200Y-130235714D01*
X115927200Y-130235714D02*
X115974819Y-130330952D01*
X115974819Y-130330952D02*
X115974819Y-130616666D01*
X115974819Y-130616666D02*
X115927200Y-130711904D01*
X115927200Y-130711904D02*
X115879580Y-130759523D01*
X114974819Y-129521428D02*
X114974819Y-129426190D01*
X114974819Y-129426190D02*
X115022438Y-129330952D01*
X115022438Y-129330952D02*
X115070057Y-129283333D01*
X115070057Y-129283333D02*
X115165295Y-129235714D01*
X115165295Y-129235714D02*
X115355771Y-129188095D01*
X115355771Y-129188095D02*
X115593866Y-129188095D01*
X115593866Y-129188095D02*
X115784342Y-129235714D01*
X115784342Y-129235714D02*
X115879580Y-129283333D01*
X115879580Y-129283333D02*
X115927200Y-129330952D01*
X115927200Y-129330952D02*
X115974819Y-129426190D01*
X115974819Y-129426190D02*
X115974819Y-129521428D01*
X115974819Y-129521428D02*
X115927200Y-129616666D01*
X115927200Y-129616666D02*
X115879580Y-129664285D01*
X115879580Y-129664285D02*
X115784342Y-129711904D01*
X115784342Y-129711904D02*
X115593866Y-129759523D01*
X115593866Y-129759523D02*
X115355771Y-129759523D01*
X115355771Y-129759523D02*
X115165295Y-129711904D01*
X115165295Y-129711904D02*
X115070057Y-129664285D01*
X115070057Y-129664285D02*
X115022438Y-129616666D01*
X115022438Y-129616666D02*
X114974819Y-129521428D01*
X96717142Y-106639580D02*
X96669523Y-106687200D01*
X96669523Y-106687200D02*
X96526666Y-106734819D01*
X96526666Y-106734819D02*
X96431428Y-106734819D01*
X96431428Y-106734819D02*
X96288571Y-106687200D01*
X96288571Y-106687200D02*
X96193333Y-106591961D01*
X96193333Y-106591961D02*
X96145714Y-106496723D01*
X96145714Y-106496723D02*
X96098095Y-106306247D01*
X96098095Y-106306247D02*
X96098095Y-106163390D01*
X96098095Y-106163390D02*
X96145714Y-105972914D01*
X96145714Y-105972914D02*
X96193333Y-105877676D01*
X96193333Y-105877676D02*
X96288571Y-105782438D01*
X96288571Y-105782438D02*
X96431428Y-105734819D01*
X96431428Y-105734819D02*
X96526666Y-105734819D01*
X96526666Y-105734819D02*
X96669523Y-105782438D01*
X96669523Y-105782438D02*
X96717142Y-105830057D01*
X97574285Y-106068152D02*
X97574285Y-106734819D01*
X97336190Y-105687200D02*
X97098095Y-106401485D01*
X97098095Y-106401485D02*
X97717142Y-106401485D01*
X98526666Y-106068152D02*
X98526666Y-106734819D01*
X98288571Y-105687200D02*
X98050476Y-106401485D01*
X98050476Y-106401485D02*
X98669523Y-106401485D01*
X125001819Y-71255094D02*
X124001819Y-71255094D01*
X124001819Y-71255094D02*
X124001819Y-71016999D01*
X124001819Y-71016999D02*
X124049438Y-70874142D01*
X124049438Y-70874142D02*
X124144676Y-70778904D01*
X124144676Y-70778904D02*
X124239914Y-70731285D01*
X124239914Y-70731285D02*
X124430390Y-70683666D01*
X124430390Y-70683666D02*
X124573247Y-70683666D01*
X124573247Y-70683666D02*
X124763723Y-70731285D01*
X124763723Y-70731285D02*
X124858961Y-70778904D01*
X124858961Y-70778904D02*
X124954200Y-70874142D01*
X124954200Y-70874142D02*
X125001819Y-71016999D01*
X125001819Y-71016999D02*
X125001819Y-71255094D01*
X124097057Y-70302713D02*
X124049438Y-70255094D01*
X124049438Y-70255094D02*
X124001819Y-70159856D01*
X124001819Y-70159856D02*
X124001819Y-69921761D01*
X124001819Y-69921761D02*
X124049438Y-69826523D01*
X124049438Y-69826523D02*
X124097057Y-69778904D01*
X124097057Y-69778904D02*
X124192295Y-69731285D01*
X124192295Y-69731285D02*
X124287533Y-69731285D01*
X124287533Y-69731285D02*
X124430390Y-69778904D01*
X124430390Y-69778904D02*
X125001819Y-70350332D01*
X125001819Y-70350332D02*
X125001819Y-69731285D01*
X107389580Y-131092857D02*
X107437200Y-131140476D01*
X107437200Y-131140476D02*
X107484819Y-131283333D01*
X107484819Y-131283333D02*
X107484819Y-131378571D01*
X107484819Y-131378571D02*
X107437200Y-131521428D01*
X107437200Y-131521428D02*
X107341961Y-131616666D01*
X107341961Y-131616666D02*
X107246723Y-131664285D01*
X107246723Y-131664285D02*
X107056247Y-131711904D01*
X107056247Y-131711904D02*
X106913390Y-131711904D01*
X106913390Y-131711904D02*
X106722914Y-131664285D01*
X106722914Y-131664285D02*
X106627676Y-131616666D01*
X106627676Y-131616666D02*
X106532438Y-131521428D01*
X106532438Y-131521428D02*
X106484819Y-131378571D01*
X106484819Y-131378571D02*
X106484819Y-131283333D01*
X106484819Y-131283333D02*
X106532438Y-131140476D01*
X106532438Y-131140476D02*
X106580057Y-131092857D01*
X106484819Y-130759523D02*
X106484819Y-130140476D01*
X106484819Y-130140476D02*
X106865771Y-130473809D01*
X106865771Y-130473809D02*
X106865771Y-130330952D01*
X106865771Y-130330952D02*
X106913390Y-130235714D01*
X106913390Y-130235714D02*
X106961009Y-130188095D01*
X106961009Y-130188095D02*
X107056247Y-130140476D01*
X107056247Y-130140476D02*
X107294342Y-130140476D01*
X107294342Y-130140476D02*
X107389580Y-130188095D01*
X107389580Y-130188095D02*
X107437200Y-130235714D01*
X107437200Y-130235714D02*
X107484819Y-130330952D01*
X107484819Y-130330952D02*
X107484819Y-130616666D01*
X107484819Y-130616666D02*
X107437200Y-130711904D01*
X107437200Y-130711904D02*
X107389580Y-130759523D01*
X107484819Y-129188095D02*
X107484819Y-129759523D01*
X107484819Y-129473809D02*
X106484819Y-129473809D01*
X106484819Y-129473809D02*
X106627676Y-129569047D01*
X106627676Y-129569047D02*
X106722914Y-129664285D01*
X106722914Y-129664285D02*
X106770533Y-129759523D01*
D11*
X129347000Y-79121000D02*
G75*
G02*
X127447000Y-79121000I-950000J0D01*
G01*
X127447000Y-79121000D02*
G75*
G02*
X129347000Y-79121000I950000J0D01*
G01*
X121653641Y-103330000D02*
X121346359Y-103330000D01*
X121653641Y-104090000D02*
X121346359Y-104090000D01*
X107098000Y-142544748D02*
X107098000Y-143967252D01*
X109818000Y-142544748D02*
X109818000Y-143967252D01*
X115810000Y-134280000D02*
G75*
G02*
X113910000Y-134280000I-950000J0D01*
G01*
X113910000Y-134280000D02*
G75*
G02*
X115810000Y-134280000I950000J0D01*
G01*
X101197836Y-102794000D02*
X100982164Y-102794000D01*
X101197836Y-103514000D02*
X100982164Y-103514000D01*
X123810000Y-121970000D02*
G75*
G02*
X121910000Y-121970000I-950000J0D01*
G01*
X121910000Y-121970000D02*
G75*
G02*
X123810000Y-121970000I950000J0D01*
G01*
X121770000Y-119010000D02*
G75*
G02*
X119870000Y-119010000I-950000J0D01*
G01*
X119870000Y-119010000D02*
G75*
G02*
X121770000Y-119010000I950000J0D01*
G01*
X100295438Y-122437836D02*
X100295438Y-122222164D01*
X101015438Y-122437836D02*
X101015438Y-122222164D01*
X107712400Y-104732164D02*
X107712400Y-104947836D01*
X108432400Y-104732164D02*
X108432400Y-104947836D01*
X94140000Y-124206359D02*
X94140000Y-124513641D01*
X94900000Y-124206359D02*
X94900000Y-124513641D01*
X98788836Y-107664000D02*
X98573164Y-107664000D01*
X98788836Y-108384000D02*
X98573164Y-108384000D01*
X101750000Y-104732164D02*
X101750000Y-104947836D01*
X102470000Y-104732164D02*
X102470000Y-104947836D01*
X102530000Y-128910000D02*
X100730000Y-128910000D01*
X102530000Y-128910000D02*
X103330000Y-128910000D01*
X102530000Y-132030000D02*
X101730000Y-132030000D01*
X102530000Y-132030000D02*
X103330000Y-132030000D01*
X111940000Y-96640000D02*
G75*
G02*
X110040000Y-96640000I-950000J0D01*
G01*
X110040000Y-96640000D02*
G75*
G02*
X111940000Y-96640000I950000J0D01*
G01*
X102094000Y-140268000D02*
G75*
G02*
X100194000Y-140268000I-950000J0D01*
G01*
X100194000Y-140268000D02*
G75*
G02*
X102094000Y-140268000I950000J0D01*
G01*
X97230000Y-123890000D02*
G75*
G02*
X95330000Y-123890000I-950000J0D01*
G01*
X95330000Y-123890000D02*
G75*
G02*
X97230000Y-123890000I950000J0D01*
G01*
X98784000Y-140298000D02*
G75*
G02*
X96884000Y-140298000I-950000J0D01*
G01*
X96884000Y-140298000D02*
G75*
G02*
X98784000Y-140298000I950000J0D01*
G01*
X88030000Y-118492000D02*
G75*
G02*
X86130000Y-118492000I-950000J0D01*
G01*
X86130000Y-118492000D02*
G75*
G02*
X88030000Y-118492000I950000J0D01*
G01*
X104455000Y-93853000D02*
G75*
G02*
X102555000Y-93853000I-950000J0D01*
G01*
X102555000Y-93853000D02*
G75*
G02*
X104455000Y-93853000I950000J0D01*
G01*
X129220000Y-88011000D02*
G75*
G02*
X127320000Y-88011000I-950000J0D01*
G01*
X127320000Y-88011000D02*
G75*
G02*
X129220000Y-88011000I950000J0D01*
G01*
X99165438Y-122447836D02*
X99165438Y-122232164D01*
X99885438Y-122447836D02*
X99885438Y-122232164D01*
X111780000Y-122417836D02*
X111780000Y-122202164D01*
X112500000Y-122417836D02*
X112500000Y-122202164D01*
X113480000Y-126820000D02*
X115980000Y-126820000D01*
X115980000Y-123620000D01*
X113480000Y-123620000D01*
X113480000Y-126820000D01*
D12*
X116896590Y-126980000D02*
G75*
G02*
X116583410Y-126980000I-156590J0D01*
G01*
X116583410Y-126980000D02*
G75*
G02*
X116896590Y-126980000I156590J0D01*
G01*
D11*
X102312164Y-132480000D02*
X102527836Y-132480000D01*
X102312164Y-133200000D02*
X102527836Y-133200000D01*
X108265000Y-93853000D02*
G75*
G02*
X106365000Y-93853000I-950000J0D01*
G01*
X106365000Y-93853000D02*
G75*
G02*
X108265000Y-93853000I950000J0D01*
G01*
X114897836Y-127650000D02*
X114682164Y-127650000D01*
X114897836Y-128370000D02*
X114682164Y-128370000D01*
X111940000Y-99610000D02*
G75*
G02*
X110040000Y-99610000I-950000J0D01*
G01*
X110040000Y-99610000D02*
G75*
G02*
X111940000Y-99610000I950000J0D01*
G01*
X123363641Y-118600000D02*
X123056359Y-118600000D01*
X123363641Y-119360000D02*
X123056359Y-119360000D01*
X92600000Y-123880000D02*
G75*
G02*
X90700000Y-123880000I-950000J0D01*
G01*
X90700000Y-123880000D02*
G75*
G02*
X92600000Y-123880000I950000J0D01*
G01*
X104760000Y-104138748D02*
X104760000Y-105561252D01*
X106580000Y-104138748D02*
X106580000Y-105561252D01*
X120500000Y-108280000D02*
G75*
G02*
X118600000Y-108280000I-950000J0D01*
G01*
X118600000Y-108280000D02*
G75*
G02*
X120500000Y-108280000I950000J0D01*
G01*
X119470000Y-122760000D02*
G75*
G02*
X117570000Y-122760000I-950000J0D01*
G01*
X117570000Y-122760000D02*
G75*
G02*
X119470000Y-122760000I950000J0D01*
G01*
X105794000Y-140791641D02*
X105794000Y-140484359D01*
X106554000Y-140791641D02*
X106554000Y-140484359D01*
D10*
X92395000Y-128490000D02*
X95395000Y-128490000D01*
X92395000Y-131490000D02*
X92395000Y-128490000D01*
X95395000Y-128490000D02*
X95395000Y-131490000D01*
X95395000Y-131490000D02*
X92395000Y-131490000D01*
D13*
X95402082Y-126985835D02*
G75*
G02*
X95147918Y-126985835I-127082J0D01*
G01*
X95147918Y-126985835D02*
G75*
G02*
X95402082Y-126985835I127082J0D01*
G01*
D11*
X88030000Y-112616000D02*
G75*
G02*
X86130000Y-112616000I-950000J0D01*
G01*
X86130000Y-112616000D02*
G75*
G02*
X88030000Y-112616000I950000J0D01*
G01*
X110981000Y-128669000D02*
X109181000Y-128669000D01*
X110981000Y-128669000D02*
X111781000Y-128669000D01*
X110981000Y-131789000D02*
X110181000Y-131789000D01*
X110981000Y-131789000D02*
X111781000Y-131789000D01*
X122570000Y-101012164D02*
X122570000Y-101227836D01*
X123290000Y-101012164D02*
X123290000Y-101227836D01*
X102880000Y-104732164D02*
X102880000Y-104947836D01*
X103600000Y-104732164D02*
X103600000Y-104947836D01*
X120000000Y-113106359D02*
X120000000Y-113413641D01*
X120760000Y-113106359D02*
X120760000Y-113413641D01*
X123810000Y-113980000D02*
G75*
G02*
X121910000Y-113980000I-950000J0D01*
G01*
X121910000Y-113980000D02*
G75*
G02*
X123810000Y-113980000I950000J0D01*
G01*
X90810000Y-120480000D02*
G75*
G02*
X88910000Y-120480000I-950000J0D01*
G01*
X88910000Y-120480000D02*
G75*
G02*
X90810000Y-120480000I950000J0D01*
G01*
X104374000Y-140510164D02*
X104374000Y-140725836D01*
X105094000Y-140510164D02*
X105094000Y-140725836D01*
X97717836Y-109565000D02*
X97502164Y-109565000D01*
X97717836Y-110285000D02*
X97502164Y-110285000D01*
X114037836Y-109500000D02*
X113822164Y-109500000D01*
X114037836Y-110220000D02*
X113822164Y-110220000D01*
X118290000Y-97395000D02*
X116090000Y-97395000D01*
X118290000Y-97395000D02*
X120490000Y-97395000D01*
X118290000Y-102865000D02*
X116090000Y-102865000D01*
X118290000Y-102865000D02*
X120490000Y-102865000D01*
X114430000Y-97855000D02*
X114100000Y-98095000D01*
X114100000Y-97615000D01*
X114430000Y-97855000D01*
G36*
X114430000Y-97855000D02*
G01*
X114100000Y-98095000D01*
X114100000Y-97615000D01*
X114430000Y-97855000D01*
G37*
X93916359Y-135330000D02*
X94223641Y-135330000D01*
X93916359Y-136090000D02*
X94223641Y-136090000D01*
X111637836Y-105906000D02*
X111422164Y-105906000D01*
X111637836Y-106626000D02*
X111422164Y-106626000D01*
X93000000Y-124513641D02*
X93000000Y-124206359D01*
X93760000Y-124513641D02*
X93760000Y-124206359D01*
X110853164Y-132379000D02*
X111068836Y-132379000D01*
X110853164Y-133099000D02*
X111068836Y-133099000D01*
X123897836Y-102750000D02*
X123682164Y-102750000D01*
X123897836Y-103470000D02*
X123682164Y-103470000D01*
X110640000Y-122417836D02*
X110640000Y-122202164D01*
X111360000Y-122417836D02*
X111360000Y-122202164D01*
X108830000Y-104732164D02*
X108830000Y-104947836D01*
X109550000Y-104732164D02*
X109550000Y-104947836D01*
X123363641Y-115840000D02*
X123056359Y-115840000D01*
X123363641Y-116600000D02*
X123056359Y-116600000D01*
X110322836Y-102786000D02*
X110107164Y-102786000D01*
X110322836Y-103506000D02*
X110107164Y-103506000D01*
X107310000Y-134230000D02*
G75*
G02*
X105410000Y-134230000I-950000J0D01*
G01*
X105410000Y-134230000D02*
G75*
G02*
X107310000Y-134230000I950000J0D01*
G01*
X121850000Y-116060000D02*
G75*
G02*
X119950000Y-116060000I-950000J0D01*
G01*
X119950000Y-116060000D02*
G75*
G02*
X121850000Y-116060000I950000J0D01*
G01*
X90840000Y-114520000D02*
G75*
G02*
X88940000Y-114520000I-950000J0D01*
G01*
X88940000Y-114520000D02*
G75*
G02*
X90840000Y-114520000I950000J0D01*
G01*
X94067836Y-125580000D02*
X93852164Y-125580000D01*
X94067836Y-126300000D02*
X93852164Y-126300000D01*
X112937836Y-107666000D02*
X112722164Y-107666000D01*
X112937836Y-108386000D02*
X112722164Y-108386000D01*
D14*
X115525187Y-139859315D02*
X115589670Y-139860975D01*
X115636303Y-139863945D01*
X115656651Y-139867088D01*
X115686417Y-139875065D01*
X115686417Y-140795530D01*
X115476881Y-140788259D01*
X115267047Y-140788523D01*
X115072859Y-140805382D01*
X114888420Y-140840075D01*
X114707832Y-140893839D01*
X114525197Y-140967911D01*
X114449489Y-141003879D01*
X114268938Y-141102977D01*
X114106298Y-141214326D01*
X113953901Y-141343408D01*
X113894622Y-141400705D01*
X113737985Y-141575861D01*
X113602473Y-141766520D01*
X113488766Y-141971394D01*
X113397544Y-142189193D01*
X113329485Y-142418629D01*
X113309326Y-142511197D01*
X113297177Y-142595244D01*
X113289066Y-142698234D01*
X113284985Y-142812965D01*
X113284926Y-142932234D01*
X113288884Y-143048837D01*
X113296851Y-143155571D01*
X113308819Y-143245233D01*
X113310057Y-143252031D01*
X113365911Y-143480759D01*
X113445299Y-143698965D01*
X113546931Y-143905177D01*
X113669522Y-144097928D01*
X113811781Y-144275748D01*
X113972421Y-144437168D01*
X114150155Y-144580719D01*
X114343693Y-144704931D01*
X114551748Y-144808336D01*
X114735237Y-144877535D01*
X114838377Y-144909118D01*
X114933107Y-144933129D01*
X115025870Y-144950463D01*
X115123106Y-144962016D01*
X115231258Y-144968680D01*
X115356767Y-144971352D01*
X115411911Y-144971504D01*
X115686417Y-144971186D01*
X115686417Y-145888164D01*
X115656651Y-145896141D01*
X115631251Y-145899138D01*
X115584256Y-145901203D01*
X115520510Y-145902382D01*
X115444858Y-145902723D01*
X115362146Y-145902274D01*
X115277217Y-145901083D01*
X115194917Y-145899197D01*
X115120091Y-145896663D01*
X115057583Y-145893531D01*
X115012238Y-145889847D01*
X115011729Y-145889789D01*
X114898729Y-145873341D01*
X114771128Y-145848706D01*
X114638662Y-145818083D01*
X114511066Y-145783667D01*
X114429984Y-145758536D01*
X114165447Y-145657498D01*
X113914723Y-145534513D01*
X113678805Y-145390777D01*
X113458680Y-145227487D01*
X113255340Y-145045838D01*
X113069773Y-144847026D01*
X112902970Y-144632247D01*
X112755921Y-144402698D01*
X112629615Y-144159573D01*
X112525042Y-143904070D01*
X112443192Y-143637383D01*
X112385055Y-143360709D01*
X112371838Y-143271875D01*
X112363382Y-143187107D01*
X112357563Y-143083118D01*
X112354382Y-142967009D01*
X112353839Y-142845887D01*
X112355934Y-142726854D01*
X112360666Y-142617014D01*
X112368037Y-142523472D01*
X112371838Y-142491354D01*
X112422759Y-142208706D01*
X112498205Y-141935614D01*
X112597919Y-141672714D01*
X112721646Y-141420637D01*
X112869128Y-141180017D01*
X112947952Y-141069218D01*
X113126230Y-140851723D01*
X113322233Y-140653344D01*
X113534598Y-140474882D01*
X113761959Y-140317133D01*
X114002953Y-140180897D01*
X114256213Y-140066971D01*
X114520377Y-139976153D01*
X114794079Y-139909241D01*
X114984880Y-139877813D01*
X115037354Y-139872490D01*
X115106218Y-139867930D01*
X115186581Y-139864212D01*
X115273550Y-139861413D01*
X115362236Y-139859612D01*
X115447745Y-139858887D01*
X115525187Y-139859315D01*
G36*
X115525187Y-139859315D02*
G01*
X115589670Y-139860975D01*
X115636303Y-139863945D01*
X115656651Y-139867088D01*
X115686417Y-139875065D01*
X115686417Y-140795530D01*
X115476881Y-140788259D01*
X115267047Y-140788523D01*
X115072859Y-140805382D01*
X114888420Y-140840075D01*
X114707832Y-140893839D01*
X114525197Y-140967911D01*
X114449489Y-141003879D01*
X114268938Y-141102977D01*
X114106298Y-141214326D01*
X113953901Y-141343408D01*
X113894622Y-141400705D01*
X113737985Y-141575861D01*
X113602473Y-141766520D01*
X113488766Y-141971394D01*
X113397544Y-142189193D01*
X113329485Y-142418629D01*
X113309326Y-142511197D01*
X113297177Y-142595244D01*
X113289066Y-142698234D01*
X113284985Y-142812965D01*
X113284926Y-142932234D01*
X113288884Y-143048837D01*
X113296851Y-143155571D01*
X113308819Y-143245233D01*
X113310057Y-143252031D01*
X113365911Y-143480759D01*
X113445299Y-143698965D01*
X113546931Y-143905177D01*
X113669522Y-144097928D01*
X113811781Y-144275748D01*
X113972421Y-144437168D01*
X114150155Y-144580719D01*
X114343693Y-144704931D01*
X114551748Y-144808336D01*
X114735237Y-144877535D01*
X114838377Y-144909118D01*
X114933107Y-144933129D01*
X115025870Y-144950463D01*
X115123106Y-144962016D01*
X115231258Y-144968680D01*
X115356767Y-144971352D01*
X115411911Y-144971504D01*
X115686417Y-144971186D01*
X115686417Y-145888164D01*
X115656651Y-145896141D01*
X115631251Y-145899138D01*
X115584256Y-145901203D01*
X115520510Y-145902382D01*
X115444858Y-145902723D01*
X115362146Y-145902274D01*
X115277217Y-145901083D01*
X115194917Y-145899197D01*
X115120091Y-145896663D01*
X115057583Y-145893531D01*
X115012238Y-145889847D01*
X115011729Y-145889789D01*
X114898729Y-145873341D01*
X114771128Y-145848706D01*
X114638662Y-145818083D01*
X114511066Y-145783667D01*
X114429984Y-145758536D01*
X114165447Y-145657498D01*
X113914723Y-145534513D01*
X113678805Y-145390777D01*
X113458680Y-145227487D01*
X113255340Y-145045838D01*
X113069773Y-144847026D01*
X112902970Y-144632247D01*
X112755921Y-144402698D01*
X112629615Y-144159573D01*
X112525042Y-143904070D01*
X112443192Y-143637383D01*
X112385055Y-143360709D01*
X112371838Y-143271875D01*
X112363382Y-143187107D01*
X112357563Y-143083118D01*
X112354382Y-142967009D01*
X112353839Y-142845887D01*
X112355934Y-142726854D01*
X112360666Y-142617014D01*
X112368037Y-142523472D01*
X112371838Y-142491354D01*
X112422759Y-142208706D01*
X112498205Y-141935614D01*
X112597919Y-141672714D01*
X112721646Y-141420637D01*
X112869128Y-141180017D01*
X112947952Y-141069218D01*
X113126230Y-140851723D01*
X113322233Y-140653344D01*
X113534598Y-140474882D01*
X113761959Y-140317133D01*
X114002953Y-140180897D01*
X114256213Y-140066971D01*
X114520377Y-139976153D01*
X114794079Y-139909241D01*
X114984880Y-139877813D01*
X115037354Y-139872490D01*
X115106218Y-139867930D01*
X115186581Y-139864212D01*
X115273550Y-139861413D01*
X115362236Y-139859612D01*
X115447745Y-139858887D01*
X115525187Y-139859315D01*
G37*
X120819335Y-140791406D02*
X120524985Y-140791695D01*
X120423010Y-140792120D01*
X120342355Y-140793408D01*
X120277888Y-140795914D01*
X120224476Y-140799996D01*
X120176988Y-140806008D01*
X120130289Y-140814308D01*
X120096389Y-140821436D01*
X119866549Y-140884754D01*
X119647232Y-140971012D01*
X119440201Y-141079009D01*
X119247220Y-141207544D01*
X119070049Y-141355418D01*
X118910453Y-141521430D01*
X118770193Y-141704379D01*
X118745554Y-141741449D01*
X118693756Y-141828402D01*
X118640855Y-141929820D01*
X118589836Y-142038866D01*
X118543682Y-142148702D01*
X118505375Y-142252488D01*
X118477898Y-142343388D01*
X118471804Y-142368984D01*
X118462439Y-142411979D01*
X120224021Y-142411979D01*
X120224021Y-143351250D01*
X118462439Y-143351250D01*
X118471804Y-143394244D01*
X118496864Y-143485611D01*
X118534352Y-143591469D01*
X118581185Y-143704878D01*
X118634282Y-143818892D01*
X118690560Y-143926569D01*
X118746936Y-144020967D01*
X118756392Y-144035319D01*
X118900134Y-144226791D01*
X119061333Y-144398630D01*
X119238990Y-144550163D01*
X119432109Y-144680719D01*
X119639691Y-144789624D01*
X119860738Y-144876206D01*
X120094255Y-144939794D01*
X120099956Y-144941021D01*
X120152538Y-144951622D01*
X120200958Y-144959513D01*
X120250609Y-144965078D01*
X120306881Y-144968702D01*
X120375168Y-144970769D01*
X120460859Y-144971664D01*
X120531599Y-144971799D01*
X120819333Y-144971776D01*
X120819333Y-145904479D01*
X120531599Y-145902762D01*
X120439624Y-145901709D01*
X120349891Y-145899766D01*
X120268158Y-145897126D01*
X120200179Y-145893981D01*
X120151711Y-145890526D01*
X120144646Y-145889789D01*
X119919237Y-145853594D01*
X119687386Y-145796376D01*
X119455425Y-145720284D01*
X119229685Y-145627465D01*
X119016499Y-145520068D01*
X118960697Y-145488135D01*
X118797156Y-145382667D01*
X118631214Y-145258545D01*
X118469427Y-145121431D01*
X118318350Y-144976982D01*
X118184540Y-144830859D01*
X118147993Y-144786607D01*
X117986673Y-144565012D01*
X117845348Y-144327378D01*
X117725025Y-144076089D01*
X117626711Y-143813532D01*
X117551412Y-143542092D01*
X117500135Y-143264155D01*
X117497590Y-143245416D01*
X117490641Y-143173751D01*
X117485708Y-143083046D01*
X117482792Y-142979923D01*
X117481895Y-142871009D01*
X117483019Y-142762925D01*
X117486166Y-142662298D01*
X117491338Y-142575752D01*
X117497383Y-142517812D01*
X117549339Y-142232894D01*
X117624569Y-141957354D01*
X117722391Y-141692809D01*
X117842121Y-141440877D01*
X117983076Y-141203177D01*
X118144573Y-140981325D01*
X118147993Y-140977079D01*
X118328280Y-140774121D01*
X118527422Y-140587656D01*
X118742973Y-140419214D01*
X118972485Y-140270325D01*
X119213509Y-140142517D01*
X119463600Y-140037322D01*
X119720309Y-139956267D01*
X119820619Y-139931769D01*
X119944530Y-139905938D01*
X120059700Y-139886592D01*
X120173520Y-139872981D01*
X120293385Y-139864356D01*
X120426687Y-139859968D01*
X120538213Y-139859008D01*
X120819333Y-139858750D01*
X120819335Y-140791406D01*
G36*
X120819335Y-140791406D02*
G01*
X120524985Y-140791695D01*
X120423010Y-140792120D01*
X120342355Y-140793408D01*
X120277888Y-140795914D01*
X120224476Y-140799996D01*
X120176988Y-140806008D01*
X120130289Y-140814308D01*
X120096389Y-140821436D01*
X119866549Y-140884754D01*
X119647232Y-140971012D01*
X119440201Y-141079009D01*
X119247220Y-141207544D01*
X119070049Y-141355418D01*
X118910453Y-141521430D01*
X118770193Y-141704379D01*
X118745554Y-141741449D01*
X118693756Y-141828402D01*
X118640855Y-141929820D01*
X118589836Y-142038866D01*
X118543682Y-142148702D01*
X118505375Y-142252488D01*
X118477898Y-142343388D01*
X118471804Y-142368984D01*
X118462439Y-142411979D01*
X120224021Y-142411979D01*
X120224021Y-143351250D01*
X118462439Y-143351250D01*
X118471804Y-143394244D01*
X118496864Y-143485611D01*
X118534352Y-143591469D01*
X118581185Y-143704878D01*
X118634282Y-143818892D01*
X118690560Y-143926569D01*
X118746936Y-144020967D01*
X118756392Y-144035319D01*
X118900134Y-144226791D01*
X119061333Y-144398630D01*
X119238990Y-144550163D01*
X119432109Y-144680719D01*
X119639691Y-144789624D01*
X119860738Y-144876206D01*
X120094255Y-144939794D01*
X120099956Y-144941021D01*
X120152538Y-144951622D01*
X120200958Y-144959513D01*
X120250609Y-144965078D01*
X120306881Y-144968702D01*
X120375168Y-144970769D01*
X120460859Y-144971664D01*
X120531599Y-144971799D01*
X120819333Y-144971776D01*
X120819333Y-145904479D01*
X120531599Y-145902762D01*
X120439624Y-145901709D01*
X120349891Y-145899766D01*
X120268158Y-145897126D01*
X120200179Y-145893981D01*
X120151711Y-145890526D01*
X120144646Y-145889789D01*
X119919237Y-145853594D01*
X119687386Y-145796376D01*
X119455425Y-145720284D01*
X119229685Y-145627465D01*
X119016499Y-145520068D01*
X118960697Y-145488135D01*
X118797156Y-145382667D01*
X118631214Y-145258545D01*
X118469427Y-145121431D01*
X118318350Y-144976982D01*
X118184540Y-144830859D01*
X118147993Y-144786607D01*
X117986673Y-144565012D01*
X117845348Y-144327378D01*
X117725025Y-144076089D01*
X117626711Y-143813532D01*
X117551412Y-143542092D01*
X117500135Y-143264155D01*
X117497590Y-143245416D01*
X117490641Y-143173751D01*
X117485708Y-143083046D01*
X117482792Y-142979923D01*
X117481895Y-142871009D01*
X117483019Y-142762925D01*
X117486166Y-142662298D01*
X117491338Y-142575752D01*
X117497383Y-142517812D01*
X117549339Y-142232894D01*
X117624569Y-141957354D01*
X117722391Y-141692809D01*
X117842121Y-141440877D01*
X117983076Y-141203177D01*
X118144573Y-140981325D01*
X118147993Y-140977079D01*
X118328280Y-140774121D01*
X118527422Y-140587656D01*
X118742973Y-140419214D01*
X118972485Y-140270325D01*
X119213509Y-140142517D01*
X119463600Y-140037322D01*
X119720309Y-139956267D01*
X119820619Y-139931769D01*
X119944530Y-139905938D01*
X120059700Y-139886592D01*
X120173520Y-139872981D01*
X120293385Y-139864356D01*
X120426687Y-139859968D01*
X120538213Y-139859008D01*
X120819333Y-139858750D01*
X120819335Y-140791406D01*
G37*
D11*
X105201836Y-137168000D02*
X104986164Y-137168000D01*
X105201836Y-137888000D02*
X104986164Y-137888000D01*
X88030000Y-115554000D02*
G75*
G02*
X86130000Y-115554000I-950000J0D01*
G01*
X86130000Y-115554000D02*
G75*
G02*
X88030000Y-115554000I950000J0D01*
G01*
D14*
X127590528Y-143109619D02*
X127601908Y-143128693D01*
X127627488Y-143172421D01*
X127666002Y-143238619D01*
X127716186Y-143325102D01*
X127776775Y-143429685D01*
X127846503Y-143550183D01*
X127924107Y-143684412D01*
X128008320Y-143830187D01*
X128097879Y-143985323D01*
X128189998Y-144145000D01*
X128284076Y-144308117D01*
X128374402Y-144464709D01*
X128459665Y-144612506D01*
X128538557Y-144749240D01*
X128609769Y-144872642D01*
X128671991Y-144980444D01*
X128723913Y-145070377D01*
X128764228Y-145140173D01*
X128791624Y-145187564D01*
X128804507Y-145209786D01*
X128825507Y-145247330D01*
X128836925Y-145270831D01*
X128837551Y-145274920D01*
X128823636Y-145267242D01*
X128784941Y-145245203D01*
X128723487Y-145209971D01*
X128641298Y-145162711D01*
X128540396Y-145104589D01*
X128422805Y-145036771D01*
X128290546Y-144960424D01*
X128145642Y-144876714D01*
X127990117Y-144786806D01*
X127825992Y-144691867D01*
X127763549Y-144655732D01*
X127596487Y-144559083D01*
X127437074Y-144466938D01*
X127287355Y-144380475D01*
X127149376Y-144300871D01*
X127025185Y-144229305D01*
X126916827Y-144166955D01*
X126826348Y-144114998D01*
X126755796Y-144074613D01*
X126707215Y-144046978D01*
X126682654Y-144033272D01*
X126680085Y-144031974D01*
X126687569Y-144020220D01*
X126713614Y-143988795D01*
X126755559Y-143940594D01*
X126810746Y-143878510D01*
X126876517Y-143805439D01*
X126950212Y-143724276D01*
X127029173Y-143637916D01*
X127110740Y-143549253D01*
X127192254Y-143461182D01*
X127271057Y-143376599D01*
X127344490Y-143298397D01*
X127409893Y-143229472D01*
X127464608Y-143172719D01*
X127505977Y-143131032D01*
X127520164Y-143117363D01*
X127567180Y-143073201D01*
X127590528Y-143109619D01*
G36*
X127590528Y-143109619D02*
G01*
X127601908Y-143128693D01*
X127627488Y-143172421D01*
X127666002Y-143238619D01*
X127716186Y-143325102D01*
X127776775Y-143429685D01*
X127846503Y-143550183D01*
X127924107Y-143684412D01*
X128008320Y-143830187D01*
X128097879Y-143985323D01*
X128189998Y-144145000D01*
X128284076Y-144308117D01*
X128374402Y-144464709D01*
X128459665Y-144612506D01*
X128538557Y-144749240D01*
X128609769Y-144872642D01*
X128671991Y-144980444D01*
X128723913Y-145070377D01*
X128764228Y-145140173D01*
X128791624Y-145187564D01*
X128804507Y-145209786D01*
X128825507Y-145247330D01*
X128836925Y-145270831D01*
X128837551Y-145274920D01*
X128823636Y-145267242D01*
X128784941Y-145245203D01*
X128723487Y-145209971D01*
X128641298Y-145162711D01*
X128540396Y-145104589D01*
X128422805Y-145036771D01*
X128290546Y-144960424D01*
X128145642Y-144876714D01*
X127990117Y-144786806D01*
X127825992Y-144691867D01*
X127763549Y-144655732D01*
X127596487Y-144559083D01*
X127437074Y-144466938D01*
X127287355Y-144380475D01*
X127149376Y-144300871D01*
X127025185Y-144229305D01*
X126916827Y-144166955D01*
X126826348Y-144114998D01*
X126755796Y-144074613D01*
X126707215Y-144046978D01*
X126682654Y-144033272D01*
X126680085Y-144031974D01*
X126687569Y-144020220D01*
X126713614Y-143988795D01*
X126755559Y-143940594D01*
X126810746Y-143878510D01*
X126876517Y-143805439D01*
X126950212Y-143724276D01*
X127029173Y-143637916D01*
X127110740Y-143549253D01*
X127192254Y-143461182D01*
X127271057Y-143376599D01*
X127344490Y-143298397D01*
X127409893Y-143229472D01*
X127464608Y-143172719D01*
X127505977Y-143131032D01*
X127520164Y-143117363D01*
X127567180Y-143073201D01*
X127590528Y-143109619D01*
G37*
X125767043Y-139960835D02*
X125790065Y-139998245D01*
X125825534Y-140057514D01*
X125871996Y-140136118D01*
X125927996Y-140231538D01*
X125992081Y-140341250D01*
X126062796Y-140462734D01*
X126138687Y-140593468D01*
X126218299Y-140730930D01*
X126300178Y-140872598D01*
X126382870Y-141015951D01*
X126464921Y-141158467D01*
X126544876Y-141297624D01*
X126621281Y-141430901D01*
X126692682Y-141555776D01*
X126757624Y-141669727D01*
X126814653Y-141770233D01*
X126862315Y-141854772D01*
X126899155Y-141920822D01*
X126923720Y-141965862D01*
X126934554Y-141987370D01*
X126934951Y-141988714D01*
X126921501Y-142006965D01*
X126884114Y-142034882D01*
X126827235Y-142069725D01*
X126755312Y-142108754D01*
X126680015Y-142145843D01*
X126577560Y-142190817D01*
X126469817Y-142231226D01*
X126353073Y-142267969D01*
X126223618Y-142301942D01*
X126077740Y-142334044D01*
X125911726Y-142365173D01*
X125721866Y-142396227D01*
X125525469Y-142425145D01*
X125354834Y-142450800D01*
X125211545Y-142476198D01*
X125092008Y-142502602D01*
X124992630Y-142531273D01*
X124909818Y-142563473D01*
X124839978Y-142600465D01*
X124779518Y-142643512D01*
X124724845Y-142693875D01*
X124707214Y-142712583D01*
X124669000Y-142756139D01*
X124640732Y-142791682D01*
X124627618Y-142812583D01*
X124627268Y-142814297D01*
X124622680Y-142824806D01*
X124606758Y-142824924D01*
X124576266Y-142813254D01*
X124527968Y-142788396D01*
X124458627Y-142748952D01*
X124410439Y-142720587D01*
X124338583Y-142676247D01*
X124282742Y-142638279D01*
X124246667Y-142609416D01*
X124234113Y-142592388D01*
X124234121Y-142592264D01*
X124241906Y-142576037D01*
X124263892Y-142535400D01*
X124298803Y-142472567D01*
X124345363Y-142389752D01*
X124402295Y-142289172D01*
X124468323Y-142173040D01*
X124542172Y-142043571D01*
X124622564Y-141902980D01*
X124708224Y-141753482D01*
X124797876Y-141597292D01*
X124890243Y-141436624D01*
X124984049Y-141273693D01*
X125078018Y-141110713D01*
X125170874Y-140949900D01*
X125261340Y-140793468D01*
X125348141Y-140643633D01*
X125430000Y-140502608D01*
X125505641Y-140372609D01*
X125573787Y-140255849D01*
X125633163Y-140154545D01*
X125682493Y-140070911D01*
X125720500Y-140007162D01*
X125745907Y-139965511D01*
X125757440Y-139948175D01*
X125757923Y-139947805D01*
X125767043Y-139960835D01*
G36*
X125767043Y-139960835D02*
G01*
X125790065Y-139998245D01*
X125825534Y-140057514D01*
X125871996Y-140136118D01*
X125927996Y-140231538D01*
X125992081Y-140341250D01*
X126062796Y-140462734D01*
X126138687Y-140593468D01*
X126218299Y-140730930D01*
X126300178Y-140872598D01*
X126382870Y-141015951D01*
X126464921Y-141158467D01*
X126544876Y-141297624D01*
X126621281Y-141430901D01*
X126692682Y-141555776D01*
X126757624Y-141669727D01*
X126814653Y-141770233D01*
X126862315Y-141854772D01*
X126899155Y-141920822D01*
X126923720Y-141965862D01*
X126934554Y-141987370D01*
X126934951Y-141988714D01*
X126921501Y-142006965D01*
X126884114Y-142034882D01*
X126827235Y-142069725D01*
X126755312Y-142108754D01*
X126680015Y-142145843D01*
X126577560Y-142190817D01*
X126469817Y-142231226D01*
X126353073Y-142267969D01*
X126223618Y-142301942D01*
X126077740Y-142334044D01*
X125911726Y-142365173D01*
X125721866Y-142396227D01*
X125525469Y-142425145D01*
X125354834Y-142450800D01*
X125211545Y-142476198D01*
X125092008Y-142502602D01*
X124992630Y-142531273D01*
X124909818Y-142563473D01*
X124839978Y-142600465D01*
X124779518Y-142643512D01*
X124724845Y-142693875D01*
X124707214Y-142712583D01*
X124669000Y-142756139D01*
X124640732Y-142791682D01*
X124627618Y-142812583D01*
X124627268Y-142814297D01*
X124622680Y-142824806D01*
X124606758Y-142824924D01*
X124576266Y-142813254D01*
X124527968Y-142788396D01*
X124458627Y-142748952D01*
X124410439Y-142720587D01*
X124338583Y-142676247D01*
X124282742Y-142638279D01*
X124246667Y-142609416D01*
X124234113Y-142592388D01*
X124234121Y-142592264D01*
X124241906Y-142576037D01*
X124263892Y-142535400D01*
X124298803Y-142472567D01*
X124345363Y-142389752D01*
X124402295Y-142289172D01*
X124468323Y-142173040D01*
X124542172Y-142043571D01*
X124622564Y-141902980D01*
X124708224Y-141753482D01*
X124797876Y-141597292D01*
X124890243Y-141436624D01*
X124984049Y-141273693D01*
X125078018Y-141110713D01*
X125170874Y-140949900D01*
X125261340Y-140793468D01*
X125348141Y-140643633D01*
X125430000Y-140502608D01*
X125505641Y-140372609D01*
X125573787Y-140255849D01*
X125633163Y-140154545D01*
X125682493Y-140070911D01*
X125720500Y-140007162D01*
X125745907Y-139965511D01*
X125757440Y-139948175D01*
X125757923Y-139947805D01*
X125767043Y-139960835D01*
G37*
X123925094Y-143166158D02*
X123957619Y-143178736D01*
X124007193Y-143203712D01*
X124078374Y-143242876D01*
X124083916Y-143245988D01*
X124149474Y-143283476D01*
X124204798Y-143316319D01*
X124244455Y-143341205D01*
X124263012Y-143354820D01*
X124263531Y-143355487D01*
X124259048Y-143374390D01*
X124238486Y-143416605D01*
X124203183Y-143479832D01*
X124154480Y-143561772D01*
X124093718Y-143660122D01*
X124022236Y-143772585D01*
X124004445Y-143800165D01*
X123958093Y-143876699D01*
X123924342Y-143942556D01*
X123906153Y-143991782D01*
X123904286Y-144001507D01*
X123905115Y-144044312D01*
X123914394Y-144112209D01*
X123930968Y-144200843D01*
X123953680Y-144305859D01*
X123981373Y-144422902D01*
X124012890Y-144547616D01*
X124047075Y-144675645D01*
X124082771Y-144802634D01*
X124118821Y-144924228D01*
X124154068Y-145036072D01*
X124187356Y-145133810D01*
X124217528Y-145213087D01*
X124238561Y-145260122D01*
X124263337Y-145310225D01*
X124286730Y-145358168D01*
X124287997Y-145360793D01*
X124326699Y-145409220D01*
X124383184Y-145441828D01*
X124448939Y-145457454D01*
X124515451Y-145454937D01*
X124574205Y-145433114D01*
X124607258Y-145404382D01*
X124654859Y-145325583D01*
X124689739Y-145227378D01*
X124708877Y-145119779D01*
X124711588Y-145058780D01*
X124700670Y-144944935D01*
X124668624Y-144850660D01*
X124613726Y-144771379D01*
X124596607Y-144753733D01*
X124545661Y-144704235D01*
X124542163Y-144354362D01*
X124538664Y-144004489D01*
X124627818Y-143869531D01*
X124669654Y-143808445D01*
X124709945Y-143753493D01*
X124742943Y-143712336D01*
X124757126Y-143697192D01*
X124797281Y-143659810D01*
X124851665Y-143689098D01*
X124886039Y-143710084D01*
X124904846Y-143726378D01*
X124906049Y-143729307D01*
X124918903Y-143741728D01*
X124940896Y-143750977D01*
X124962150Y-143759313D01*
X124994694Y-143775149D01*
X125041322Y-143800033D01*
X125104829Y-143835509D01*
X125188008Y-143883123D01*
X125293653Y-143944422D01*
X125351062Y-143977932D01*
X125418594Y-144018071D01*
X125462885Y-144046659D01*
X125487855Y-144067039D01*
X125497423Y-144082553D01*
X125495508Y-144096546D01*
X125493911Y-144099796D01*
X125478376Y-144120266D01*
X125445136Y-144158665D01*
X125398062Y-144210696D01*
X125341028Y-144272066D01*
X125291700Y-144324090D01*
X125178030Y-144447567D01*
X125089105Y-144554591D01*
X125024134Y-144646240D01*
X124982321Y-144723588D01*
X124968217Y-144762866D01*
X124962392Y-144797249D01*
X124956375Y-144855899D01*
X124950696Y-144932117D01*
X124945884Y-145019202D01*
X124943619Y-145074268D01*
X124940459Y-145169464D01*
X124939069Y-145239062D01*
X124939858Y-145288409D01*
X124943235Y-145322854D01*
X124949608Y-145347743D01*
X124959387Y-145368425D01*
X124967067Y-145381053D01*
X125011421Y-145429726D01*
X125068574Y-145463645D01*
X125128708Y-145478438D01*
X125173773Y-145473086D01*
X125214576Y-145449930D01*
X125265724Y-145408462D01*
X125320042Y-145355912D01*
X125370357Y-145299516D01*
X125409494Y-145246505D01*
X125423905Y-145220889D01*
X125445491Y-145185814D01*
X125484753Y-145132389D01*
X125538102Y-145064789D01*
X125601952Y-144987190D01*
X125672715Y-144903768D01*
X125746804Y-144818698D01*
X125820632Y-144736155D01*
X125890611Y-144660316D01*
X125953155Y-144595356D01*
X126002260Y-144547669D01*
X126056779Y-144500032D01*
X126102642Y-144464908D01*
X126134811Y-144445949D01*
X126145489Y-144443864D01*
X126161853Y-144452274D01*
X126202671Y-144474846D01*
X126265586Y-144510224D01*
X126348244Y-144557054D01*
X126448289Y-144613981D01*
X126563366Y-144679649D01*
X126691119Y-144752703D01*
X126829194Y-144831788D01*
X126975234Y-144915548D01*
X127126884Y-145002629D01*
X127281790Y-145091676D01*
X127437595Y-145181332D01*
X127591944Y-145270243D01*
X127742482Y-145357054D01*
X127886854Y-145440409D01*
X128022704Y-145518954D01*
X128147677Y-145591333D01*
X128259417Y-145656190D01*
X128355570Y-145712171D01*
X128433779Y-145757920D01*
X128491689Y-145792083D01*
X128526946Y-145813304D01*
X128537165Y-145819963D01*
X128523402Y-145821280D01*
X128480104Y-145822559D01*
X128408714Y-145823796D01*
X128310673Y-145824983D01*
X128187422Y-145826115D01*
X128040403Y-145827186D01*
X127871057Y-145828189D01*
X127680826Y-145829119D01*
X127471151Y-145829968D01*
X127243473Y-145830732D01*
X126999235Y-145831403D01*
X126739877Y-145831976D01*
X126466841Y-145832444D01*
X126181568Y-145832802D01*
X125885500Y-145833042D01*
X125580079Y-145833159D01*
X125451924Y-145833171D01*
X122351970Y-145833171D01*
X122573053Y-145449847D01*
X122619856Y-145368680D01*
X122680102Y-145264166D01*
X122751778Y-145139801D01*
X122832869Y-144999082D01*
X122921362Y-144845503D01*
X123015240Y-144682562D01*
X123112491Y-144513754D01*
X123211100Y-144342575D01*
X123309053Y-144172521D01*
X123333825Y-144129512D01*
X123424152Y-143972857D01*
X123510289Y-143823803D01*
X123590942Y-143684568D01*
X123664816Y-143557371D01*
X123730617Y-143444432D01*
X123787050Y-143347968D01*
X123832821Y-143270200D01*
X123866635Y-143213346D01*
X123887198Y-143179625D01*
X123892953Y-143171040D01*
X123905058Y-143164189D01*
X123925094Y-143166158D01*
G36*
X123925094Y-143166158D02*
G01*
X123957619Y-143178736D01*
X124007193Y-143203712D01*
X124078374Y-143242876D01*
X124083916Y-143245988D01*
X124149474Y-143283476D01*
X124204798Y-143316319D01*
X124244455Y-143341205D01*
X124263012Y-143354820D01*
X124263531Y-143355487D01*
X124259048Y-143374390D01*
X124238486Y-143416605D01*
X124203183Y-143479832D01*
X124154480Y-143561772D01*
X124093718Y-143660122D01*
X124022236Y-143772585D01*
X124004445Y-143800165D01*
X123958093Y-143876699D01*
X123924342Y-143942556D01*
X123906153Y-143991782D01*
X123904286Y-144001507D01*
X123905115Y-144044312D01*
X123914394Y-144112209D01*
X123930968Y-144200843D01*
X123953680Y-144305859D01*
X123981373Y-144422902D01*
X124012890Y-144547616D01*
X124047075Y-144675645D01*
X124082771Y-144802634D01*
X124118821Y-144924228D01*
X124154068Y-145036072D01*
X124187356Y-145133810D01*
X124217528Y-145213087D01*
X124238561Y-145260122D01*
X124263337Y-145310225D01*
X124286730Y-145358168D01*
X124287997Y-145360793D01*
X124326699Y-145409220D01*
X124383184Y-145441828D01*
X124448939Y-145457454D01*
X124515451Y-145454937D01*
X124574205Y-145433114D01*
X124607258Y-145404382D01*
X124654859Y-145325583D01*
X124689739Y-145227378D01*
X124708877Y-145119779D01*
X124711588Y-145058780D01*
X124700670Y-144944935D01*
X124668624Y-144850660D01*
X124613726Y-144771379D01*
X124596607Y-144753733D01*
X124545661Y-144704235D01*
X124542163Y-144354362D01*
X124538664Y-144004489D01*
X124627818Y-143869531D01*
X124669654Y-143808445D01*
X124709945Y-143753493D01*
X124742943Y-143712336D01*
X124757126Y-143697192D01*
X124797281Y-143659810D01*
X124851665Y-143689098D01*
X124886039Y-143710084D01*
X124904846Y-143726378D01*
X124906049Y-143729307D01*
X124918903Y-143741728D01*
X124940896Y-143750977D01*
X124962150Y-143759313D01*
X124994694Y-143775149D01*
X125041322Y-143800033D01*
X125104829Y-143835509D01*
X125188008Y-143883123D01*
X125293653Y-143944422D01*
X125351062Y-143977932D01*
X125418594Y-144018071D01*
X125462885Y-144046659D01*
X125487855Y-144067039D01*
X125497423Y-144082553D01*
X125495508Y-144096546D01*
X125493911Y-144099796D01*
X125478376Y-144120266D01*
X125445136Y-144158665D01*
X125398062Y-144210696D01*
X125341028Y-144272066D01*
X125291700Y-144324090D01*
X125178030Y-144447567D01*
X125089105Y-144554591D01*
X125024134Y-144646240D01*
X124982321Y-144723588D01*
X124968217Y-144762866D01*
X124962392Y-144797249D01*
X124956375Y-144855899D01*
X124950696Y-144932117D01*
X124945884Y-145019202D01*
X124943619Y-145074268D01*
X124940459Y-145169464D01*
X124939069Y-145239062D01*
X124939858Y-145288409D01*
X124943235Y-145322854D01*
X124949608Y-145347743D01*
X124959387Y-145368425D01*
X124967067Y-145381053D01*
X125011421Y-145429726D01*
X125068574Y-145463645D01*
X125128708Y-145478438D01*
X125173773Y-145473086D01*
X125214576Y-145449930D01*
X125265724Y-145408462D01*
X125320042Y-145355912D01*
X125370357Y-145299516D01*
X125409494Y-145246505D01*
X125423905Y-145220889D01*
X125445491Y-145185814D01*
X125484753Y-145132389D01*
X125538102Y-145064789D01*
X125601952Y-144987190D01*
X125672715Y-144903768D01*
X125746804Y-144818698D01*
X125820632Y-144736155D01*
X125890611Y-144660316D01*
X125953155Y-144595356D01*
X126002260Y-144547669D01*
X126056779Y-144500032D01*
X126102642Y-144464908D01*
X126134811Y-144445949D01*
X126145489Y-144443864D01*
X126161853Y-144452274D01*
X126202671Y-144474846D01*
X126265586Y-144510224D01*
X126348244Y-144557054D01*
X126448289Y-144613981D01*
X126563366Y-144679649D01*
X126691119Y-144752703D01*
X126829194Y-144831788D01*
X126975234Y-144915548D01*
X127126884Y-145002629D01*
X127281790Y-145091676D01*
X127437595Y-145181332D01*
X127591944Y-145270243D01*
X127742482Y-145357054D01*
X127886854Y-145440409D01*
X128022704Y-145518954D01*
X128147677Y-145591333D01*
X128259417Y-145656190D01*
X128355570Y-145712171D01*
X128433779Y-145757920D01*
X128491689Y-145792083D01*
X128526946Y-145813304D01*
X128537165Y-145819963D01*
X128523402Y-145821280D01*
X128480104Y-145822559D01*
X128408714Y-145823796D01*
X128310673Y-145824983D01*
X128187422Y-145826115D01*
X128040403Y-145827186D01*
X127871057Y-145828189D01*
X127680826Y-145829119D01*
X127471151Y-145829968D01*
X127243473Y-145830732D01*
X126999235Y-145831403D01*
X126739877Y-145831976D01*
X126466841Y-145832444D01*
X126181568Y-145832802D01*
X125885500Y-145833042D01*
X125580079Y-145833159D01*
X125451924Y-145833171D01*
X122351970Y-145833171D01*
X122573053Y-145449847D01*
X122619856Y-145368680D01*
X122680102Y-145264166D01*
X122751778Y-145139801D01*
X122832869Y-144999082D01*
X122921362Y-144845503D01*
X123015240Y-144682562D01*
X123112491Y-144513754D01*
X123211100Y-144342575D01*
X123309053Y-144172521D01*
X123333825Y-144129512D01*
X123424152Y-143972857D01*
X123510289Y-143823803D01*
X123590942Y-143684568D01*
X123664816Y-143557371D01*
X123730617Y-143444432D01*
X123787050Y-143347968D01*
X123832821Y-143270200D01*
X123866635Y-143213346D01*
X123887198Y-143179625D01*
X123892953Y-143171040D01*
X123905058Y-143164189D01*
X123925094Y-143166158D01*
G37*
D11*
X90840000Y-117310000D02*
G75*
G02*
X88940000Y-117310000I-950000J0D01*
G01*
X88940000Y-117310000D02*
G75*
G02*
X90840000Y-117310000I950000J0D01*
G01*
X113880000Y-129912164D02*
X113880000Y-130127836D01*
X114600000Y-129912164D02*
X114600000Y-130127836D01*
X100068836Y-105924000D02*
X99853164Y-105924000D01*
X100068836Y-106644000D02*
X99853164Y-106644000D01*
X120397000Y-67007000D02*
X120397000Y-72517000D01*
X123697000Y-67007000D02*
X120397000Y-67007000D01*
X123697000Y-67007000D02*
X123697000Y-72517000D01*
X105390000Y-130362164D02*
X105390000Y-130577836D01*
X106110000Y-130362164D02*
X106110000Y-130577836D01*
%LPC*%
D15*
X128397000Y-79121000D03*
D16*
X122010000Y-103710000D03*
X120990000Y-103710000D03*
D17*
X108458000Y-141781000D03*
X108458000Y-144731000D03*
D15*
X114860000Y-134280000D03*
D18*
X125270000Y-50310000D03*
X132260000Y-139060000D03*
X78850000Y-139070000D03*
D19*
X101570000Y-103154000D03*
X100610000Y-103154000D03*
D15*
X122860000Y-121970000D03*
X120820000Y-119010000D03*
D20*
X100655438Y-122810000D03*
X100655438Y-121850000D03*
D21*
X108072400Y-104360000D03*
X108072400Y-105320000D03*
D22*
X94520000Y-123850000D03*
X94520000Y-124870000D03*
D19*
X99161000Y-108024000D03*
X98201000Y-108024000D03*
D23*
X84764000Y-95943000D03*
D21*
X102110000Y-104360000D03*
X102110000Y-105320000D03*
D24*
X101392500Y-129520000D03*
X101392500Y-130470000D03*
X101392500Y-131420000D03*
X103667500Y-131420000D03*
X103667500Y-129520000D03*
D15*
X110990000Y-96640000D03*
X101144000Y-140268000D03*
X96280000Y-123890000D03*
X97834000Y-140298000D03*
X87080000Y-118492000D03*
X103505000Y-93853000D03*
D23*
X126130000Y-137350000D03*
D15*
X128270000Y-88011000D03*
D20*
X99525438Y-122820000D03*
X99525438Y-121860000D03*
X112140000Y-122790000D03*
X112140000Y-121830000D03*
D25*
X115680000Y-126370000D03*
X115680000Y-124070000D03*
X113780000Y-124070000D03*
X113780000Y-126370000D03*
D26*
X101940000Y-132840000D03*
X102900000Y-132840000D03*
D27*
X130250000Y-51120990D03*
X130909010Y-49530000D03*
X130909010Y-52711980D03*
X132500000Y-48870990D03*
D28*
X132500000Y-51120990D03*
D27*
X132500000Y-53370990D03*
X134090990Y-49530000D03*
X134090990Y-52711980D03*
X134750000Y-51120990D03*
D15*
X107315000Y-93853000D03*
D19*
X115270000Y-128010000D03*
X114310000Y-128010000D03*
D18*
X78750000Y-55900000D03*
D15*
X110990000Y-99610000D03*
D16*
X123720000Y-118980000D03*
X122700000Y-118980000D03*
D15*
X91650000Y-123880000D03*
D29*
X105670000Y-103375000D03*
X105670000Y-106325000D03*
D15*
X119550000Y-108280000D03*
X118520000Y-122760000D03*
D30*
X106174000Y-141148000D03*
X106174000Y-140128000D03*
D31*
X94870000Y-127840000D03*
X94220000Y-127840000D03*
X93570000Y-127840000D03*
X92920000Y-127840000D03*
X92920000Y-132140000D03*
X93570000Y-132140000D03*
X94220000Y-132140000D03*
X94870000Y-132140000D03*
D15*
X87080000Y-112616000D03*
D24*
X109843500Y-129279000D03*
X109843500Y-130229000D03*
X109843500Y-131179000D03*
X112118500Y-131179000D03*
X112118500Y-129279000D03*
D27*
X130250000Y-143728000D03*
X130909010Y-142137010D03*
X130909010Y-145318990D03*
X132500000Y-141478000D03*
D28*
X132500000Y-143728000D03*
D27*
X132500000Y-145978000D03*
X134090990Y-142137010D03*
X134090990Y-145318990D03*
X134750000Y-143728000D03*
D21*
X122930000Y-100640000D03*
X122930000Y-101600000D03*
X103240000Y-104360000D03*
X103240000Y-105320000D03*
D22*
X120380000Y-112750000D03*
X120380000Y-113770000D03*
D15*
X122860000Y-113980000D03*
X89860000Y-120480000D03*
D27*
X76250000Y-143855000D03*
X76909010Y-142264010D03*
X76909010Y-145445990D03*
X78500000Y-141605000D03*
D28*
X78500000Y-143855000D03*
D27*
X78500000Y-146105000D03*
X80090990Y-142264010D03*
X80090990Y-145445990D03*
X80750000Y-143855000D03*
D21*
X104734000Y-140138000D03*
X104734000Y-141098000D03*
D32*
X84710000Y-137360000D03*
D19*
X98090000Y-109925000D03*
X97130000Y-109925000D03*
X114410000Y-109860000D03*
X113450000Y-109860000D03*
D33*
X115427500Y-97855000D03*
X115427500Y-98505000D03*
X115427500Y-99155000D03*
X115427500Y-99805000D03*
X115427500Y-100455000D03*
X115427500Y-101105000D03*
X115427500Y-101755000D03*
X115427500Y-102405000D03*
X121152500Y-102405000D03*
X121152500Y-101755000D03*
X121152500Y-101105000D03*
X121152500Y-100455000D03*
X121152500Y-99805000D03*
X121152500Y-99155000D03*
X121152500Y-98505000D03*
X121152500Y-97855000D03*
D34*
X93560000Y-135710000D03*
X94580000Y-135710000D03*
D19*
X112010000Y-106266000D03*
X111050000Y-106266000D03*
D30*
X93380000Y-124870000D03*
X93380000Y-123850000D03*
D26*
X110481000Y-132739000D03*
X111441000Y-132739000D03*
D19*
X124270000Y-103110000D03*
X123310000Y-103110000D03*
D20*
X111000000Y-122790000D03*
X111000000Y-121830000D03*
D27*
X76250000Y-51054000D03*
X76909010Y-49463010D03*
X76909010Y-52644990D03*
X78500000Y-48804000D03*
D28*
X78500000Y-51054000D03*
D27*
X78500000Y-53304000D03*
X80090990Y-49463010D03*
X80090990Y-52644990D03*
X80750000Y-51054000D03*
D21*
X109190000Y-104360000D03*
X109190000Y-105320000D03*
D16*
X123720000Y-116220000D03*
X122700000Y-116220000D03*
D19*
X110695000Y-103146000D03*
X109735000Y-103146000D03*
D15*
X106360000Y-134230000D03*
D32*
X126060000Y-95869000D03*
D15*
X120900000Y-116060000D03*
X89890000Y-114520000D03*
D19*
X94440000Y-125940000D03*
X93480000Y-125940000D03*
X113310000Y-108026000D03*
X112350000Y-108026000D03*
X105574000Y-137528000D03*
X104614000Y-137528000D03*
D15*
X87080000Y-115554000D03*
X89890000Y-117310000D03*
D21*
X114240000Y-129540000D03*
X114240000Y-130500000D03*
D19*
X100441000Y-106284000D03*
X99481000Y-106284000D03*
D35*
X122047000Y-68517000D03*
X122047000Y-72517000D03*
D21*
X105750000Y-129990000D03*
X105750000Y-130950000D03*
D36*
X101462400Y-145400852D03*
D37*
X96382400Y-143240851D03*
X98922400Y-143240851D03*
X101462400Y-143240851D03*
X104002400Y-143240851D03*
D38*
X84250000Y-71942000D03*
X86790000Y-71942000D03*
X89330000Y-71942000D03*
X91870000Y-71942000D03*
X94410000Y-71942000D03*
X96950000Y-71942000D03*
X99490000Y-71942000D03*
X102030000Y-71942000D03*
X104570000Y-71942000D03*
X107110000Y-71942000D03*
X109650000Y-71942000D03*
X112190000Y-71942000D03*
X112190000Y-49022000D03*
X109650000Y-49022000D03*
X107110000Y-49022000D03*
X104570000Y-49022000D03*
X102030000Y-49022000D03*
X99490000Y-49022000D03*
X96950000Y-49022000D03*
X94410000Y-49022000D03*
X91870000Y-49022000D03*
X89330000Y-49022000D03*
X86790000Y-49022000D03*
X84250000Y-49022000D03*
D39*
X130810000Y-83439000D03*
D40*
X126310000Y-83439000D03*
D41*
X109090000Y-82697000D03*
X110490000Y-82697000D03*
X111890000Y-82697000D03*
X108090000Y-81417000D03*
X109090000Y-81417000D03*
X110490000Y-81417000D03*
X111890000Y-81417000D03*
X112890000Y-81417000D03*
X109090000Y-80137000D03*
X110490000Y-80137000D03*
X111890000Y-80137000D03*
%LPD*%
M02*
