G04 #@! TF.GenerationSoftware,KiCad,Pcbnew,8.0.4*
G04 #@! TF.CreationDate,2025-01-19T11:33:19+01:00*
G04 #@! TF.ProjectId,nerdaxe-gamma,6e657264-6178-4652-9d67-616d6d612e6b,rev?*
G04 #@! TF.SameCoordinates,Original*
G04 #@! TF.FileFunction,Paste,Top*
G04 #@! TF.FilePolarity,Positive*
%FSLAX46Y46*%
G04 Gerber Fmt 4.6, Leading zero omitted, Abs format (unit mm)*
G04 Created by KiCad (PCBNEW 8.0.4) date 2025-01-19 11:33:19*
%MOMM*%
%LPD*%
G01*
G04 APERTURE LIST*
G04 Aperture macros list*
%AMRoundRect*
0 Rectangle with rounded corners*
0 $1 Rounding radius*
0 $2 $3 $4 $5 $6 $7 $8 $9 X,Y pos of 4 corners*
0 Add a 4 corners polygon primitive as box body*
4,1,4,$2,$3,$4,$5,$6,$7,$8,$9,$2,$3,0*
0 Add four circle primitives for the rounded corners*
1,1,$1+$1,$2,$3*
1,1,$1+$1,$4,$5*
1,1,$1+$1,$6,$7*
1,1,$1+$1,$8,$9*
0 Add four rect primitives between the rounded corners*
20,1,$1+$1,$2,$3,$4,$5,0*
20,1,$1+$1,$4,$5,$6,$7,0*
20,1,$1+$1,$6,$7,$8,$9,0*
20,1,$1+$1,$8,$9,$2,$3,0*%
G04 Aperture macros list end*
%ADD10RoundRect,0.135000X0.135000X0.185000X-0.135000X0.185000X-0.135000X-0.185000X0.135000X-0.185000X0*%
%ADD11RoundRect,0.250000X-1.100000X0.325000X-1.100000X-0.325000X1.100000X-0.325000X1.100000X0.325000X0*%
%ADD12RoundRect,0.140000X0.140000X0.170000X-0.140000X0.170000X-0.140000X-0.170000X0.140000X-0.170000X0*%
%ADD13RoundRect,0.140000X0.170000X-0.140000X0.170000X0.140000X-0.170000X0.140000X-0.170000X-0.140000X0*%
%ADD14RoundRect,0.140000X-0.170000X0.140000X-0.170000X-0.140000X0.170000X-0.140000X0.170000X0.140000X0*%
%ADD15RoundRect,0.135000X-0.185000X0.135000X-0.185000X-0.135000X0.185000X-0.135000X0.185000X0.135000X0*%
%ADD16RoundRect,0.150000X-0.512500X-0.150000X0.512500X-0.150000X0.512500X0.150000X-0.512500X0.150000X0*%
%ADD17R,1.100000X1.300000*%
%ADD18RoundRect,0.140000X-0.140000X-0.170000X0.140000X-0.170000X0.140000X0.170000X-0.140000X0.170000X0*%
%ADD19RoundRect,0.250000X-0.650000X0.325000X-0.650000X-0.325000X0.650000X-0.325000X0.650000X0.325000X0*%
%ADD20RoundRect,0.135000X0.185000X-0.135000X0.185000X0.135000X-0.185000X0.135000X-0.185000X-0.135000X0*%
%ADD21R,0.400000X1.100000*%
%ADD22RoundRect,0.100000X-0.637500X-0.100000X0.637500X-0.100000X0.637500X0.100000X-0.637500X0.100000X0*%
%ADD23RoundRect,0.135000X-0.135000X-0.185000X0.135000X-0.185000X0.135000X0.185000X-0.135000X0.185000X0*%
%ADD24RoundRect,0.250000X-0.650000X1.000000X-0.650000X-1.000000X0.650000X-1.000000X0.650000X1.000000X0*%
G04 APERTURE END LIST*
D10*
X122010000Y-103710000D03*
X120990000Y-103710000D03*
D11*
X108458000Y-141781000D03*
X108458000Y-144731000D03*
D12*
X101570000Y-103154000D03*
X100610000Y-103154000D03*
D13*
X100655438Y-122810000D03*
X100655438Y-121850000D03*
D14*
X108072400Y-104360000D03*
X108072400Y-105320000D03*
D15*
X94520000Y-123850000D03*
X94520000Y-124870000D03*
D12*
X99161000Y-108024000D03*
X98201000Y-108024000D03*
D14*
X102110000Y-104360000D03*
X102110000Y-105320000D03*
D16*
X101392500Y-129520000D03*
X101392500Y-130470000D03*
X101392500Y-131420000D03*
X103667500Y-131420000D03*
X103667500Y-129520000D03*
D13*
X99525438Y-122820000D03*
X99525438Y-121860000D03*
X112140000Y-122790000D03*
X112140000Y-121830000D03*
D17*
X115680000Y-126370000D03*
X115680000Y-124070000D03*
X113780000Y-124070000D03*
X113780000Y-126370000D03*
D18*
X101940000Y-132840000D03*
X102900000Y-132840000D03*
D12*
X115270000Y-128010000D03*
X114310000Y-128010000D03*
D10*
X123720000Y-118980000D03*
X122700000Y-118980000D03*
D19*
X105670000Y-103375000D03*
X105670000Y-106325000D03*
D20*
X106174000Y-141148000D03*
X106174000Y-140128000D03*
D21*
X94870000Y-127840000D03*
X94220000Y-127840000D03*
X93570000Y-127840000D03*
X92920000Y-127840000D03*
X92920000Y-132140000D03*
X93570000Y-132140000D03*
X94220000Y-132140000D03*
X94870000Y-132140000D03*
D16*
X109843500Y-129279000D03*
X109843500Y-130229000D03*
X109843500Y-131179000D03*
X112118500Y-131179000D03*
X112118500Y-129279000D03*
D14*
X122930000Y-100640000D03*
X122930000Y-101600000D03*
X103240000Y-104360000D03*
X103240000Y-105320000D03*
D15*
X120380000Y-112750000D03*
X120380000Y-113770000D03*
D14*
X104734000Y-140138000D03*
X104734000Y-141098000D03*
D12*
X98090000Y-109925000D03*
X97130000Y-109925000D03*
X114410000Y-109860000D03*
X113450000Y-109860000D03*
D22*
X115427500Y-97855000D03*
X115427500Y-98505000D03*
X115427500Y-99155000D03*
X115427500Y-99805000D03*
X115427500Y-100455000D03*
X115427500Y-101105000D03*
X115427500Y-101755000D03*
X115427500Y-102405000D03*
X121152500Y-102405000D03*
X121152500Y-101755000D03*
X121152500Y-101105000D03*
X121152500Y-100455000D03*
X121152500Y-99805000D03*
X121152500Y-99155000D03*
X121152500Y-98505000D03*
X121152500Y-97855000D03*
D23*
X93560000Y-135710000D03*
X94580000Y-135710000D03*
D12*
X112010000Y-106266000D03*
X111050000Y-106266000D03*
D20*
X93380000Y-124870000D03*
X93380000Y-123850000D03*
D18*
X110481000Y-132739000D03*
X111441000Y-132739000D03*
D12*
X124270000Y-103110000D03*
X123310000Y-103110000D03*
D13*
X111000000Y-122790000D03*
X111000000Y-121830000D03*
D14*
X109190000Y-104360000D03*
X109190000Y-105320000D03*
D10*
X123720000Y-116220000D03*
X122700000Y-116220000D03*
D12*
X110695000Y-103146000D03*
X109735000Y-103146000D03*
X94440000Y-125940000D03*
X93480000Y-125940000D03*
X113310000Y-108026000D03*
X112350000Y-108026000D03*
X105574000Y-137528000D03*
X104614000Y-137528000D03*
D14*
X114240000Y-129540000D03*
X114240000Y-130500000D03*
D12*
X100441000Y-106284000D03*
X99481000Y-106284000D03*
D24*
X122047000Y-68517000D03*
X122047000Y-72517000D03*
D14*
X105750000Y-129990000D03*
X105750000Y-130950000D03*
M02*
