G04 #@! TF.GenerationSoftware,KiCad,Pcbnew,8.0.4*
G04 #@! TF.CreationDate,2024-12-28T01:26:10+01:00*
G04 #@! TF.ProjectId,nerdaxe-gamma,6e657264-6178-4652-9d67-616d6d612e6b,rev?*
G04 #@! TF.SameCoordinates,Original*
G04 #@! TF.FileFunction,Soldermask,Bot*
G04 #@! TF.FilePolarity,Negative*
%FSLAX46Y46*%
G04 Gerber Fmt 4.6, Leading zero omitted, Abs format (unit mm)*
G04 Created by KiCad (PCBNEW 8.0.4) date 2024-12-28 01:26:10*
%MOMM*%
%LPD*%
G01*
G04 APERTURE LIST*
G04 Aperture macros list*
%AMRoundRect*
0 Rectangle with rounded corners*
0 $1 Rounding radius*
0 $2 $3 $4 $5 $6 $7 $8 $9 X,Y pos of 4 corners*
0 Add a 4 corners polygon primitive as box body*
4,1,4,$2,$3,$4,$5,$6,$7,$8,$9,$2,$3,0*
0 Add four circle primitives for the rounded corners*
1,1,$1+$1,$2,$3*
1,1,$1+$1,$4,$5*
1,1,$1+$1,$6,$7*
1,1,$1+$1,$8,$9*
0 Add four rect primitives between the rounded corners*
20,1,$1+$1,$2,$3,$4,$5,0*
20,1,$1+$1,$4,$5,$6,$7,0*
20,1,$1+$1,$6,$7,$8,$9,0*
20,1,$1+$1,$8,$9,$2,$3,0*%
G04 Aperture macros list end*
%ADD10C,0.120000*%
%ADD11C,3.000000*%
%ADD12C,0.800000*%
%ADD13C,6.000000*%
%ADD14C,3.500000*%
%ADD15RoundRect,0.250000X0.325000X0.650000X-0.325000X0.650000X-0.325000X-0.650000X0.325000X-0.650000X0*%
%ADD16RoundRect,0.250000X0.475000X-0.250000X0.475000X0.250000X-0.475000X0.250000X-0.475000X-0.250000X0*%
%ADD17C,1.295400*%
%ADD18C,1.574800*%
%ADD19RoundRect,0.140000X0.140000X0.170000X-0.140000X0.170000X-0.140000X-0.170000X0.140000X-0.170000X0*%
%ADD20C,1.700000*%
%ADD21RoundRect,0.250000X-0.312500X-0.625000X0.312500X-0.625000X0.312500X0.625000X-0.312500X0.625000X0*%
%ADD22RoundRect,0.140000X-0.170000X0.140000X-0.170000X-0.140000X0.170000X-0.140000X0.170000X0.140000X0*%
%ADD23RoundRect,0.135000X0.135000X0.185000X-0.135000X0.185000X-0.135000X-0.185000X0.135000X-0.185000X0*%
%ADD24RoundRect,0.135000X-0.135000X-0.185000X0.135000X-0.185000X0.135000X0.185000X-0.135000X0.185000X0*%
%ADD25RoundRect,0.250000X0.650000X-1.000000X0.650000X1.000000X-0.650000X1.000000X-0.650000X-1.000000X0*%
%ADD26C,2.000000*%
%ADD27RoundRect,0.250000X1.100000X-0.325000X1.100000X0.325000X-1.100000X0.325000X-1.100000X-0.325000X0*%
%ADD28RoundRect,0.140000X-0.140000X-0.170000X0.140000X-0.170000X0.140000X0.170000X-0.140000X0.170000X0*%
%ADD29RoundRect,0.055250X0.340750X0.055250X-0.340750X0.055250X-0.340750X-0.055250X0.340750X-0.055250X0*%
%ADD30RoundRect,0.140000X0.170000X-0.140000X0.170000X0.140000X-0.170000X0.140000X-0.170000X-0.140000X0*%
%ADD31C,1.600000*%
%ADD32C,1.800000*%
%ADD33RoundRect,0.240400X-0.961600X0.961600X-0.961600X-0.961600X0.961600X-0.961600X0.961600X0.961600X0*%
%ADD34R,4.000000X2.600000*%
%ADD35RoundRect,0.062500X0.062500X-0.337500X0.062500X0.337500X-0.062500X0.337500X-0.062500X-0.337500X0*%
%ADD36RoundRect,0.062500X0.337500X-0.062500X0.337500X0.062500X-0.337500X0.062500X-0.337500X-0.062500X0*%
%ADD37C,0.400000*%
%ADD38R,5.300000X3.300000*%
%ADD39RoundRect,0.250000X0.250000X0.475000X-0.250000X0.475000X-0.250000X-0.475000X0.250000X-0.475000X0*%
%ADD40C,0.500000*%
%ADD41C,1.000000*%
G04 APERTURE END LIST*
D10*
X104290562Y-115206000D02*
X102510562Y-115206000D01*
X102510562Y-116646000D01*
X104290562Y-116646000D01*
X104290562Y-115206000D01*
G36*
X104290562Y-115206000D02*
G01*
X102510562Y-115206000D01*
X102510562Y-116646000D01*
X104290562Y-116646000D01*
X104290562Y-115206000D01*
G37*
X104290562Y-118916000D02*
X102510562Y-118916000D01*
X102510562Y-120356000D01*
X104290562Y-120356000D01*
X104290562Y-118916000D01*
G36*
X104290562Y-118916000D02*
G01*
X102510562Y-118916000D01*
X102510562Y-120356000D01*
X104290562Y-120356000D01*
X104290562Y-118916000D01*
G37*
X104300562Y-112726000D02*
X102520562Y-112726000D01*
X102520562Y-114596000D01*
X104300562Y-114596000D01*
X104300562Y-112726000D01*
G36*
X104300562Y-112726000D02*
G01*
X102520562Y-112726000D01*
X102520562Y-114596000D01*
X104300562Y-114596000D01*
X104300562Y-112726000D01*
G37*
X104300562Y-117046000D02*
X102520562Y-117046000D01*
X102520562Y-118486000D01*
X104300562Y-118486000D01*
X104300562Y-117046000D01*
G36*
X104300562Y-117046000D02*
G01*
X102520562Y-117046000D01*
X102520562Y-118486000D01*
X104300562Y-118486000D01*
X104300562Y-117046000D01*
G37*
X106500562Y-115206000D02*
X104720562Y-115206000D01*
X104720562Y-116646000D01*
X106500562Y-116646000D01*
X106500562Y-115206000D01*
G36*
X106500562Y-115206000D02*
G01*
X104720562Y-115206000D01*
X104720562Y-116646000D01*
X106500562Y-116646000D01*
X106500562Y-115206000D01*
G37*
X106500562Y-118916000D02*
X104720562Y-118916000D01*
X104720562Y-120356000D01*
X106500562Y-120356000D01*
X106500562Y-118916000D01*
G36*
X106500562Y-118916000D02*
G01*
X104720562Y-118916000D01*
X104720562Y-120356000D01*
X106500562Y-120356000D01*
X106500562Y-118916000D01*
G37*
X106510562Y-112736000D02*
X104730562Y-112736000D01*
X104730562Y-114606000D01*
X106510562Y-114606000D01*
X106510562Y-112736000D01*
G36*
X106510562Y-112736000D02*
G01*
X104730562Y-112736000D01*
X104730562Y-114606000D01*
X106510562Y-114606000D01*
X106510562Y-112736000D01*
G37*
X106510562Y-117046000D02*
X104730562Y-117046000D01*
X104730562Y-118486000D01*
X106510562Y-118486000D01*
X106510562Y-117046000D01*
G36*
X106510562Y-117046000D02*
G01*
X104730562Y-117046000D01*
X104730562Y-118486000D01*
X106510562Y-118486000D01*
X106510562Y-117046000D01*
G37*
X108710562Y-112746000D02*
X106930562Y-112746000D01*
X106930562Y-114626000D01*
X108710562Y-114626000D01*
X108710562Y-112746000D01*
G36*
X108710562Y-112746000D02*
G01*
X106930562Y-112746000D01*
X106930562Y-114626000D01*
X108710562Y-114626000D01*
X108710562Y-112746000D01*
G37*
X108710562Y-115216000D02*
X106930562Y-115216000D01*
X106930562Y-116656000D01*
X108710562Y-116656000D01*
X108710562Y-115216000D01*
G36*
X108710562Y-115216000D02*
G01*
X106930562Y-115216000D01*
X106930562Y-116656000D01*
X108710562Y-116656000D01*
X108710562Y-115216000D01*
G37*
X108710562Y-118926000D02*
X106930562Y-118926000D01*
X106930562Y-120366000D01*
X108710562Y-120366000D01*
X108710562Y-118926000D01*
G36*
X108710562Y-118926000D02*
G01*
X106930562Y-118926000D01*
X106930562Y-120366000D01*
X108710562Y-120366000D01*
X108710562Y-118926000D01*
G37*
X108720562Y-117056000D02*
X106940562Y-117056000D01*
X106940562Y-118496000D01*
X108720562Y-118496000D01*
X108720562Y-117056000D01*
G36*
X108720562Y-117056000D02*
G01*
X106940562Y-117056000D01*
X106940562Y-118496000D01*
X108720562Y-118496000D01*
X108720562Y-117056000D01*
G37*
D11*
X84764000Y-94984000D03*
X126130000Y-136350000D03*
D12*
X130250000Y-51120990D03*
X130909010Y-49530000D03*
X130909010Y-52711980D03*
X132500000Y-48870990D03*
D13*
X132500000Y-51120990D03*
D12*
X132500000Y-53370990D03*
X134090990Y-49530000D03*
X134090990Y-52711980D03*
X134750000Y-51120990D03*
X130250000Y-143728000D03*
X130909010Y-142137010D03*
X130909010Y-145318990D03*
X132500000Y-141478000D03*
D13*
X132500000Y-143728000D03*
D12*
X132500000Y-145978000D03*
X134090990Y-142137010D03*
X134090990Y-145318990D03*
X134750000Y-143728000D03*
X76250000Y-143855000D03*
X76909010Y-142264010D03*
X76909010Y-145445990D03*
X78500000Y-141605000D03*
D13*
X78500000Y-143855000D03*
D12*
X78500000Y-146105000D03*
X80090990Y-142264010D03*
X80090990Y-145445990D03*
X80750000Y-143855000D03*
D14*
X84710000Y-136360000D03*
D12*
X76250000Y-51054000D03*
X76909010Y-49463010D03*
X76909010Y-52644990D03*
X78500000Y-48804000D03*
D13*
X78500000Y-51054000D03*
D12*
X78500000Y-53304000D03*
X80090990Y-49463010D03*
X80090990Y-52644990D03*
X80750000Y-51054000D03*
D14*
X126060000Y-94910000D03*
D15*
X96635000Y-84328000D03*
X93685000Y-84328000D03*
D16*
X103710000Y-83687000D03*
X103710000Y-81787000D03*
D17*
X101462400Y-145400852D03*
D18*
X96382400Y-143240851D03*
X98922400Y-143240851D03*
X101462400Y-143240851D03*
X104002400Y-143240851D03*
D19*
X107980000Y-76708000D03*
X107020000Y-76708000D03*
D20*
X84250000Y-71942000D03*
X86790000Y-71942000D03*
X89330000Y-71942000D03*
X91870000Y-71942000D03*
X94410000Y-71942000D03*
X96950000Y-71942000D03*
X99490000Y-71942000D03*
X102030000Y-71942000D03*
X104570000Y-71942000D03*
X107110000Y-71942000D03*
X109650000Y-71942000D03*
X112190000Y-71942000D03*
X112190000Y-49022000D03*
X109650000Y-49022000D03*
X107110000Y-49022000D03*
X104570000Y-49022000D03*
X102030000Y-49022000D03*
X99490000Y-49022000D03*
X96950000Y-49022000D03*
X94410000Y-49022000D03*
X91870000Y-49022000D03*
X89330000Y-49022000D03*
X86790000Y-49022000D03*
X84250000Y-49022000D03*
D21*
X111057500Y-92037000D03*
X113982500Y-92037000D03*
D22*
X117718000Y-84229000D03*
X117718000Y-85189000D03*
D16*
X99490000Y-83707000D03*
X99490000Y-81807000D03*
D23*
X119763000Y-83058000D03*
X118743000Y-83058000D03*
D24*
X116846000Y-77089000D03*
X117866000Y-77089000D03*
X109680000Y-76757000D03*
X110700000Y-76757000D03*
D15*
X96598000Y-89916000D03*
X93648000Y-89916000D03*
D25*
X121920000Y-72580000D03*
X121920000Y-68580000D03*
D26*
X132260000Y-139060000D03*
D16*
X101590000Y-83687000D03*
X101590000Y-81787000D03*
D22*
X101320000Y-78387000D03*
X101320000Y-79347000D03*
D23*
X119771000Y-79375000D03*
X118751000Y-79375000D03*
D27*
X114935000Y-73198000D03*
X114935000Y-70248000D03*
D19*
X107980000Y-77827000D03*
X107020000Y-77827000D03*
D24*
X116828000Y-81915000D03*
X117848000Y-81915000D03*
D22*
X110970000Y-87107000D03*
X110970000Y-88067000D03*
D28*
X116868000Y-78105000D03*
X117828000Y-78105000D03*
D23*
X117858000Y-83058000D03*
X116838000Y-83058000D03*
D24*
X116838000Y-79375000D03*
X117858000Y-79375000D03*
D29*
X109526562Y-113032000D03*
X109526562Y-113534000D03*
X109526562Y-114036000D03*
X109526562Y-114538000D03*
X109526562Y-115040000D03*
X109526562Y-115542000D03*
X109526562Y-116044000D03*
X109526562Y-116546000D03*
X109526562Y-117048000D03*
X109526562Y-117550000D03*
X109526562Y-118052000D03*
X109526562Y-118554000D03*
X109526562Y-119056000D03*
X109526562Y-119558000D03*
X109526562Y-120060000D03*
X101694562Y-120060000D03*
X101694562Y-119558000D03*
X101694562Y-119056000D03*
X101694562Y-118554000D03*
X101694562Y-118052000D03*
X101694562Y-117550000D03*
X101694562Y-117048000D03*
X101694562Y-116546000D03*
X101694562Y-116044000D03*
X101694562Y-115542000D03*
X101694562Y-115040000D03*
X101694562Y-114538000D03*
X101694562Y-114036000D03*
X101694562Y-113534000D03*
X101694562Y-113032000D03*
D24*
X109670000Y-77817000D03*
X110690000Y-77817000D03*
D15*
X96635000Y-86995000D03*
X93685000Y-86995000D03*
D23*
X119758000Y-80645000D03*
X118738000Y-80645000D03*
D19*
X107960000Y-75565000D03*
X107000000Y-75565000D03*
D26*
X78850000Y-139070000D03*
D24*
X118748000Y-85344000D03*
X119768000Y-85344000D03*
D30*
X118753000Y-78077000D03*
X118753000Y-77117000D03*
D31*
X130810000Y-83439000D03*
D32*
X126310000Y-83439000D03*
D33*
X130810000Y-77939000D03*
X124610000Y-77939000D03*
X130810000Y-88939000D03*
X124610000Y-88939000D03*
D34*
X107775000Y-89082000D03*
X99825000Y-89082000D03*
D15*
X96655000Y-92583000D03*
X93705000Y-92583000D03*
D28*
X111420000Y-86047000D03*
X112380000Y-86047000D03*
D23*
X93590000Y-78337000D03*
X92570000Y-78337000D03*
D35*
X113240000Y-83917000D03*
X112740000Y-83917000D03*
X112240000Y-83917000D03*
X111740000Y-83917000D03*
X111240000Y-83917000D03*
X110740000Y-83917000D03*
X110240000Y-83917000D03*
X109740000Y-83917000D03*
X109240000Y-83917000D03*
X108740000Y-83917000D03*
X108240000Y-83917000D03*
X107740000Y-83917000D03*
D36*
X106990000Y-83167000D03*
X106990000Y-82667000D03*
X106990000Y-82167000D03*
X106990000Y-81667000D03*
X106990000Y-81167000D03*
X106990000Y-80667000D03*
X106990000Y-80167000D03*
X106990000Y-79667000D03*
D35*
X107740000Y-78917000D03*
X108240000Y-78917000D03*
X108740000Y-78917000D03*
X109240000Y-78917000D03*
X109740000Y-78917000D03*
X110240000Y-78917000D03*
X110740000Y-78917000D03*
X111240000Y-78917000D03*
X111740000Y-78917000D03*
X112240000Y-78917000D03*
X112740000Y-78917000D03*
X113240000Y-78917000D03*
D36*
X113990000Y-79667000D03*
X113990000Y-80167000D03*
X113990000Y-80667000D03*
X113990000Y-81167000D03*
X113990000Y-81667000D03*
X113990000Y-82167000D03*
X113990000Y-82667000D03*
X113990000Y-83167000D03*
D37*
X109090000Y-82697000D03*
X110490000Y-82697000D03*
X111890000Y-82697000D03*
X108090000Y-81417000D03*
X109090000Y-81417000D03*
X110490000Y-81417000D03*
D38*
X110490000Y-81417000D03*
D37*
X111890000Y-81417000D03*
X112890000Y-81417000D03*
X109090000Y-80137000D03*
X110490000Y-80137000D03*
X111890000Y-80137000D03*
D27*
X118237000Y-73198000D03*
X118237000Y-70248000D03*
D23*
X119758000Y-81915000D03*
X118738000Y-81915000D03*
D26*
X125270000Y-50310000D03*
D24*
X116828000Y-80645000D03*
X117848000Y-80645000D03*
D39*
X112880000Y-89687000D03*
X110980000Y-89687000D03*
D26*
X78750000Y-55900000D03*
D23*
X119768000Y-84201000D03*
X118748000Y-84201000D03*
D39*
X108519000Y-74041000D03*
X106619000Y-74041000D03*
D40*
X121920000Y-74549000D03*
D12*
X105610000Y-116830000D03*
X112180000Y-119260000D03*
X113580000Y-132650000D03*
X98050000Y-114260000D03*
X104490000Y-118700000D03*
D41*
X119126000Y-68802000D03*
D12*
X112180000Y-120800000D03*
D40*
X119761000Y-86106000D03*
D12*
X106740000Y-119930000D03*
D41*
X113665000Y-68802000D03*
D12*
X106740000Y-118720000D03*
X104640000Y-130470000D03*
X105540000Y-132550000D03*
D41*
X115005332Y-67405000D03*
D12*
X116770000Y-124080000D03*
X106740000Y-117780000D03*
X104490000Y-117760000D03*
X105630000Y-118700000D03*
D41*
X92202000Y-88519000D03*
D12*
X115260000Y-109040000D03*
X123750000Y-117530000D03*
D41*
X92202000Y-93599000D03*
D12*
X106740000Y-116860000D03*
X105620000Y-82057000D03*
X103604000Y-137538000D03*
X116050000Y-128010000D03*
D41*
X92202000Y-91059000D03*
D12*
X104490000Y-119910000D03*
D41*
X117729000Y-68802000D03*
D12*
X112980000Y-114270000D03*
X105537000Y-75438000D03*
X112280000Y-93737000D03*
X117090000Y-100360000D03*
D41*
X117729000Y-67405000D03*
D12*
X121580000Y-112400000D03*
D41*
X92210000Y-83058000D03*
X113665000Y-67405000D03*
D12*
X122640000Y-102460000D03*
X103604000Y-141088000D03*
X113180000Y-130220000D03*
X119280000Y-103505000D03*
X99370000Y-119240000D03*
D41*
X116372000Y-68805000D03*
X119126000Y-67405000D03*
D12*
X123710000Y-120230000D03*
X96600000Y-108920000D03*
X104490000Y-115746000D03*
X105664000Y-76835000D03*
X103580000Y-80447000D03*
X105610000Y-80457000D03*
X104648000Y-74168000D03*
X98440000Y-121490000D03*
X92680000Y-133370000D03*
D40*
X126619000Y-89154000D03*
X106426000Y-144780000D03*
D12*
X104490000Y-116840000D03*
X99510000Y-80427000D03*
D41*
X115045332Y-68805000D03*
X92202000Y-85725000D03*
D12*
X106740000Y-115766000D03*
X116990000Y-98200000D03*
D41*
X116332000Y-67405000D03*
D12*
X101500000Y-80427000D03*
X105610000Y-78747000D03*
X107569000Y-99060000D03*
X102489000Y-97790000D03*
X105029000Y-101600000D03*
X102489000Y-100330000D03*
D40*
X120523000Y-84074000D03*
X96635000Y-88380000D03*
D12*
X108839000Y-101600000D03*
X106299000Y-100330000D03*
X106299000Y-99060000D03*
X103759000Y-97790000D03*
D40*
X86614000Y-78994000D03*
D12*
X103759000Y-100330000D03*
D40*
X104290000Y-84847000D03*
D12*
X102489000Y-101600000D03*
X103759000Y-102870000D03*
X105029000Y-100330000D03*
X108839000Y-100330000D03*
X102489000Y-99060000D03*
X107569000Y-101600000D03*
X106299000Y-101600000D03*
X107569000Y-102870000D03*
X108839000Y-99060000D03*
X107569000Y-100330000D03*
X105029000Y-97790000D03*
X108839000Y-97790000D03*
X107569000Y-97790000D03*
X103759000Y-101600000D03*
X108839000Y-102870000D03*
X105029000Y-99060000D03*
X102489000Y-102870000D03*
X103759000Y-99060000D03*
X106299000Y-97790000D03*
D40*
X126619000Y-78486000D03*
X124079000Y-74549000D03*
D12*
X108290000Y-131179000D03*
X99710000Y-131420000D03*
X108077000Y-139836400D03*
X91910000Y-78347000D03*
X95550000Y-135970000D03*
X122930000Y-99700000D03*
X95560000Y-126330000D03*
D40*
X94317599Y-134229617D03*
X115443000Y-85090000D03*
X91440000Y-52705000D03*
X98679000Y-75184000D03*
X120142000Y-82550000D03*
X112380000Y-86807000D03*
X111500000Y-77937000D03*
X101250000Y-77567000D03*
X114300000Y-86487000D03*
X94660000Y-78317000D03*
X114935000Y-84328000D03*
X94340000Y-133580000D03*
X100838000Y-74422000D03*
D12*
X100770000Y-123700000D03*
X99180000Y-123710000D03*
D40*
X119430000Y-116250000D03*
X119420000Y-118020000D03*
X124540000Y-121820000D03*
X92180000Y-119960000D03*
X92940000Y-119930000D03*
X117483000Y-82296000D03*
X117602000Y-80772000D03*
X117602000Y-78232000D03*
X114515000Y-81667000D03*
X117602000Y-79502000D03*
X110740000Y-85377000D03*
D12*
X113470000Y-111290000D03*
X110950000Y-124990000D03*
X124600000Y-101830000D03*
X116205000Y-103505000D03*
X110970000Y-123700000D03*
X112390000Y-109350000D03*
X111030000Y-107870000D03*
X100553800Y-107457400D03*
X99360000Y-109210000D03*
X98140000Y-111060000D03*
D40*
X119420000Y-114790000D03*
X113800000Y-98950000D03*
X113770000Y-99770000D03*
X113830000Y-100500000D03*
X118320000Y-108370000D03*
X118740000Y-113660000D03*
X92480000Y-112210000D03*
X92480000Y-113611428D03*
X92480000Y-115012856D03*
X92480000Y-116414284D03*
X92480000Y-117815712D03*
X91400000Y-120430000D03*
M02*
