G04 #@! TF.GenerationSoftware,KiCad,Pcbnew,8.0.4*
G04 #@! TF.CreationDate,2024-12-28T01:26:10+01:00*
G04 #@! TF.ProjectId,nerdaxe-gamma,6e657264-6178-4652-9d67-616d6d612e6b,rev?*
G04 #@! TF.SameCoordinates,Original*
G04 #@! TF.FileFunction,Soldermask,Top*
G04 #@! TF.FilePolarity,Negative*
%FSLAX46Y46*%
G04 Gerber Fmt 4.6, Leading zero omitted, Abs format (unit mm)*
G04 Created by KiCad (PCBNEW 8.0.4) date 2024-12-28 01:26:10*
%MOMM*%
%LPD*%
G01*
G04 APERTURE LIST*
G04 Aperture macros list*
%AMRoundRect*
0 Rectangle with rounded corners*
0 $1 Rounding radius*
0 $2 $3 $4 $5 $6 $7 $8 $9 X,Y pos of 4 corners*
0 Add a 4 corners polygon primitive as box body*
4,1,4,$2,$3,$4,$5,$6,$7,$8,$9,$2,$3,0*
0 Add four circle primitives for the rounded corners*
1,1,$1+$1,$2,$3*
1,1,$1+$1,$4,$5*
1,1,$1+$1,$6,$7*
1,1,$1+$1,$8,$9*
0 Add four rect primitives between the rounded corners*
20,1,$1+$1,$2,$3,$4,$5,0*
20,1,$1+$1,$4,$5,$6,$7,0*
20,1,$1+$1,$6,$7,$8,$9,0*
20,1,$1+$1,$8,$9,$2,$3,0*%
G04 Aperture macros list end*
%ADD10RoundRect,0.250000X-0.650000X1.000000X-0.650000X-1.000000X0.650000X-1.000000X0.650000X1.000000X0*%
%ADD11C,1.500000*%
%ADD12RoundRect,0.135000X0.135000X0.185000X-0.135000X0.185000X-0.135000X-0.185000X0.135000X-0.185000X0*%
%ADD13RoundRect,0.250000X-1.100000X0.325000X-1.100000X-0.325000X1.100000X-0.325000X1.100000X0.325000X0*%
%ADD14C,2.000000*%
%ADD15RoundRect,0.140000X0.140000X0.170000X-0.140000X0.170000X-0.140000X-0.170000X0.140000X-0.170000X0*%
%ADD16RoundRect,0.140000X0.170000X-0.140000X0.170000X0.140000X-0.170000X0.140000X-0.170000X-0.140000X0*%
%ADD17RoundRect,0.140000X-0.170000X0.140000X-0.170000X-0.140000X0.170000X-0.140000X0.170000X0.140000X0*%
%ADD18RoundRect,0.135000X-0.185000X0.135000X-0.185000X-0.135000X0.185000X-0.135000X0.185000X0.135000X0*%
%ADD19C,3.000000*%
%ADD20RoundRect,0.150000X-0.512500X-0.150000X0.512500X-0.150000X0.512500X0.150000X-0.512500X0.150000X0*%
%ADD21R,1.100000X1.300000*%
%ADD22RoundRect,0.140000X-0.140000X-0.170000X0.140000X-0.170000X0.140000X0.170000X-0.140000X0.170000X0*%
%ADD23C,0.800000*%
%ADD24C,6.000000*%
%ADD25RoundRect,0.250000X-0.650000X0.325000X-0.650000X-0.325000X0.650000X-0.325000X0.650000X0.325000X0*%
%ADD26RoundRect,0.135000X0.185000X-0.135000X0.185000X0.135000X-0.185000X0.135000X-0.185000X-0.135000X0*%
%ADD27R,0.400000X1.100000*%
%ADD28C,3.500000*%
%ADD29RoundRect,0.100000X-0.637500X-0.100000X0.637500X-0.100000X0.637500X0.100000X-0.637500X0.100000X0*%
%ADD30RoundRect,0.135000X-0.135000X-0.185000X0.135000X-0.185000X0.135000X0.185000X-0.135000X0.185000X0*%
%ADD31C,1.295400*%
%ADD32C,1.574800*%
%ADD33C,1.700000*%
%ADD34C,1.600000*%
%ADD35C,1.800000*%
%ADD36C,0.400000*%
%ADD37C,0.500000*%
%ADD38C,1.000000*%
G04 APERTURE END LIST*
D10*
X122047000Y-68517000D03*
X122047000Y-72517000D03*
D11*
X128397000Y-79121000D03*
D12*
X122010000Y-103710000D03*
X120990000Y-103710000D03*
D13*
X108458000Y-141781000D03*
X108458000Y-144731000D03*
D11*
X114860000Y-134280000D03*
D14*
X125270000Y-50310000D03*
X132260000Y-139060000D03*
X78850000Y-139070000D03*
D15*
X101570000Y-103154000D03*
X100610000Y-103154000D03*
D11*
X122860000Y-121970000D03*
X120820000Y-119010000D03*
D16*
X100655438Y-122810000D03*
X100655438Y-121850000D03*
D17*
X108072400Y-104360000D03*
X108072400Y-105320000D03*
D18*
X94520000Y-123850000D03*
X94520000Y-124870000D03*
D15*
X99161000Y-108024000D03*
X98201000Y-108024000D03*
D19*
X84764000Y-94984000D03*
D17*
X102110000Y-104360000D03*
X102110000Y-105320000D03*
D20*
X101392500Y-129520000D03*
X101392500Y-130470000D03*
X101392500Y-131420000D03*
X103667500Y-131420000D03*
X103667500Y-129520000D03*
D11*
X110990000Y-96640000D03*
X101144000Y-140268000D03*
X96280000Y-123890000D03*
X97834000Y-140298000D03*
X87080000Y-118492000D03*
X103505000Y-93853000D03*
D19*
X126130000Y-136350000D03*
D11*
X128270000Y-88011000D03*
D16*
X99525438Y-122820000D03*
X99525438Y-121860000D03*
X112140000Y-122790000D03*
X112140000Y-121830000D03*
D21*
X115680000Y-126370000D03*
X115680000Y-124070000D03*
X113780000Y-124070000D03*
X113780000Y-126370000D03*
D22*
X101940000Y-132840000D03*
X102900000Y-132840000D03*
D23*
X130250000Y-51120990D03*
X130909010Y-49530000D03*
X130909010Y-52711980D03*
X132500000Y-48870990D03*
D24*
X132500000Y-51120990D03*
D23*
X132500000Y-53370990D03*
X134090990Y-49530000D03*
X134090990Y-52711980D03*
X134750000Y-51120990D03*
D11*
X107315000Y-93853000D03*
D15*
X115270000Y-128010000D03*
X114310000Y-128010000D03*
D14*
X78750000Y-55900000D03*
D11*
X110990000Y-99610000D03*
D12*
X123720000Y-118980000D03*
X122700000Y-118980000D03*
D11*
X91650000Y-123880000D03*
D25*
X105670000Y-103375000D03*
X105670000Y-106325000D03*
D11*
X119550000Y-108280000D03*
X118520000Y-122760000D03*
D26*
X106174000Y-141148000D03*
X106174000Y-140128000D03*
D27*
X94870000Y-127840000D03*
X94220000Y-127840000D03*
X93570000Y-127840000D03*
X92920000Y-127840000D03*
X92920000Y-132140000D03*
X93570000Y-132140000D03*
X94220000Y-132140000D03*
X94870000Y-132140000D03*
D11*
X87080000Y-112616000D03*
D20*
X109843500Y-129279000D03*
X109843500Y-130229000D03*
X109843500Y-131179000D03*
X112118500Y-131179000D03*
X112118500Y-129279000D03*
D23*
X130250000Y-143728000D03*
X130909010Y-142137010D03*
X130909010Y-145318990D03*
X132500000Y-141478000D03*
D24*
X132500000Y-143728000D03*
D23*
X132500000Y-145978000D03*
X134090990Y-142137010D03*
X134090990Y-145318990D03*
X134750000Y-143728000D03*
D17*
X122930000Y-100640000D03*
X122930000Y-101600000D03*
X103240000Y-104360000D03*
X103240000Y-105320000D03*
D18*
X120380000Y-112750000D03*
X120380000Y-113770000D03*
D11*
X122860000Y-113980000D03*
X89860000Y-120480000D03*
D23*
X76250000Y-143855000D03*
X76909010Y-142264010D03*
X76909010Y-145445990D03*
X78500000Y-141605000D03*
D24*
X78500000Y-143855000D03*
D23*
X78500000Y-146105000D03*
X80090990Y-142264010D03*
X80090990Y-145445990D03*
X80750000Y-143855000D03*
D17*
X104734000Y-140138000D03*
X104734000Y-141098000D03*
D28*
X84710000Y-136360000D03*
D15*
X98090000Y-109925000D03*
X97130000Y-109925000D03*
X114410000Y-109860000D03*
X113450000Y-109860000D03*
D29*
X115427500Y-97855000D03*
X115427500Y-98505000D03*
X115427500Y-99155000D03*
X115427500Y-99805000D03*
X115427500Y-100455000D03*
X115427500Y-101105000D03*
X115427500Y-101755000D03*
X115427500Y-102405000D03*
X121152500Y-102405000D03*
X121152500Y-101755000D03*
X121152500Y-101105000D03*
X121152500Y-100455000D03*
X121152500Y-99805000D03*
X121152500Y-99155000D03*
X121152500Y-98505000D03*
X121152500Y-97855000D03*
D30*
X93560000Y-135710000D03*
X94580000Y-135710000D03*
D15*
X112010000Y-106266000D03*
X111050000Y-106266000D03*
D26*
X93380000Y-124870000D03*
X93380000Y-123850000D03*
D22*
X110481000Y-132739000D03*
X111441000Y-132739000D03*
D15*
X124270000Y-103110000D03*
X123310000Y-103110000D03*
D16*
X111000000Y-122790000D03*
X111000000Y-121830000D03*
D23*
X76250000Y-51054000D03*
X76909010Y-49463010D03*
X76909010Y-52644990D03*
X78500000Y-48804000D03*
D24*
X78500000Y-51054000D03*
D23*
X78500000Y-53304000D03*
X80090990Y-49463010D03*
X80090990Y-52644990D03*
X80750000Y-51054000D03*
D17*
X109190000Y-104360000D03*
X109190000Y-105320000D03*
D12*
X123720000Y-116220000D03*
X122700000Y-116220000D03*
D15*
X110695000Y-103146000D03*
X109735000Y-103146000D03*
D11*
X106360000Y-134230000D03*
D28*
X126060000Y-94910000D03*
D11*
X120900000Y-116060000D03*
X89890000Y-114520000D03*
D15*
X94440000Y-125940000D03*
X93480000Y-125940000D03*
X113310000Y-108026000D03*
X112350000Y-108026000D03*
X105574000Y-137528000D03*
X104614000Y-137528000D03*
D11*
X87080000Y-115554000D03*
X89890000Y-117310000D03*
D17*
X114240000Y-129540000D03*
X114240000Y-130500000D03*
D15*
X100441000Y-106284000D03*
X99481000Y-106284000D03*
D17*
X105750000Y-129990000D03*
X105750000Y-130950000D03*
D31*
X101462400Y-145400852D03*
D32*
X96382400Y-143240851D03*
X98922400Y-143240851D03*
X101462400Y-143240851D03*
X104002400Y-143240851D03*
D33*
X84250000Y-71942000D03*
X86790000Y-71942000D03*
X89330000Y-71942000D03*
X91870000Y-71942000D03*
X94410000Y-71942000D03*
X96950000Y-71942000D03*
X99490000Y-71942000D03*
X102030000Y-71942000D03*
X104570000Y-71942000D03*
X107110000Y-71942000D03*
X109650000Y-71942000D03*
X112190000Y-71942000D03*
X112190000Y-49022000D03*
X109650000Y-49022000D03*
X107110000Y-49022000D03*
X104570000Y-49022000D03*
X102030000Y-49022000D03*
X99490000Y-49022000D03*
X96950000Y-49022000D03*
X94410000Y-49022000D03*
X91870000Y-49022000D03*
X89330000Y-49022000D03*
X86790000Y-49022000D03*
X84250000Y-49022000D03*
D34*
X130810000Y-83439000D03*
D35*
X126310000Y-83439000D03*
D36*
X109090000Y-82697000D03*
X110490000Y-82697000D03*
X111890000Y-82697000D03*
X108090000Y-81417000D03*
X109090000Y-81417000D03*
X110490000Y-81417000D03*
X111890000Y-81417000D03*
X112890000Y-81417000D03*
X109090000Y-80137000D03*
X110490000Y-80137000D03*
X111890000Y-80137000D03*
D37*
X121920000Y-74549000D03*
D23*
X105610000Y-116830000D03*
X112180000Y-119260000D03*
X113580000Y-132650000D03*
X98050000Y-114260000D03*
X104490000Y-118700000D03*
D38*
X119126000Y-68802000D03*
D23*
X112180000Y-120800000D03*
D37*
X119761000Y-86106000D03*
D23*
X106740000Y-119930000D03*
D38*
X113665000Y-68802000D03*
D23*
X106740000Y-118720000D03*
X104640000Y-130470000D03*
X105540000Y-132550000D03*
D38*
X115005332Y-67405000D03*
D23*
X116770000Y-124080000D03*
X106740000Y-117780000D03*
X104490000Y-117760000D03*
X105630000Y-118700000D03*
D38*
X92202000Y-88519000D03*
D23*
X115260000Y-109040000D03*
X123750000Y-117530000D03*
D38*
X92202000Y-93599000D03*
D23*
X106740000Y-116860000D03*
X105620000Y-82057000D03*
X103604000Y-137538000D03*
X116050000Y-128010000D03*
D38*
X92202000Y-91059000D03*
D23*
X104490000Y-119910000D03*
D38*
X117729000Y-68802000D03*
D23*
X112980000Y-114270000D03*
X105537000Y-75438000D03*
X112280000Y-93737000D03*
X117090000Y-100360000D03*
D38*
X117729000Y-67405000D03*
D23*
X121580000Y-112400000D03*
D38*
X92210000Y-83058000D03*
X113665000Y-67405000D03*
D23*
X122640000Y-102460000D03*
X103604000Y-141088000D03*
X113180000Y-130220000D03*
X119280000Y-103505000D03*
X99370000Y-119240000D03*
D38*
X116372000Y-68805000D03*
X119126000Y-67405000D03*
D23*
X123710000Y-120230000D03*
X96600000Y-108920000D03*
X104490000Y-115746000D03*
X105664000Y-76835000D03*
X103580000Y-80447000D03*
X105610000Y-80457000D03*
X104648000Y-74168000D03*
X98440000Y-121490000D03*
X92680000Y-133370000D03*
D37*
X126619000Y-89154000D03*
X106426000Y-144780000D03*
D23*
X104490000Y-116840000D03*
X99510000Y-80427000D03*
D38*
X115045332Y-68805000D03*
X92202000Y-85725000D03*
D23*
X106740000Y-115766000D03*
X116990000Y-98200000D03*
D38*
X116332000Y-67405000D03*
D23*
X101500000Y-80427000D03*
X105610000Y-78747000D03*
X107569000Y-99060000D03*
X102489000Y-97790000D03*
X105029000Y-101600000D03*
X102489000Y-100330000D03*
D37*
X120523000Y-84074000D03*
X96635000Y-88380000D03*
D23*
X108839000Y-101600000D03*
X106299000Y-100330000D03*
X106299000Y-99060000D03*
X103759000Y-97790000D03*
D37*
X86614000Y-78994000D03*
D23*
X103759000Y-100330000D03*
D37*
X104290000Y-84847000D03*
D23*
X102489000Y-101600000D03*
X103759000Y-102870000D03*
X105029000Y-100330000D03*
X108839000Y-100330000D03*
X102489000Y-99060000D03*
X107569000Y-101600000D03*
X106299000Y-101600000D03*
X107569000Y-102870000D03*
X108839000Y-99060000D03*
X107569000Y-100330000D03*
X105029000Y-97790000D03*
X108839000Y-97790000D03*
X107569000Y-97790000D03*
X103759000Y-101600000D03*
X108839000Y-102870000D03*
X105029000Y-99060000D03*
X102489000Y-102870000D03*
X103759000Y-99060000D03*
X106299000Y-97790000D03*
D37*
X126619000Y-78486000D03*
X124079000Y-74549000D03*
D23*
X108290000Y-131179000D03*
X99710000Y-131420000D03*
X108077000Y-139836400D03*
X91910000Y-78347000D03*
X95550000Y-135970000D03*
X122930000Y-99700000D03*
X95560000Y-126330000D03*
D37*
X94317599Y-134229617D03*
X115443000Y-85090000D03*
X91440000Y-52705000D03*
X98679000Y-75184000D03*
X120142000Y-82550000D03*
X112380000Y-86807000D03*
X111500000Y-77937000D03*
X101250000Y-77567000D03*
X114300000Y-86487000D03*
X94660000Y-78317000D03*
X114935000Y-84328000D03*
X94340000Y-133580000D03*
X100838000Y-74422000D03*
D23*
X100770000Y-123700000D03*
X99180000Y-123710000D03*
D37*
X119430000Y-116250000D03*
X119420000Y-118020000D03*
X124540000Y-121820000D03*
X92180000Y-119960000D03*
X92940000Y-119930000D03*
X117483000Y-82296000D03*
X117602000Y-80772000D03*
X117602000Y-78232000D03*
X114515000Y-81667000D03*
X117602000Y-79502000D03*
X110740000Y-85377000D03*
D23*
X113470000Y-111290000D03*
X110950000Y-124990000D03*
X124600000Y-101830000D03*
X116205000Y-103505000D03*
X110970000Y-123700000D03*
X112390000Y-109350000D03*
X111030000Y-107870000D03*
X100553800Y-107457400D03*
X99360000Y-109210000D03*
X98140000Y-111060000D03*
D37*
X119420000Y-114790000D03*
X113800000Y-98950000D03*
X113770000Y-99770000D03*
X113830000Y-100500000D03*
X118320000Y-108370000D03*
X118740000Y-113660000D03*
X92480000Y-112210000D03*
X92480000Y-113611428D03*
X92480000Y-115012856D03*
X92480000Y-116414284D03*
X92480000Y-117815712D03*
X91400000Y-120430000D03*
M02*
