G04 #@! TF.GenerationSoftware,KiCad,Pcbnew,8.0.4*
G04 #@! TF.CreationDate,2024-12-28T01:26:10+01:00*
G04 #@! TF.ProjectId,nerdaxe-gamma,6e657264-6178-4652-9d67-616d6d612e6b,rev?*
G04 #@! TF.SameCoordinates,Original*
G04 #@! TF.FileFunction,Paste,Bot*
G04 #@! TF.FilePolarity,Positive*
%FSLAX46Y46*%
G04 Gerber Fmt 4.6, Leading zero omitted, Abs format (unit mm)*
G04 Created by KiCad (PCBNEW 8.0.4) date 2024-12-28 01:26:10*
%MOMM*%
%LPD*%
G01*
G04 APERTURE LIST*
G04 Aperture macros list*
%AMRoundRect*
0 Rectangle with rounded corners*
0 $1 Rounding radius*
0 $2 $3 $4 $5 $6 $7 $8 $9 X,Y pos of 4 corners*
0 Add a 4 corners polygon primitive as box body*
4,1,4,$2,$3,$4,$5,$6,$7,$8,$9,$2,$3,0*
0 Add four circle primitives for the rounded corners*
1,1,$1+$1,$2,$3*
1,1,$1+$1,$4,$5*
1,1,$1+$1,$6,$7*
1,1,$1+$1,$8,$9*
0 Add four rect primitives between the rounded corners*
20,1,$1+$1,$2,$3,$4,$5,0*
20,1,$1+$1,$4,$5,$6,$7,0*
20,1,$1+$1,$6,$7,$8,$9,0*
20,1,$1+$1,$8,$9,$2,$3,0*%
G04 Aperture macros list end*
%ADD10C,0.001000*%
%ADD11RoundRect,0.250000X0.325000X0.650000X-0.325000X0.650000X-0.325000X-0.650000X0.325000X-0.650000X0*%
%ADD12RoundRect,0.250000X0.475000X-0.250000X0.475000X0.250000X-0.475000X0.250000X-0.475000X-0.250000X0*%
%ADD13RoundRect,0.140000X0.140000X0.170000X-0.140000X0.170000X-0.140000X-0.170000X0.140000X-0.170000X0*%
%ADD14RoundRect,0.250000X-0.312500X-0.625000X0.312500X-0.625000X0.312500X0.625000X-0.312500X0.625000X0*%
%ADD15RoundRect,0.140000X-0.170000X0.140000X-0.170000X-0.140000X0.170000X-0.140000X0.170000X0.140000X0*%
%ADD16RoundRect,0.135000X0.135000X0.185000X-0.135000X0.185000X-0.135000X-0.185000X0.135000X-0.185000X0*%
%ADD17RoundRect,0.135000X-0.135000X-0.185000X0.135000X-0.185000X0.135000X0.185000X-0.135000X0.185000X0*%
%ADD18RoundRect,0.250000X0.650000X-1.000000X0.650000X1.000000X-0.650000X1.000000X-0.650000X-1.000000X0*%
%ADD19RoundRect,0.250000X1.100000X-0.325000X1.100000X0.325000X-1.100000X0.325000X-1.100000X-0.325000X0*%
%ADD20RoundRect,0.140000X-0.140000X-0.170000X0.140000X-0.170000X0.140000X0.170000X-0.140000X0.170000X0*%
%ADD21RoundRect,0.055250X0.340750X0.055250X-0.340750X0.055250X-0.340750X-0.055250X0.340750X-0.055250X0*%
%ADD22RoundRect,0.140000X0.170000X-0.140000X0.170000X0.140000X-0.170000X0.140000X-0.170000X-0.140000X0*%
%ADD23RoundRect,0.220000X-0.880000X0.880000X-0.880000X-0.880000X0.880000X-0.880000X0.880000X0.880000X0*%
%ADD24R,4.000000X2.600000*%
%ADD25RoundRect,0.220588X0.229412X-0.429412X0.229412X0.429412X-0.229412X0.429412X-0.229412X-0.429412X0*%
%ADD26RoundRect,0.232843X0.242157X-0.467157X0.242157X0.467157X-0.242157X0.467157X-0.242157X-0.467157X0*%
%ADD27RoundRect,0.062500X0.062500X-0.337500X0.062500X0.337500X-0.062500X0.337500X-0.062500X-0.337500X0*%
%ADD28RoundRect,0.062500X0.337500X-0.062500X0.337500X0.062500X-0.337500X0.062500X-0.337500X-0.062500X0*%
%ADD29RoundRect,0.250000X0.250000X0.475000X-0.250000X0.475000X-0.250000X-0.475000X0.250000X-0.475000X0*%
G04 APERTURE END LIST*
D10*
X104010562Y-119161000D02*
X102810562Y-119161000D01*
X102810562Y-120111000D01*
X104010562Y-120111000D01*
X104010562Y-119161000D01*
G36*
X104010562Y-119161000D02*
G01*
X102810562Y-119161000D01*
X102810562Y-120111000D01*
X104010562Y-120111000D01*
X104010562Y-119161000D01*
G37*
X104020562Y-117301000D02*
X102820562Y-117301000D01*
X102820562Y-118251000D01*
X104020562Y-118251000D01*
X104020562Y-117301000D01*
G36*
X104020562Y-117301000D02*
G01*
X102820562Y-117301000D01*
X102820562Y-118251000D01*
X104020562Y-118251000D01*
X104020562Y-117301000D01*
G37*
X104030562Y-113066000D02*
X102830562Y-113066000D01*
X102830562Y-114176000D01*
X104030562Y-114176000D01*
X104030562Y-113066000D01*
G36*
X104030562Y-113066000D02*
G01*
X102830562Y-113066000D01*
X102830562Y-114176000D01*
X104030562Y-114176000D01*
X104030562Y-113066000D01*
G37*
X104030562Y-115471000D02*
X102830562Y-115471000D01*
X102830562Y-116421000D01*
X104030562Y-116421000D01*
X104030562Y-115471000D01*
G36*
X104030562Y-115471000D02*
G01*
X102830562Y-115471000D01*
X102830562Y-116421000D01*
X104030562Y-116421000D01*
X104030562Y-115471000D01*
G37*
X106160562Y-119161000D02*
X104960562Y-119161000D01*
X104960562Y-120111000D01*
X106160562Y-120111000D01*
X106160562Y-119161000D01*
G36*
X106160562Y-119161000D02*
G01*
X104960562Y-119161000D01*
X104960562Y-120111000D01*
X106160562Y-120111000D01*
X106160562Y-119161000D01*
G37*
X106170562Y-117301000D02*
X104970562Y-117301000D01*
X104970562Y-118251000D01*
X106170562Y-118251000D01*
X106170562Y-117301000D01*
G36*
X106170562Y-117301000D02*
G01*
X104970562Y-117301000D01*
X104970562Y-118251000D01*
X106170562Y-118251000D01*
X106170562Y-117301000D01*
G37*
X106180562Y-115471000D02*
X104980562Y-115471000D01*
X104980562Y-116421000D01*
X106180562Y-116421000D01*
X106180562Y-115471000D01*
G36*
X106180562Y-115471000D02*
G01*
X104980562Y-115471000D01*
X104980562Y-116421000D01*
X106180562Y-116421000D01*
X106180562Y-115471000D01*
G37*
X106210562Y-113086000D02*
X105010562Y-113086000D01*
X105010562Y-114196000D01*
X106210562Y-114196000D01*
X106210562Y-113086000D01*
G36*
X106210562Y-113086000D02*
G01*
X105010562Y-113086000D01*
X105010562Y-114196000D01*
X106210562Y-114196000D01*
X106210562Y-113086000D01*
G37*
X108350562Y-113086000D02*
X107150562Y-113086000D01*
X107150562Y-114206000D01*
X108350562Y-114206000D01*
X108350562Y-113086000D01*
G36*
X108350562Y-113086000D02*
G01*
X107150562Y-113086000D01*
X107150562Y-114206000D01*
X108350562Y-114206000D01*
X108350562Y-113086000D01*
G37*
X108370562Y-119151000D02*
X107170562Y-119151000D01*
X107170562Y-120101000D01*
X108370562Y-120101000D01*
X108370562Y-119151000D01*
G36*
X108370562Y-119151000D02*
G01*
X107170562Y-119151000D01*
X107170562Y-120101000D01*
X108370562Y-120101000D01*
X108370562Y-119151000D01*
G37*
X108380562Y-117291000D02*
X107180562Y-117291000D01*
X107180562Y-118241000D01*
X108380562Y-118241000D01*
X108380562Y-117291000D01*
G36*
X108380562Y-117291000D02*
G01*
X107180562Y-117291000D01*
X107180562Y-118241000D01*
X108380562Y-118241000D01*
X108380562Y-117291000D01*
G37*
X108390562Y-115461000D02*
X107190562Y-115461000D01*
X107190562Y-116411000D01*
X108390562Y-116411000D01*
X108390562Y-115461000D01*
G36*
X108390562Y-115461000D02*
G01*
X107190562Y-115461000D01*
X107190562Y-116411000D01*
X108390562Y-116411000D01*
X108390562Y-115461000D01*
G37*
D11*
X96635000Y-84328000D03*
X93685000Y-84328000D03*
D12*
X103710000Y-83687000D03*
X103710000Y-81787000D03*
D13*
X107980000Y-76708000D03*
X107020000Y-76708000D03*
D14*
X111057500Y-92037000D03*
X113982500Y-92037000D03*
D15*
X117718000Y-84229000D03*
X117718000Y-85189000D03*
D12*
X99490000Y-83707000D03*
X99490000Y-81807000D03*
D16*
X119763000Y-83058000D03*
X118743000Y-83058000D03*
D17*
X116846000Y-77089000D03*
X117866000Y-77089000D03*
X109680000Y-76757000D03*
X110700000Y-76757000D03*
D11*
X96598000Y-89916000D03*
X93648000Y-89916000D03*
D18*
X121920000Y-72580000D03*
X121920000Y-68580000D03*
D12*
X101590000Y-83687000D03*
X101590000Y-81787000D03*
D15*
X101320000Y-78387000D03*
X101320000Y-79347000D03*
D16*
X119771000Y-79375000D03*
X118751000Y-79375000D03*
D19*
X114935000Y-73198000D03*
X114935000Y-70248000D03*
D13*
X107980000Y-77827000D03*
X107020000Y-77827000D03*
D17*
X116828000Y-81915000D03*
X117848000Y-81915000D03*
D15*
X110970000Y-87107000D03*
X110970000Y-88067000D03*
D20*
X116868000Y-78105000D03*
X117828000Y-78105000D03*
D16*
X117858000Y-83058000D03*
X116838000Y-83058000D03*
D17*
X116838000Y-79375000D03*
X117858000Y-79375000D03*
D21*
X109526562Y-113032000D03*
X109526562Y-113534000D03*
X109526562Y-114036000D03*
X109526562Y-114538000D03*
X109526562Y-115040000D03*
X109526562Y-115542000D03*
X109526562Y-116044000D03*
X109526562Y-116546000D03*
X109526562Y-117048000D03*
X109526562Y-117550000D03*
X109526562Y-118052000D03*
X109526562Y-118554000D03*
X109526562Y-119056000D03*
X109526562Y-119558000D03*
X109526562Y-120060000D03*
X101694562Y-120060000D03*
X101694562Y-119558000D03*
X101694562Y-119056000D03*
X101694562Y-118554000D03*
X101694562Y-118052000D03*
X101694562Y-117550000D03*
X101694562Y-117048000D03*
X101694562Y-116546000D03*
X101694562Y-116044000D03*
X101694562Y-115542000D03*
X101694562Y-115040000D03*
X101694562Y-114538000D03*
X101694562Y-114036000D03*
X101694562Y-113534000D03*
X101694562Y-113032000D03*
D17*
X109670000Y-77817000D03*
X110690000Y-77817000D03*
D11*
X96635000Y-86995000D03*
X93685000Y-86995000D03*
D16*
X119758000Y-80645000D03*
X118738000Y-80645000D03*
D13*
X107960000Y-75565000D03*
X107000000Y-75565000D03*
D17*
X118748000Y-85344000D03*
X119768000Y-85344000D03*
D22*
X118753000Y-78077000D03*
X118753000Y-77117000D03*
D23*
X130810000Y-77939000D03*
X124610000Y-77939000D03*
X130810000Y-88939000D03*
X124610000Y-88939000D03*
D24*
X107775000Y-89082000D03*
X99825000Y-89082000D03*
D11*
X96655000Y-92583000D03*
X93705000Y-92583000D03*
D20*
X111420000Y-86047000D03*
X112380000Y-86047000D03*
D16*
X93590000Y-78337000D03*
X92570000Y-78337000D03*
D25*
X108390000Y-82317000D03*
X112590000Y-82317000D03*
D26*
X109790000Y-82267000D03*
X111190000Y-82267000D03*
X109790000Y-80567000D03*
X111190000Y-80567000D03*
D25*
X108390000Y-80517000D03*
X112590000Y-80517000D03*
D27*
X113240000Y-83917000D03*
X112740000Y-83917000D03*
X112240000Y-83917000D03*
X111740000Y-83917000D03*
X111240000Y-83917000D03*
X110740000Y-83917000D03*
X110240000Y-83917000D03*
X109740000Y-83917000D03*
X109240000Y-83917000D03*
X108740000Y-83917000D03*
X108240000Y-83917000D03*
X107740000Y-83917000D03*
D28*
X106990000Y-83167000D03*
X106990000Y-82667000D03*
X106990000Y-82167000D03*
X106990000Y-81667000D03*
X106990000Y-81167000D03*
X106990000Y-80667000D03*
X106990000Y-80167000D03*
X106990000Y-79667000D03*
D27*
X107740000Y-78917000D03*
X108240000Y-78917000D03*
X108740000Y-78917000D03*
X109240000Y-78917000D03*
X109740000Y-78917000D03*
X110240000Y-78917000D03*
X110740000Y-78917000D03*
X111240000Y-78917000D03*
X111740000Y-78917000D03*
X112240000Y-78917000D03*
X112740000Y-78917000D03*
X113240000Y-78917000D03*
D28*
X113990000Y-79667000D03*
X113990000Y-80167000D03*
X113990000Y-80667000D03*
X113990000Y-81167000D03*
X113990000Y-81667000D03*
X113990000Y-82167000D03*
X113990000Y-82667000D03*
X113990000Y-83167000D03*
D19*
X118237000Y-73198000D03*
X118237000Y-70248000D03*
D16*
X119758000Y-81915000D03*
X118738000Y-81915000D03*
D17*
X116828000Y-80645000D03*
X117848000Y-80645000D03*
D29*
X112880000Y-89687000D03*
X110980000Y-89687000D03*
D16*
X119768000Y-84201000D03*
X118748000Y-84201000D03*
D29*
X108519000Y-74041000D03*
X106619000Y-74041000D03*
M02*
