G04 #@! TF.GenerationSoftware,KiCad,Pcbnew,8.0.4*
G04 #@! TF.CreationDate,2024-12-27T03:35:06+01:00*
G04 #@! TF.ProjectId,nerdaxe-gamma,6e657264-6178-4652-9d67-616d6d612e6b,rev?*
G04 #@! TF.SameCoordinates,Original*
G04 #@! TF.FileFunction,Copper,L1,Top*
G04 #@! TF.FilePolarity,Positive*
%FSLAX46Y46*%
G04 Gerber Fmt 4.6, Leading zero omitted, Abs format (unit mm)*
G04 Created by KiCad (PCBNEW 8.0.4) date 2024-12-27 03:35:06*
%MOMM*%
%LPD*%
G01*
G04 APERTURE LIST*
G04 Aperture macros list*
%AMRoundRect*
0 Rectangle with rounded corners*
0 $1 Rounding radius*
0 $2 $3 $4 $5 $6 $7 $8 $9 X,Y pos of 4 corners*
0 Add a 4 corners polygon primitive as box body*
4,1,4,$2,$3,$4,$5,$6,$7,$8,$9,$2,$3,0*
0 Add four circle primitives for the rounded corners*
1,1,$1+$1,$2,$3*
1,1,$1+$1,$4,$5*
1,1,$1+$1,$6,$7*
1,1,$1+$1,$8,$9*
0 Add four rect primitives between the rounded corners*
20,1,$1+$1,$2,$3,$4,$5,0*
20,1,$1+$1,$4,$5,$6,$7,0*
20,1,$1+$1,$6,$7,$8,$9,0*
20,1,$1+$1,$8,$9,$2,$3,0*%
G04 Aperture macros list end*
G04 #@! TA.AperFunction,SMDPad,CuDef*
%ADD10C,1.500000*%
G04 #@! TD*
G04 #@! TA.AperFunction,ComponentPad*
%ADD11C,1.700000*%
G04 #@! TD*
G04 #@! TA.AperFunction,SMDPad,CuDef*
%ADD12RoundRect,0.135000X0.135000X0.185000X-0.135000X0.185000X-0.135000X-0.185000X0.135000X-0.185000X0*%
G04 #@! TD*
G04 #@! TA.AperFunction,SMDPad,CuDef*
%ADD13RoundRect,0.250000X-1.100000X0.325000X-1.100000X-0.325000X1.100000X-0.325000X1.100000X0.325000X0*%
G04 #@! TD*
G04 #@! TA.AperFunction,SMDPad,CuDef*
%ADD14C,1.000000*%
G04 #@! TD*
G04 #@! TA.AperFunction,SMDPad,CuDef*
%ADD15RoundRect,0.140000X0.140000X0.170000X-0.140000X0.170000X-0.140000X-0.170000X0.140000X-0.170000X0*%
G04 #@! TD*
G04 #@! TA.AperFunction,SMDPad,CuDef*
%ADD16RoundRect,0.140000X0.170000X-0.140000X0.170000X0.140000X-0.170000X0.140000X-0.170000X-0.140000X0*%
G04 #@! TD*
G04 #@! TA.AperFunction,SMDPad,CuDef*
%ADD17RoundRect,0.140000X-0.170000X0.140000X-0.170000X-0.140000X0.170000X-0.140000X0.170000X0.140000X0*%
G04 #@! TD*
G04 #@! TA.AperFunction,SMDPad,CuDef*
%ADD18RoundRect,0.135000X-0.185000X0.135000X-0.185000X-0.135000X0.185000X-0.135000X0.185000X0.135000X0*%
G04 #@! TD*
G04 #@! TA.AperFunction,SMDPad,CuDef*
%ADD19RoundRect,0.150000X-0.512500X-0.150000X0.512500X-0.150000X0.512500X0.150000X-0.512500X0.150000X0*%
G04 #@! TD*
G04 #@! TA.AperFunction,SMDPad,CuDef*
%ADD20R,1.100000X1.300000*%
G04 #@! TD*
G04 #@! TA.AperFunction,SMDPad,CuDef*
%ADD21RoundRect,0.140000X-0.140000X-0.170000X0.140000X-0.170000X0.140000X0.170000X-0.140000X0.170000X0*%
G04 #@! TD*
G04 #@! TA.AperFunction,ComponentPad*
%ADD22C,0.800000*%
G04 #@! TD*
G04 #@! TA.AperFunction,ComponentPad*
%ADD23C,6.000000*%
G04 #@! TD*
G04 #@! TA.AperFunction,SMDPad,CuDef*
%ADD24RoundRect,0.250000X-0.650000X0.325000X-0.650000X-0.325000X0.650000X-0.325000X0.650000X0.325000X0*%
G04 #@! TD*
G04 #@! TA.AperFunction,SMDPad,CuDef*
%ADD25RoundRect,0.135000X0.185000X-0.135000X0.185000X0.135000X-0.185000X0.135000X-0.185000X-0.135000X0*%
G04 #@! TD*
G04 #@! TA.AperFunction,SMDPad,CuDef*
%ADD26R,0.400000X1.100000*%
G04 #@! TD*
G04 #@! TA.AperFunction,SMDPad,CuDef*
%ADD27RoundRect,0.100000X-0.637500X-0.100000X0.637500X-0.100000X0.637500X0.100000X-0.637500X0.100000X0*%
G04 #@! TD*
G04 #@! TA.AperFunction,SMDPad,CuDef*
%ADD28RoundRect,0.135000X-0.135000X-0.185000X0.135000X-0.185000X0.135000X0.185000X-0.135000X0.185000X0*%
G04 #@! TD*
G04 #@! TA.AperFunction,ComponentPad*
%ADD29C,0.400000*%
G04 #@! TD*
G04 #@! TA.AperFunction,ComponentPad*
%ADD30C,1.574800*%
G04 #@! TD*
G04 #@! TA.AperFunction,ViaPad*
%ADD31C,0.500000*%
G04 #@! TD*
G04 #@! TA.AperFunction,ViaPad*
%ADD32C,0.800000*%
G04 #@! TD*
G04 #@! TA.AperFunction,ViaPad*
%ADD33C,1.000000*%
G04 #@! TD*
G04 #@! TA.AperFunction,Conductor*
%ADD34C,0.200000*%
G04 #@! TD*
G04 #@! TA.AperFunction,Conductor*
%ADD35C,0.600000*%
G04 #@! TD*
G04 #@! TA.AperFunction,Conductor*
%ADD36C,0.800000*%
G04 #@! TD*
G04 #@! TA.AperFunction,Conductor*
%ADD37C,0.254000*%
G04 #@! TD*
G04 #@! TA.AperFunction,Conductor*
%ADD38C,0.508000*%
G04 #@! TD*
G04 APERTURE END LIST*
D10*
X128270000Y-88011000D03*
X128397000Y-79121000D03*
D11*
X84250000Y-49022000D03*
X86790000Y-49022000D03*
X89330000Y-49022000D03*
X91870000Y-49022000D03*
X94410000Y-49022000D03*
X96950000Y-49022000D03*
X99490000Y-49022000D03*
X102030000Y-49022000D03*
X104570000Y-49022000D03*
X107110000Y-49022000D03*
X109650000Y-49022000D03*
X112190000Y-49022000D03*
X112190000Y-71942000D03*
X109650000Y-71942000D03*
X107110000Y-71942000D03*
X104570000Y-71942000D03*
X102030000Y-71942000D03*
X99490000Y-71942000D03*
X96950000Y-71942000D03*
X94410000Y-71942000D03*
X91870000Y-71942000D03*
X89330000Y-71942000D03*
X86790000Y-71942000D03*
X84250000Y-71942000D03*
D12*
X122010000Y-103710000D03*
X120990000Y-103710000D03*
D13*
X108458000Y-141781000D03*
X108458000Y-144731000D03*
D10*
X114860000Y-134280000D03*
D14*
X125270000Y-50310000D03*
X132260000Y-139060000D03*
X78850000Y-139070000D03*
D15*
X101570000Y-103154000D03*
X100610000Y-103154000D03*
D10*
X122860000Y-121970000D03*
X120820000Y-119010000D03*
D16*
X100655438Y-122810000D03*
X100655438Y-121850000D03*
D17*
X108072400Y-104360000D03*
X108072400Y-105320000D03*
D18*
X94520000Y-123850000D03*
X94520000Y-124870000D03*
D15*
X99161000Y-108024000D03*
X98201000Y-108024000D03*
D17*
X102110000Y-104360000D03*
X102110000Y-105320000D03*
D19*
X101392500Y-129520000D03*
X101392500Y-130470000D03*
X101392500Y-131420000D03*
X103667500Y-131420000D03*
X103667500Y-129520000D03*
D10*
X110990000Y-96640000D03*
X101144000Y-140268000D03*
X96280000Y-123890000D03*
X97834000Y-140298000D03*
X87080000Y-118492000D03*
X103505000Y-93853000D03*
D16*
X99525438Y-122820000D03*
X99525438Y-121860000D03*
X112140000Y-122790000D03*
X112140000Y-121830000D03*
D20*
X115680000Y-126370000D03*
X115680000Y-124070000D03*
X113780000Y-124070000D03*
X113780000Y-126370000D03*
D21*
X101940000Y-132840000D03*
X102900000Y-132840000D03*
D22*
X130250000Y-51120990D03*
X130909010Y-49530000D03*
X130909010Y-52711980D03*
X132500000Y-48870990D03*
D23*
X132500000Y-51120990D03*
D22*
X132500000Y-53370990D03*
X134090990Y-49530000D03*
X134090990Y-52711980D03*
X134750000Y-51120990D03*
D10*
X107315000Y-93853000D03*
D15*
X115270000Y-128010000D03*
X114310000Y-128010000D03*
D14*
X78750000Y-55900000D03*
D10*
X110990000Y-99610000D03*
D12*
X123720000Y-118980000D03*
X122700000Y-118980000D03*
D10*
X91650000Y-123880000D03*
D24*
X105670000Y-103375000D03*
X105670000Y-106325000D03*
D10*
X119550000Y-108280000D03*
X118520000Y-122760000D03*
D25*
X106174000Y-141148000D03*
X106174000Y-140128000D03*
D26*
X94870000Y-127840000D03*
X94220000Y-127840000D03*
X93570000Y-127840000D03*
X92920000Y-127840000D03*
X92920000Y-132140000D03*
X93570000Y-132140000D03*
X94220000Y-132140000D03*
X94870000Y-132140000D03*
D10*
X87080000Y-112616000D03*
D19*
X109843500Y-129279000D03*
X109843500Y-130229000D03*
X109843500Y-131179000D03*
X112118500Y-131179000D03*
X112118500Y-129279000D03*
D22*
X130250000Y-143728000D03*
X130909010Y-142137010D03*
X130909010Y-145318990D03*
X132500000Y-141478000D03*
D23*
X132500000Y-143728000D03*
D22*
X132500000Y-145978000D03*
X134090990Y-142137010D03*
X134090990Y-145318990D03*
X134750000Y-143728000D03*
D17*
X122930000Y-100640000D03*
X122930000Y-101600000D03*
X103240000Y-104360000D03*
X103240000Y-105320000D03*
D18*
X120380000Y-112750000D03*
X120380000Y-113770000D03*
D10*
X122860000Y-113980000D03*
X89860000Y-120480000D03*
D22*
X80750000Y-143855000D03*
X80090990Y-145445990D03*
X80090990Y-142264010D03*
X78500000Y-146105000D03*
D23*
X78500000Y-143855000D03*
D22*
X78500000Y-141605000D03*
X76909010Y-145445990D03*
X76909010Y-142264010D03*
X76250000Y-143855000D03*
D17*
X104734000Y-140138000D03*
X104734000Y-141098000D03*
D15*
X98090000Y-109925000D03*
X97130000Y-109925000D03*
X114410000Y-109860000D03*
X113450000Y-109860000D03*
D27*
X115427500Y-97855000D03*
X115427500Y-98505000D03*
X115427500Y-99155000D03*
X115427500Y-99805000D03*
X115427500Y-100455000D03*
X115427500Y-101105000D03*
X115427500Y-101755000D03*
X115427500Y-102405000D03*
X121152500Y-102405000D03*
X121152500Y-101755000D03*
X121152500Y-101105000D03*
X121152500Y-100455000D03*
X121152500Y-99805000D03*
X121152500Y-99155000D03*
X121152500Y-98505000D03*
X121152500Y-97855000D03*
D28*
X93560000Y-135710000D03*
X94580000Y-135710000D03*
D15*
X112010000Y-106266000D03*
X111050000Y-106266000D03*
D25*
X93380000Y-124870000D03*
X93380000Y-123850000D03*
D21*
X110481000Y-132739000D03*
X111441000Y-132739000D03*
D15*
X124270000Y-103110000D03*
X123310000Y-103110000D03*
D16*
X111000000Y-122790000D03*
X111000000Y-121830000D03*
D22*
X76250000Y-51054000D03*
X76909010Y-49463010D03*
X76909010Y-52644990D03*
X78500000Y-48804000D03*
D23*
X78500000Y-51054000D03*
D22*
X78500000Y-53304000D03*
X80090990Y-49463010D03*
X80090990Y-52644990D03*
X80750000Y-51054000D03*
D17*
X109190000Y-104360000D03*
X109190000Y-105320000D03*
D12*
X123720000Y-116220000D03*
X122700000Y-116220000D03*
D15*
X110695000Y-103146000D03*
X109735000Y-103146000D03*
D10*
X106360000Y-134230000D03*
X120900000Y-116060000D03*
X89890000Y-114520000D03*
D29*
X109090000Y-80137000D03*
X110490000Y-80137000D03*
X111890000Y-80137000D03*
X108090000Y-81417000D03*
X109090000Y-81417000D03*
X110490000Y-81417000D03*
X111890000Y-81417000D03*
X112890000Y-81417000D03*
X109090000Y-82697000D03*
X110490000Y-82697000D03*
X111890000Y-82697000D03*
D15*
X94440000Y-125940000D03*
X93480000Y-125940000D03*
X113310000Y-108026000D03*
X112350000Y-108026000D03*
X105574000Y-137528000D03*
X104614000Y-137528000D03*
D10*
X87080000Y-115554000D03*
X89890000Y-117310000D03*
D17*
X114240000Y-129540000D03*
X114240000Y-130500000D03*
D15*
X100441000Y-106284000D03*
X99481000Y-106284000D03*
D17*
X105750000Y-129990000D03*
X105750000Y-130950000D03*
D30*
X96382400Y-143240851D03*
X98922400Y-143240851D03*
X101462400Y-143240851D03*
X104002400Y-143240851D03*
D31*
X117602000Y-78232000D03*
X117602000Y-79502000D03*
X117602000Y-80772000D03*
X106426000Y-144780000D03*
X91440000Y-52705000D03*
X98679000Y-75184000D03*
X100838000Y-74422000D03*
X86614000Y-78994000D03*
X114935000Y-84328000D03*
X115443000Y-85090000D03*
X96635000Y-88380000D03*
X119761000Y-86106000D03*
X126619000Y-89154000D03*
X126619000Y-78486000D03*
X120523000Y-84074000D03*
X120142000Y-82550000D03*
X124079000Y-74549000D03*
D32*
X105664000Y-76835000D03*
D31*
X117483000Y-82296000D03*
D32*
X105610000Y-116830000D03*
X112180000Y-119260000D03*
X113580000Y-132650000D03*
X98050000Y-114260000D03*
X104490000Y-118700000D03*
D33*
X119126000Y-68802000D03*
D32*
X112180000Y-120800000D03*
X106740000Y-119930000D03*
D33*
X113665000Y-68802000D03*
D32*
X106740000Y-118720000D03*
X104640000Y-130470000D03*
X105540000Y-132550000D03*
D33*
X115005332Y-67405000D03*
D32*
X116770000Y-124080000D03*
X106740000Y-117780000D03*
X104490000Y-117760000D03*
X105630000Y-118700000D03*
D33*
X92202000Y-88519000D03*
D32*
X115260000Y-109040000D03*
X123750000Y-117530000D03*
D33*
X92202000Y-93599000D03*
D32*
X106740000Y-116860000D03*
X105620000Y-82057000D03*
X103604000Y-137538000D03*
X116050000Y-128010000D03*
D33*
X92202000Y-91059000D03*
D32*
X104490000Y-119910000D03*
D33*
X117729000Y-68802000D03*
D32*
X112980000Y-114270000D03*
X105537000Y-75438000D03*
X112280000Y-93737000D03*
X117090000Y-100360000D03*
D33*
X117729000Y-67405000D03*
D32*
X121580000Y-112400000D03*
D33*
X92210000Y-83058000D03*
X113665000Y-67405000D03*
D32*
X122640000Y-102460000D03*
X103604000Y-141088000D03*
X113180000Y-130220000D03*
X119280000Y-103505000D03*
X99370000Y-119240000D03*
D33*
X116372000Y-68805000D03*
X119126000Y-67405000D03*
D32*
X123710000Y-120230000D03*
X96600000Y-108920000D03*
X104490000Y-115746000D03*
X103580000Y-80447000D03*
X105610000Y-80457000D03*
X104648000Y-74168000D03*
X98440000Y-121490000D03*
X92680000Y-133370000D03*
X104490000Y-116840000D03*
X99510000Y-80427000D03*
D33*
X115045332Y-68805000D03*
X92202000Y-85725000D03*
D32*
X106740000Y-115766000D03*
X116990000Y-98200000D03*
D33*
X116332000Y-67405000D03*
D32*
X101500000Y-80427000D03*
X105610000Y-78747000D03*
X107569000Y-99060000D03*
X102489000Y-97790000D03*
X105029000Y-101600000D03*
X102489000Y-100330000D03*
X108839000Y-101600000D03*
X106299000Y-100330000D03*
X106299000Y-99060000D03*
X103759000Y-97790000D03*
X103759000Y-100330000D03*
D31*
X104290000Y-84847000D03*
D32*
X102489000Y-101600000D03*
X103759000Y-102870000D03*
X105029000Y-100330000D03*
X108839000Y-100330000D03*
X102489000Y-99060000D03*
X107569000Y-101600000D03*
X106299000Y-101600000D03*
X107569000Y-102870000D03*
X108839000Y-99060000D03*
X107569000Y-100330000D03*
X105029000Y-97790000D03*
X108839000Y-97790000D03*
X107569000Y-97790000D03*
X103759000Y-101600000D03*
X108839000Y-102870000D03*
X105029000Y-99060000D03*
X102489000Y-102870000D03*
X103759000Y-99060000D03*
X106299000Y-97790000D03*
X108290000Y-131179000D03*
X99710000Y-131420000D03*
X108077000Y-139836400D03*
X91910000Y-78347000D03*
X95550000Y-135970000D03*
X122930000Y-99700000D03*
X95560000Y-126330000D03*
D31*
X94317599Y-134229617D03*
X112380000Y-86807000D03*
X111500000Y-77937000D03*
X101250000Y-77567000D03*
X114300000Y-86487000D03*
X94660000Y-78317000D03*
X94340000Y-133580000D03*
D32*
X100770000Y-123700000D03*
X99180000Y-123710000D03*
D31*
X119430000Y-116250000D03*
X119420000Y-118020000D03*
X124540000Y-121820000D03*
X92180000Y-119960000D03*
X92940000Y-119930000D03*
X114515000Y-81667000D03*
X110740000Y-85377000D03*
D32*
X113470000Y-111290000D03*
X110950000Y-124990000D03*
X124600000Y-101830000D03*
X116205000Y-103505000D03*
X110970000Y-123700000D03*
X112390000Y-109350000D03*
X111030000Y-107870000D03*
X100553800Y-107457400D03*
X99360000Y-109210000D03*
X98140000Y-111060000D03*
D31*
X119420000Y-114790000D03*
X113800000Y-98950000D03*
X113770000Y-99770000D03*
X113830000Y-100500000D03*
X118320000Y-108370000D03*
X118740000Y-113660000D03*
X92480000Y-112210000D03*
X92480000Y-113611428D03*
X92480000Y-115012856D03*
X92480000Y-116414284D03*
X92480000Y-117815712D03*
X91400000Y-120430000D03*
D34*
X117475000Y-79629000D02*
X117602000Y-79502000D01*
X117475000Y-78359000D02*
X117475000Y-79375000D01*
X117602000Y-78232000D02*
X117475000Y-78359000D01*
X117475000Y-79375000D02*
X117602000Y-79502000D01*
X117475000Y-80645000D02*
X117602000Y-80772000D01*
X117475000Y-79629000D02*
X117475000Y-80645000D01*
X117483000Y-80891000D02*
X117602000Y-80772000D01*
X117483000Y-82296000D02*
X117483000Y-80891000D01*
X100203000Y-76708000D02*
X98679000Y-75184000D01*
X104267000Y-76708000D02*
X100203000Y-76708000D01*
X106680000Y-77597000D02*
X105156000Y-77597000D01*
X106934000Y-77343000D02*
X106680000Y-77597000D01*
X117856000Y-77343000D02*
X106934000Y-77343000D01*
X118237000Y-77724000D02*
X117856000Y-77343000D01*
X117602000Y-83439000D02*
X118237000Y-82804000D01*
X105156000Y-77597000D02*
X104267000Y-76708000D01*
X117094000Y-83439000D02*
X117602000Y-83439000D01*
X118237000Y-82804000D02*
X118237000Y-77724000D01*
X115443000Y-85090000D02*
X117094000Y-83439000D01*
X102489000Y-76073000D02*
X100838000Y-74422000D01*
X106426000Y-76073000D02*
X102489000Y-76073000D01*
X107188000Y-76835000D02*
X106426000Y-76073000D01*
X118237000Y-76835000D02*
X107188000Y-76835000D01*
X118872000Y-83185000D02*
X118872000Y-77470000D01*
X117221000Y-84201000D02*
X117856000Y-84201000D01*
X115824000Y-85598000D02*
X117221000Y-84201000D01*
X115189000Y-85598000D02*
X115824000Y-85598000D01*
X114935000Y-85344000D02*
X115189000Y-85598000D01*
X117856000Y-84201000D02*
X118872000Y-83185000D01*
X118872000Y-77470000D02*
X118237000Y-76835000D01*
X114935000Y-84328000D02*
X114935000Y-85344000D01*
D35*
X108458000Y-140217400D02*
X108077000Y-139836400D01*
X108458000Y-141781000D02*
X108458000Y-140217400D01*
D34*
X106475000Y-144731000D02*
X106426000Y-144780000D01*
D36*
X108458000Y-144731000D02*
X106475000Y-144731000D01*
D34*
X112695000Y-87122000D02*
X112380000Y-86807000D01*
X116078000Y-87122000D02*
X112695000Y-87122000D01*
X120396000Y-85471000D02*
X117729000Y-85471000D01*
X120142000Y-82550000D02*
X121158000Y-83566000D01*
X121158000Y-84709000D02*
X120396000Y-85471000D01*
X121158000Y-83566000D02*
X121158000Y-84709000D01*
X117729000Y-85471000D02*
X116078000Y-87122000D01*
X89330000Y-50595000D02*
X89330000Y-49022000D01*
X91440000Y-52705000D02*
X89330000Y-50595000D01*
X86614000Y-80010000D02*
X86614000Y-78994000D01*
X91186000Y-84582000D02*
X86614000Y-80010000D01*
D37*
X118872000Y-98679000D02*
X119998000Y-99805000D01*
X118872000Y-92329000D02*
X118872000Y-98679000D01*
X111252000Y-88646000D02*
X115189000Y-88646000D01*
X119998000Y-99805000D02*
X121152500Y-99805000D01*
X109982000Y-87376000D02*
X111252000Y-88646000D01*
X98933000Y-87376000D02*
X109982000Y-87376000D01*
X95885000Y-84328000D02*
X98933000Y-87376000D01*
X82423000Y-72898000D02*
X89662000Y-80137000D01*
X115189000Y-88646000D02*
X118872000Y-92329000D01*
X82423000Y-65659000D02*
X82423000Y-72898000D01*
X95885000Y-81788000D02*
X95885000Y-84328000D01*
X96950000Y-51132000D02*
X82423000Y-65659000D01*
X94234000Y-80137000D02*
X95885000Y-81788000D01*
X89662000Y-80137000D02*
X94234000Y-80137000D01*
X96950000Y-49022000D02*
X96950000Y-51132000D01*
D34*
X96635000Y-87618000D02*
X96635000Y-88380000D01*
X93599000Y-84582000D02*
X96635000Y-87618000D01*
X91186000Y-84582000D02*
X93599000Y-84582000D01*
D37*
X119886000Y-100455000D02*
X121152500Y-100455000D01*
X118364000Y-92583000D02*
X118364000Y-98933000D01*
X118364000Y-98933000D02*
X119886000Y-100455000D01*
X114935000Y-89154000D02*
X118364000Y-92583000D01*
X109728000Y-87884000D02*
X110998000Y-89154000D01*
X110998000Y-89154000D02*
X114935000Y-89154000D01*
X98679000Y-87884000D02*
X109728000Y-87884000D01*
X95377000Y-82296000D02*
X95377000Y-84582000D01*
X93853000Y-80772000D02*
X95377000Y-82296000D01*
X89408000Y-80772000D02*
X93853000Y-80772000D01*
X95377000Y-84582000D02*
X98679000Y-87884000D01*
X81788000Y-73152000D02*
X89408000Y-80772000D01*
X94410000Y-52910000D02*
X81788000Y-65532000D01*
X81788000Y-65532000D02*
X81788000Y-73152000D01*
X94410000Y-49022000D02*
X94410000Y-52910000D01*
X86790000Y-75106000D02*
X86790000Y-71942000D01*
X90932000Y-79248000D02*
X86790000Y-75106000D01*
X94488000Y-79248000D02*
X90932000Y-79248000D01*
X96393000Y-84074000D02*
X96393000Y-81153000D01*
X98933000Y-86614000D02*
X96393000Y-84074000D01*
X111252000Y-87757000D02*
X110109000Y-86614000D01*
X115316000Y-87757000D02*
X111252000Y-87757000D01*
X96393000Y-81153000D02*
X94488000Y-79248000D01*
X110109000Y-86614000D02*
X98933000Y-86614000D01*
X119507000Y-98487000D02*
X119507000Y-91948000D01*
X120175000Y-99155000D02*
X119507000Y-98487000D01*
X119507000Y-91948000D02*
X115316000Y-87757000D01*
X121152500Y-99155000D02*
X120175000Y-99155000D01*
D34*
X105250000Y-85377000D02*
X110740000Y-85377000D01*
X99314000Y-85471000D02*
X105156000Y-85471000D01*
X97536000Y-83693000D02*
X99314000Y-85471000D01*
X96520000Y-77470000D02*
X97536000Y-78486000D01*
X98171000Y-74295000D02*
X96520000Y-75946000D01*
X105156000Y-85471000D02*
X105250000Y-85377000D01*
X99677000Y-74295000D02*
X98171000Y-74295000D01*
X96520000Y-75946000D02*
X96520000Y-77470000D01*
X97536000Y-78486000D02*
X97536000Y-83693000D01*
X102030000Y-71942000D02*
X99677000Y-74295000D01*
X96950000Y-74373000D02*
X96950000Y-71942000D01*
X94660000Y-76663000D02*
X96950000Y-74373000D01*
X94660000Y-78317000D02*
X94660000Y-76663000D01*
X120523000Y-84328000D02*
X120523000Y-84074000D01*
X120064000Y-84787000D02*
X120523000Y-84328000D01*
X115824000Y-86233000D02*
X117270000Y-84787000D01*
X114980527Y-86233000D02*
X115824000Y-86233000D01*
X114552927Y-85805400D02*
X114980527Y-86233000D01*
X112008400Y-85805400D02*
X114552927Y-85805400D01*
X111030000Y-84827000D02*
X112008400Y-85805400D01*
X117270000Y-84787000D02*
X120064000Y-84787000D01*
X104310000Y-84827000D02*
X111030000Y-84827000D01*
X104290000Y-84847000D02*
X104310000Y-84827000D01*
X96224000Y-78317000D02*
X94660000Y-78317000D01*
X97028000Y-79121000D02*
X96224000Y-78317000D01*
X97028000Y-83947000D02*
X97028000Y-79121000D01*
X99060000Y-85979000D02*
X97028000Y-83947000D01*
X110552000Y-85979000D02*
X99060000Y-85979000D01*
X114300000Y-86487000D02*
X114046000Y-86233000D01*
X114046000Y-86233000D02*
X110806000Y-86233000D01*
X110806000Y-86233000D02*
X110552000Y-85979000D01*
X127127000Y-89154000D02*
X126619000Y-89154000D01*
X128270000Y-88011000D02*
X127127000Y-89154000D01*
X127254000Y-79121000D02*
X126619000Y-78486000D01*
X128397000Y-79121000D02*
X127254000Y-79121000D01*
X112164000Y-93853000D02*
X112280000Y-93737000D01*
X107315000Y-93853000D02*
X112164000Y-93853000D01*
X103505000Y-97536000D02*
X103759000Y-97790000D01*
X103505000Y-93853000D02*
X103505000Y-97536000D01*
D37*
X101462400Y-140516400D02*
X101462400Y-143240851D01*
X101104000Y-140158000D02*
X101462400Y-140516400D01*
X108077000Y-139836400D02*
X108077000Y-139571000D01*
X108077000Y-139571000D02*
X106034000Y-137528000D01*
X108077000Y-139836400D02*
X106465600Y-139836400D01*
X106034000Y-137528000D02*
X105574000Y-137528000D01*
X106465600Y-139836400D02*
X106174000Y-140128000D01*
D34*
X102971251Y-144272000D02*
X104002400Y-143240851D01*
X100203000Y-143637000D02*
X100838000Y-144272000D01*
X100203000Y-142667000D02*
X100203000Y-143637000D01*
X100838000Y-144272000D02*
X102971251Y-144272000D01*
X97834000Y-140298000D02*
X100203000Y-142667000D01*
X105425149Y-143240851D02*
X104002400Y-143240851D01*
X106174000Y-141148000D02*
X106174000Y-142492000D01*
X106174000Y-142492000D02*
X105425149Y-143240851D01*
X90900000Y-136620000D02*
X90900000Y-136398000D01*
X97834000Y-140298000D02*
X94578000Y-140298000D01*
D37*
X90900000Y-136398000D02*
X90900000Y-131800000D01*
D34*
X94578000Y-140298000D02*
X90900000Y-136620000D01*
D37*
X101144000Y-139117000D02*
X101144000Y-140268000D01*
X94361000Y-138049000D02*
X100076000Y-138049000D01*
X93560000Y-137248000D02*
X94361000Y-138049000D01*
X100076000Y-138049000D02*
X101144000Y-139117000D01*
X93560000Y-135710000D02*
X93560000Y-137248000D01*
X93570000Y-132140000D02*
X93570000Y-135700000D01*
X93570000Y-135700000D02*
X93560000Y-135710000D01*
X93570000Y-132140000D02*
X93599000Y-132169000D01*
D34*
X117483000Y-82296000D02*
X116144000Y-82296000D01*
X115509000Y-81661000D02*
X114521000Y-81661000D01*
X116144000Y-82296000D02*
X115509000Y-81661000D01*
X114521000Y-81661000D02*
X114515000Y-81667000D01*
D37*
X104734000Y-141098000D02*
X103614000Y-141098000D01*
X123310000Y-103110000D02*
X123290000Y-103110000D01*
X123720000Y-116220000D02*
X123720000Y-117500000D01*
D38*
X115690000Y-124080000D02*
X115680000Y-124070000D01*
D37*
X121230000Y-112750000D02*
X121580000Y-112400000D01*
D38*
X101392500Y-130470000D02*
X104640000Y-130470000D01*
D37*
X116050000Y-128010000D02*
X115440000Y-128010000D01*
X120380000Y-112750000D02*
X121230000Y-112750000D01*
X116685000Y-98505000D02*
X116990000Y-98200000D01*
X123720000Y-120220000D02*
X123710000Y-120230000D01*
X122010000Y-103710000D02*
X122010000Y-103090000D01*
X123290000Y-103110000D02*
X122640000Y-102460000D01*
X115427500Y-98505000D02*
X116685000Y-98505000D01*
X111441000Y-132739000D02*
X113491000Y-132739000D01*
X102900000Y-132840000D02*
X105250000Y-132840000D01*
D38*
X109852500Y-130220000D02*
X109843500Y-130229000D01*
D37*
X103614000Y-141098000D02*
X103604000Y-141088000D01*
X115427500Y-97855000D02*
X116645000Y-97855000D01*
X115427500Y-101105000D02*
X116345000Y-101105000D01*
X92920000Y-133130000D02*
X92680000Y-133370000D01*
X114240000Y-131990000D02*
X113580000Y-132650000D01*
X123720000Y-118980000D02*
X123720000Y-120220000D01*
X105250000Y-132840000D02*
X105540000Y-132550000D01*
X114240000Y-130500000D02*
X114240000Y-131990000D01*
X113491000Y-132739000D02*
X113580000Y-132650000D01*
X115422500Y-101110000D02*
X115427500Y-101105000D01*
X122930000Y-101600000D02*
X122930000Y-102170000D01*
X122010000Y-103090000D02*
X122640000Y-102460000D01*
X105750000Y-132340000D02*
X105540000Y-132550000D01*
D34*
X109175000Y-105690000D02*
X109060000Y-105690000D01*
D37*
X119280000Y-103505000D02*
X119280000Y-102250000D01*
X104604000Y-137538000D02*
X104614000Y-137528000D01*
X119280000Y-102250000D02*
X119775000Y-101755000D01*
D38*
X113180000Y-130220000D02*
X109852500Y-130220000D01*
D37*
X119775000Y-101755000D02*
X121152500Y-101755000D01*
X116645000Y-97855000D02*
X116990000Y-98200000D01*
X92920000Y-132140000D02*
X92920000Y-133130000D01*
X122930000Y-102170000D02*
X122640000Y-102460000D01*
X105750000Y-130950000D02*
X105750000Y-132340000D01*
D38*
X116770000Y-124080000D02*
X115690000Y-124080000D01*
D37*
X123720000Y-117500000D02*
X123750000Y-117530000D01*
X103604000Y-137538000D02*
X104604000Y-137538000D01*
X116345000Y-101105000D02*
X117090000Y-100360000D01*
D38*
X99710000Y-130060000D02*
X100250000Y-129520000D01*
D37*
X109843500Y-132443500D02*
X109843500Y-131179000D01*
D38*
X99710000Y-131420000D02*
X99710000Y-130060000D01*
D37*
X101690000Y-132840000D02*
X101392500Y-132542500D01*
D38*
X99710000Y-131420000D02*
X101392500Y-131420000D01*
D37*
X104734000Y-140138000D02*
X106164000Y-140138000D01*
X110481000Y-132739000D02*
X110139000Y-132739000D01*
X106164000Y-140138000D02*
X106174000Y-140128000D01*
D38*
X100250000Y-129520000D02*
X101392500Y-129520000D01*
D37*
X101392500Y-132542500D02*
X101392500Y-131420000D01*
D38*
X108290000Y-131179000D02*
X108290000Y-129730000D01*
D37*
X101940000Y-132840000D02*
X101690000Y-132840000D01*
D38*
X108290000Y-129730000D02*
X108741000Y-129279000D01*
D37*
X110139000Y-132739000D02*
X109843500Y-132443500D01*
D38*
X108290000Y-131179000D02*
X109843500Y-131179000D01*
X108741000Y-129279000D02*
X109843500Y-129279000D01*
D37*
X94870000Y-127840000D02*
X94870000Y-127020000D01*
X122095000Y-98505000D02*
X122930000Y-99340000D01*
X121152500Y-98505000D02*
X122095000Y-98505000D01*
X94870000Y-127020000D02*
X95560000Y-126330000D01*
X95550000Y-135970000D02*
X95290000Y-135710000D01*
X122930000Y-99340000D02*
X122930000Y-99700000D01*
X122930000Y-100640000D02*
X122930000Y-99700000D01*
X95290000Y-135710000D02*
X94580000Y-135710000D01*
D34*
X94397490Y-134229617D02*
X94317599Y-134229617D01*
X94870000Y-133757107D02*
X94397490Y-134229617D01*
X94870000Y-132140000D02*
X94870000Y-133757107D01*
D37*
X97334000Y-140298000D02*
X97384000Y-140348000D01*
X90900000Y-131800000D02*
X92920000Y-129780000D01*
X92920000Y-129780000D02*
X92920000Y-127840000D01*
D34*
X111440000Y-77997000D02*
X111500000Y-77937000D01*
X101680000Y-77997000D02*
X111440000Y-77997000D01*
X101250000Y-77567000D02*
X101680000Y-77997000D01*
X94220000Y-133460000D02*
X94340000Y-133580000D01*
X94220000Y-132140000D02*
X94220000Y-133460000D01*
D37*
X100770000Y-122924562D02*
X100655438Y-122810000D01*
X100770000Y-123700000D02*
X100770000Y-122924562D01*
X99525438Y-123364562D02*
X99525438Y-122820000D01*
X99180000Y-123710000D02*
X99525438Y-123364562D01*
X119430000Y-116250000D02*
X122670000Y-116250000D01*
X122670000Y-116250000D02*
X122700000Y-116220000D01*
X120100000Y-118020000D02*
X121060000Y-118980000D01*
X121060000Y-118980000D02*
X122700000Y-118980000D01*
X119420000Y-118020000D02*
X120100000Y-118020000D01*
X120990000Y-102567500D02*
X121152500Y-102405000D01*
X120990000Y-103710000D02*
X120990000Y-102567500D01*
X123010000Y-121820000D02*
X122860000Y-121970000D01*
X124540000Y-121820000D02*
X123010000Y-121820000D01*
D34*
X91650000Y-123880000D02*
X93350000Y-123880000D01*
X93350000Y-123880000D02*
X93380000Y-123850000D01*
X92180000Y-119960000D02*
X92180000Y-121400000D01*
X92180000Y-121400000D02*
X93380000Y-122600000D01*
X93380000Y-122600000D02*
X93380000Y-123850000D01*
X96280000Y-123890000D02*
X94560000Y-123890000D01*
X92940000Y-120830000D02*
X94520000Y-122410000D01*
X94560000Y-123890000D02*
X94520000Y-123850000D01*
X92940000Y-119930000D02*
X92940000Y-120830000D01*
X94520000Y-122410000D02*
X94520000Y-123850000D01*
X94520000Y-125860000D02*
X94440000Y-125940000D01*
X94220000Y-126160000D02*
X94440000Y-125940000D01*
X94220000Y-127840000D02*
X94220000Y-126160000D01*
X94520000Y-124870000D02*
X94520000Y-125860000D01*
X93380000Y-124870000D02*
X93380000Y-125840000D01*
X93380000Y-125840000D02*
X93480000Y-125940000D01*
X93570000Y-127840000D02*
X93570000Y-126030000D01*
X93570000Y-126030000D02*
X93480000Y-125940000D01*
D37*
X113470000Y-109880000D02*
X113450000Y-109860000D01*
X113310000Y-108026000D02*
X113390000Y-108026000D01*
X113470000Y-111290000D02*
X113470000Y-109880000D01*
X113480000Y-109886000D02*
X113480000Y-108026000D01*
D38*
X112140000Y-124170000D02*
X112140000Y-122790000D01*
X112118500Y-126360000D02*
X112128500Y-126370000D01*
X114140000Y-128010000D02*
X113790000Y-127660000D01*
D37*
X114240000Y-129540000D02*
X114860000Y-130160000D01*
X110970000Y-124970000D02*
X111900000Y-124970000D01*
D38*
X112118500Y-124191500D02*
X112118500Y-126360000D01*
X112140000Y-124170000D02*
X112118500Y-124191500D01*
X124600000Y-101830000D02*
X124600000Y-100060000D01*
X124600000Y-100060000D02*
X122395000Y-97855000D01*
D37*
X116205000Y-103505000D02*
X116205000Y-103182500D01*
D38*
X122395000Y-97855000D02*
X121152500Y-97855000D01*
X113790000Y-127660000D02*
X113790000Y-126380000D01*
X124600000Y-112040000D02*
X124600000Y-101830000D01*
D37*
X114240000Y-129540000D02*
X113720000Y-129540000D01*
X114860000Y-130160000D02*
X114860000Y-134280000D01*
D38*
X113790000Y-126380000D02*
X113780000Y-126370000D01*
X112128500Y-126370000D02*
X113780000Y-126370000D01*
D37*
X113459000Y-129279000D02*
X112118500Y-129279000D01*
D38*
X125900000Y-113340000D02*
X124600000Y-112040000D01*
D37*
X111900000Y-124970000D02*
X112140000Y-124730000D01*
D38*
X125900000Y-123480000D02*
X125900000Y-113340000D01*
X122980000Y-126400000D02*
X125900000Y-123480000D01*
D37*
X110950000Y-124990000D02*
X110970000Y-124970000D01*
X113720000Y-129540000D02*
X113459000Y-129279000D01*
D38*
X112118500Y-126360000D02*
X112118500Y-129279000D01*
X114220000Y-126400000D02*
X122980000Y-126400000D01*
D37*
X115427500Y-101755000D02*
X115427500Y-102405000D01*
X116205000Y-103182500D02*
X115427500Y-102405000D01*
X103667500Y-129520000D02*
X103667500Y-127202500D01*
X110970000Y-123700000D02*
X110970000Y-123440000D01*
X103667500Y-127202500D02*
X107100000Y-123770000D01*
X105750000Y-129990000D02*
X106360000Y-130600000D01*
X105750000Y-129990000D02*
X105280000Y-129520000D01*
X106360000Y-130600000D02*
X106360000Y-134230000D01*
X107100000Y-123770000D02*
X110900000Y-123770000D01*
X111000000Y-123410000D02*
X111000000Y-122790000D01*
X110970000Y-123440000D02*
X111000000Y-123410000D01*
X110900000Y-123770000D02*
X110970000Y-123700000D01*
X105280000Y-129520000D02*
X103667500Y-129520000D01*
X112390000Y-108236000D02*
X112180000Y-108026000D01*
X112180000Y-108026000D02*
X112180000Y-106266000D01*
X112390000Y-109350000D02*
X112390000Y-108236000D01*
X111990000Y-106246000D02*
X112010000Y-106266000D01*
X111030000Y-106286000D02*
X111050000Y-106266000D01*
X110890000Y-103341000D02*
X110695000Y-103146000D01*
X111030000Y-107870000D02*
X111030000Y-106286000D01*
X110890000Y-106106000D02*
X110890000Y-103341000D01*
X111050000Y-106266000D02*
X110890000Y-106106000D01*
X100611000Y-107400200D02*
X100611000Y-106284000D01*
X100553800Y-107457400D02*
X100611000Y-107400200D01*
X100600000Y-106125000D02*
X100441000Y-106284000D01*
X100600000Y-103164000D02*
X100600000Y-106125000D01*
X100610000Y-103154000D02*
X100600000Y-103164000D01*
X99481000Y-107704000D02*
X99161000Y-108024000D01*
X99360000Y-109210000D02*
X99360000Y-108053000D01*
X99481000Y-106284000D02*
X99481000Y-107704000D01*
X99360000Y-108053000D02*
X99331000Y-108024000D01*
X98081000Y-109974000D02*
X98031000Y-109924000D01*
X98140000Y-109975000D02*
X98125000Y-109960000D01*
X98031000Y-109924000D02*
X98031000Y-108024000D01*
X98140000Y-111060000D02*
X98140000Y-109975000D01*
X119420000Y-114790000D02*
X120230000Y-113980000D01*
X120230000Y-113980000D02*
X122860000Y-113980000D01*
D34*
X113800000Y-98950000D02*
X113300000Y-98950000D01*
D37*
X113800000Y-98950000D02*
X113670000Y-98950000D01*
D34*
X114005000Y-99155000D02*
X113800000Y-98950000D01*
X115427500Y-99155000D02*
X114005000Y-99155000D01*
X113300000Y-98950000D02*
X110990000Y-96640000D01*
X113805000Y-99805000D02*
X113770000Y-99770000D01*
X113770000Y-99770000D02*
X113610000Y-99610000D01*
X115427500Y-99805000D02*
X113805000Y-99805000D01*
X113610000Y-99610000D02*
X110990000Y-99610000D01*
D37*
X115427500Y-100455000D02*
X113875000Y-100455000D01*
D34*
X118410000Y-108280000D02*
X118320000Y-108370000D01*
D37*
X113875000Y-100455000D02*
X113830000Y-100500000D01*
X115383100Y-100499400D02*
X115427500Y-100455000D01*
D34*
X119550000Y-108280000D02*
X118410000Y-108280000D01*
D37*
X118740000Y-113660000D02*
X118760000Y-113680000D01*
X113790000Y-123140000D02*
X113790000Y-124060000D01*
X114230000Y-122700000D02*
X113790000Y-123140000D01*
X118760000Y-113680000D02*
X118760000Y-121550000D01*
X117610000Y-122700000D02*
X114230000Y-122700000D01*
X118760000Y-121550000D02*
X117610000Y-122700000D01*
X113790000Y-124060000D02*
X113780000Y-124070000D01*
X92480000Y-112210000D02*
X92060000Y-112630000D01*
X92060000Y-112630000D02*
X87325600Y-112630000D01*
X87325600Y-112630000D02*
X87025800Y-112929800D01*
X92480000Y-113611428D02*
X91571428Y-114520000D01*
X91571428Y-114520000D02*
X89900000Y-114520000D01*
X87481400Y-115900000D02*
X87127400Y-115546000D01*
X91592856Y-115900000D02*
X87481400Y-115900000D01*
X92480000Y-115012856D02*
X91592856Y-115900000D01*
X91684284Y-117210000D02*
X89860000Y-117210000D01*
X92480000Y-116414284D02*
X91684284Y-117210000D01*
X87430000Y-118700000D02*
X87110000Y-118380000D01*
X92304288Y-117815712D02*
X91420000Y-118700000D01*
X92560000Y-117895712D02*
X92480000Y-117815712D01*
X92480000Y-117815712D02*
X92304288Y-117815712D01*
X91420000Y-118700000D02*
X87430000Y-118700000D01*
X91400000Y-120430000D02*
X89910000Y-120430000D01*
X89910000Y-120430000D02*
X89860000Y-120480000D01*
G04 #@! TA.AperFunction,Conductor*
G36*
X109416381Y-95270002D02*
G01*
X109462874Y-95323658D01*
X109474260Y-95375739D01*
X109477707Y-97040138D01*
X109493098Y-100644551D01*
X109508527Y-104257571D01*
X109488816Y-104325777D01*
X109435359Y-104372498D01*
X109383453Y-104384106D01*
X101897273Y-104439065D01*
X101829007Y-104419563D01*
X101782122Y-104366250D01*
X101770348Y-104312723D01*
X101770499Y-104257571D01*
X101789994Y-97131912D01*
X101790066Y-97128055D01*
X101849857Y-95371713D01*
X101872165Y-95304312D01*
X101927372Y-95259672D01*
X101975784Y-95250000D01*
X109348260Y-95250000D01*
X109416381Y-95270002D01*
G37*
G04 #@! TD.AperFunction*
G04 #@! TA.AperFunction,Conductor*
G36*
X117025706Y-105210463D02*
G01*
X117046342Y-105227061D01*
X117462911Y-105642809D01*
X117974836Y-106153726D01*
X118008381Y-106215016D01*
X118011241Y-106241348D01*
X118013216Y-107913366D01*
X117993611Y-107980428D01*
X117982930Y-107994714D01*
X117894623Y-108096627D01*
X117894622Y-108096628D01*
X117834834Y-108227543D01*
X117814353Y-108370000D01*
X117834834Y-108512456D01*
X117877931Y-108606823D01*
X117894623Y-108643373D01*
X117984009Y-108746531D01*
X118013034Y-108810086D01*
X118014296Y-108827587D01*
X118028758Y-121068567D01*
X118009153Y-121135629D01*
X117992456Y-121156377D01*
X117066362Y-122082832D01*
X117005046Y-122116329D01*
X116978566Y-122119168D01*
X112825776Y-122115883D01*
X112758752Y-122096145D01*
X112731584Y-122072415D01*
X112695358Y-122030000D01*
X110444643Y-122030000D01*
X110410112Y-122070430D01*
X110351604Y-122108623D01*
X110315724Y-122113898D01*
X101316358Y-122106781D01*
X101249334Y-122087043D01*
X101222165Y-122063312D01*
X101210796Y-122050000D01*
X100106558Y-122050000D01*
X100093434Y-122057166D01*
X100067076Y-122060000D01*
X98970080Y-122060000D01*
X98968899Y-122061383D01*
X98910391Y-122099575D01*
X98874512Y-122104850D01*
X94758540Y-122101595D01*
X94691516Y-122081857D01*
X94670957Y-122065276D01*
X94265681Y-121660000D01*
X98970080Y-121660000D01*
X99325438Y-121660000D01*
X99325438Y-121330000D01*
X99725438Y-121330000D01*
X99725438Y-121660000D01*
X100074318Y-121660000D01*
X100087442Y-121652834D01*
X100113800Y-121650000D01*
X100455438Y-121650000D01*
X100855438Y-121650000D01*
X101210795Y-121650000D01*
X101210794Y-121649999D01*
X101207627Y-121630000D01*
X110444642Y-121630000D01*
X110800000Y-121630000D01*
X111200000Y-121630000D01*
X111940000Y-121630000D01*
X112340000Y-121630000D01*
X112695357Y-121630000D01*
X112695356Y-121629999D01*
X112685534Y-121567982D01*
X112629447Y-121457906D01*
X112629444Y-121457901D01*
X112542098Y-121370555D01*
X112542093Y-121370551D01*
X112432015Y-121314463D01*
X112340691Y-121300000D01*
X112340000Y-121300000D01*
X112340000Y-121630000D01*
X111940000Y-121630000D01*
X111940000Y-121300000D01*
X111939310Y-121300001D01*
X111847982Y-121314465D01*
X111737906Y-121370552D01*
X111737901Y-121370555D01*
X111657681Y-121450776D01*
X111596358Y-121484261D01*
X111526666Y-121479277D01*
X111482319Y-121450776D01*
X111402098Y-121370555D01*
X111402093Y-121370551D01*
X111292015Y-121314463D01*
X111200691Y-121300000D01*
X111200000Y-121300000D01*
X111200000Y-121630000D01*
X110800000Y-121630000D01*
X110800000Y-121300000D01*
X110799310Y-121300001D01*
X110707982Y-121314465D01*
X110597906Y-121370552D01*
X110597901Y-121370555D01*
X110510555Y-121457901D01*
X110510551Y-121457906D01*
X110454463Y-121567983D01*
X110444642Y-121630000D01*
X101207627Y-121630000D01*
X101200972Y-121587982D01*
X101144885Y-121477906D01*
X101144882Y-121477901D01*
X101057536Y-121390555D01*
X101057531Y-121390551D01*
X100947453Y-121334463D01*
X100856129Y-121320000D01*
X100855438Y-121320000D01*
X100855438Y-121650000D01*
X100455438Y-121650000D01*
X100455438Y-121320000D01*
X100454748Y-121320001D01*
X100363420Y-121334465D01*
X100253344Y-121390552D01*
X100253339Y-121390555D01*
X100173119Y-121470776D01*
X100111796Y-121504261D01*
X100042104Y-121499277D01*
X99997757Y-121470776D01*
X99927536Y-121400555D01*
X99927531Y-121400551D01*
X99817453Y-121344463D01*
X99726129Y-121330000D01*
X99725438Y-121330000D01*
X99325438Y-121330000D01*
X99324748Y-121330001D01*
X99233420Y-121344465D01*
X99123344Y-121400552D01*
X99123339Y-121400555D01*
X99035993Y-121487901D01*
X99035989Y-121487906D01*
X98979901Y-121597983D01*
X98970080Y-121660000D01*
X94265681Y-121660000D01*
X94009971Y-121404290D01*
X93326819Y-120721137D01*
X93293334Y-120659814D01*
X93290500Y-120633456D01*
X93290500Y-120336035D01*
X93310185Y-120268996D01*
X93320782Y-120254837D01*
X93365377Y-120203373D01*
X93425165Y-120072457D01*
X93445647Y-119930000D01*
X93425165Y-119787543D01*
X93365377Y-119656627D01*
X93271128Y-119547857D01*
X93150053Y-119470047D01*
X93150051Y-119470046D01*
X93150049Y-119470045D01*
X93150050Y-119470045D01*
X93011963Y-119429500D01*
X93011961Y-119429500D01*
X92868039Y-119429500D01*
X92864000Y-119429500D01*
X92796961Y-119409815D01*
X92751206Y-119357011D01*
X92740000Y-119305500D01*
X92740000Y-118311275D01*
X92759685Y-118244236D01*
X92796962Y-118206959D01*
X92798155Y-118206191D01*
X92811128Y-118197855D01*
X92905377Y-118089085D01*
X92965165Y-117958169D01*
X92985647Y-117815712D01*
X92965165Y-117673255D01*
X92905377Y-117542339D01*
X92905375Y-117542337D01*
X92905374Y-117542334D01*
X92811133Y-117433574D01*
X92811129Y-117433571D01*
X92811128Y-117433569D01*
X92811126Y-117433567D01*
X92811122Y-117433564D01*
X92796958Y-117424461D01*
X92751204Y-117371656D01*
X92740000Y-117320148D01*
X92740000Y-116909847D01*
X92759685Y-116842808D01*
X92796962Y-116805531D01*
X92798155Y-116804763D01*
X92811128Y-116796427D01*
X92905377Y-116687657D01*
X92965165Y-116556741D01*
X92985647Y-116414284D01*
X92965165Y-116271827D01*
X92905377Y-116140911D01*
X92905375Y-116140909D01*
X92905374Y-116140906D01*
X92811133Y-116032146D01*
X92811129Y-116032143D01*
X92811128Y-116032141D01*
X92811126Y-116032139D01*
X92811122Y-116032136D01*
X92796958Y-116023033D01*
X92751204Y-115970228D01*
X92740000Y-115918720D01*
X92740000Y-115508419D01*
X92759685Y-115441380D01*
X92796962Y-115404103D01*
X92798155Y-115403335D01*
X92811128Y-115394999D01*
X92905377Y-115286229D01*
X92965165Y-115155313D01*
X92985647Y-115012856D01*
X92965165Y-114870399D01*
X92905377Y-114739483D01*
X92905375Y-114739481D01*
X92905374Y-114739478D01*
X92811133Y-114630718D01*
X92811129Y-114630715D01*
X92811128Y-114630713D01*
X92811126Y-114630711D01*
X92811122Y-114630708D01*
X92796958Y-114621605D01*
X92751204Y-114568800D01*
X92740000Y-114517292D01*
X92740000Y-114106991D01*
X92759685Y-114039952D01*
X92796962Y-114002675D01*
X92798155Y-114001907D01*
X92811128Y-113993571D01*
X92905377Y-113884801D01*
X92965165Y-113753885D01*
X92985647Y-113611428D01*
X92965165Y-113468971D01*
X92905377Y-113338055D01*
X92905375Y-113338053D01*
X92905374Y-113338050D01*
X92811133Y-113229290D01*
X92811129Y-113229287D01*
X92811128Y-113229285D01*
X92811126Y-113229283D01*
X92811122Y-113229280D01*
X92796958Y-113220177D01*
X92751204Y-113167372D01*
X92740000Y-113115864D01*
X92740000Y-112705563D01*
X92759685Y-112638524D01*
X92796962Y-112601247D01*
X92798155Y-112600479D01*
X92811128Y-112592143D01*
X92905377Y-112483373D01*
X92965165Y-112352457D01*
X92985647Y-112210000D01*
X92965165Y-112067543D01*
X92905377Y-111936627D01*
X92905375Y-111936625D01*
X92905374Y-111936622D01*
X92811133Y-111827862D01*
X92811129Y-111827859D01*
X92811128Y-111827857D01*
X92811126Y-111827855D01*
X92811122Y-111827852D01*
X92796958Y-111818749D01*
X92751204Y-111765944D01*
X92740000Y-111714436D01*
X92740000Y-110125689D01*
X96600001Y-110125689D01*
X96614465Y-110217017D01*
X96670552Y-110327093D01*
X96670555Y-110327098D01*
X96757901Y-110414444D01*
X96757906Y-110414447D01*
X96867982Y-110470534D01*
X96929999Y-110480356D01*
X96930000Y-110480356D01*
X96930000Y-110125000D01*
X96600001Y-110125000D01*
X96600001Y-110125689D01*
X92740000Y-110125689D01*
X92740000Y-109724308D01*
X96600000Y-109724308D01*
X96600000Y-109725000D01*
X96930000Y-109725000D01*
X96930000Y-109369641D01*
X96867983Y-109379463D01*
X96757906Y-109435551D01*
X96757901Y-109435555D01*
X96670555Y-109522901D01*
X96670551Y-109522906D01*
X96614463Y-109632984D01*
X96600000Y-109724308D01*
X92740000Y-109724308D01*
X92740000Y-106261334D01*
X92759685Y-106194295D01*
X92776284Y-106173687D01*
X92794257Y-106155700D01*
X93703717Y-105245520D01*
X93765026Y-105212012D01*
X93791330Y-105209168D01*
X100098406Y-105204176D01*
X100165457Y-105223807D01*
X100211254Y-105276574D01*
X100222500Y-105328175D01*
X100222500Y-105639742D01*
X100202815Y-105706781D01*
X100154795Y-105750226D01*
X100068612Y-105794138D01*
X100068603Y-105794145D01*
X100048681Y-105814068D01*
X99987358Y-105847553D01*
X99917666Y-105842569D01*
X99873319Y-105814068D01*
X99853396Y-105794145D01*
X99853393Y-105794143D01*
X99853391Y-105794141D01*
X99743175Y-105737983D01*
X99743174Y-105737982D01*
X99743171Y-105737981D01*
X99651735Y-105723500D01*
X99310260Y-105723500D01*
X99310260Y-105723501D01*
X99218829Y-105737981D01*
X99218828Y-105737981D01*
X99108607Y-105794142D01*
X99108603Y-105794145D01*
X99021145Y-105881603D01*
X99021142Y-105881608D01*
X98964981Y-105991827D01*
X98964981Y-105991828D01*
X98950500Y-106083264D01*
X98950500Y-106484739D01*
X98964981Y-106576170D01*
X98964981Y-106576171D01*
X98964982Y-106576174D01*
X98964983Y-106576175D01*
X98991828Y-106628862D01*
X99021142Y-106686392D01*
X99021144Y-106686395D01*
X99067180Y-106732430D01*
X99100666Y-106793753D01*
X99103500Y-106820112D01*
X99103500Y-107339964D01*
X99083815Y-107407003D01*
X99031011Y-107452758D01*
X98994976Y-107462095D01*
X98995078Y-107462738D01*
X98898829Y-107477981D01*
X98898828Y-107477981D01*
X98788607Y-107534142D01*
X98788603Y-107534145D01*
X98768681Y-107554068D01*
X98707358Y-107587553D01*
X98637666Y-107582569D01*
X98593319Y-107554068D01*
X98573396Y-107534145D01*
X98573393Y-107534143D01*
X98573391Y-107534141D01*
X98463175Y-107477983D01*
X98463174Y-107477982D01*
X98463171Y-107477981D01*
X98371735Y-107463500D01*
X98030260Y-107463500D01*
X98030260Y-107463501D01*
X97938829Y-107477981D01*
X97938828Y-107477981D01*
X97828607Y-107534142D01*
X97828603Y-107534145D01*
X97741145Y-107621603D01*
X97741142Y-107621608D01*
X97684981Y-107731827D01*
X97684981Y-107731828D01*
X97670500Y-107823264D01*
X97670500Y-107894530D01*
X97666275Y-107926622D01*
X97653500Y-107974299D01*
X97653500Y-109310347D01*
X97633815Y-109377386D01*
X97581011Y-109423141D01*
X97511853Y-109433085D01*
X97473205Y-109420832D01*
X97392016Y-109379463D01*
X97330000Y-109369641D01*
X97330000Y-110480356D01*
X97392017Y-110470534D01*
X97502093Y-110414447D01*
X97521963Y-110394578D01*
X97583286Y-110361092D01*
X97652977Y-110366075D01*
X97697331Y-110394581D01*
X97704159Y-110401409D01*
X97737639Y-110462735D01*
X97732650Y-110532426D01*
X97698698Y-110581899D01*
X97649518Y-110625468D01*
X97559781Y-110755475D01*
X97559780Y-110755476D01*
X97503762Y-110903181D01*
X97484722Y-111059999D01*
X97484722Y-111060000D01*
X97503762Y-111216818D01*
X97531517Y-111290000D01*
X97559780Y-111364523D01*
X97649517Y-111494530D01*
X97767760Y-111599283D01*
X97767762Y-111599284D01*
X97907634Y-111672696D01*
X98061014Y-111710500D01*
X98061015Y-111710500D01*
X98218985Y-111710500D01*
X98372365Y-111672696D01*
X98512240Y-111599283D01*
X98630483Y-111494530D01*
X98720220Y-111364523D01*
X98776237Y-111216818D01*
X98795278Y-111060000D01*
X98776237Y-110903182D01*
X98720220Y-110755477D01*
X98630483Y-110625470D01*
X98630481Y-110625468D01*
X98559273Y-110562383D01*
X98522146Y-110503194D01*
X98517500Y-110469568D01*
X98517500Y-110411112D01*
X98537185Y-110344073D01*
X98544210Y-110335355D01*
X98544120Y-110335290D01*
X98549851Y-110327398D01*
X98549859Y-110327391D01*
X98606017Y-110217175D01*
X98606017Y-110217173D01*
X98606018Y-110217172D01*
X98606018Y-110217171D01*
X98616312Y-110152175D01*
X98620500Y-110125735D01*
X98620499Y-109724266D01*
X98620499Y-109724265D01*
X98620499Y-109724260D01*
X98615282Y-109691321D01*
X98624237Y-109622028D01*
X98669233Y-109568576D01*
X98735985Y-109547937D01*
X98803298Y-109566662D01*
X98839805Y-109601485D01*
X98869514Y-109644527D01*
X98869516Y-109644529D01*
X98869517Y-109644530D01*
X98987760Y-109749283D01*
X98987762Y-109749284D01*
X99127634Y-109822696D01*
X99281014Y-109860500D01*
X99281015Y-109860500D01*
X99438985Y-109860500D01*
X99592365Y-109822696D01*
X99665087Y-109784528D01*
X99732240Y-109749283D01*
X99850483Y-109644530D01*
X99940220Y-109514523D01*
X99996237Y-109366818D01*
X100015278Y-109210000D01*
X99996237Y-109053182D01*
X99940220Y-108905477D01*
X99850483Y-108775470D01*
X99850481Y-108775468D01*
X99779273Y-108712383D01*
X99742146Y-108653194D01*
X99737500Y-108619568D01*
X99737500Y-108032728D01*
X99757185Y-107965689D01*
X99773822Y-107945044D01*
X99783074Y-107935792D01*
X99787215Y-107928620D01*
X99821059Y-107870000D01*
X99826460Y-107860644D01*
X99877026Y-107812430D01*
X99945633Y-107799206D01*
X100010498Y-107825174D01*
X100035896Y-107852204D01*
X100063317Y-107891930D01*
X100181560Y-107996683D01*
X100181562Y-107996684D01*
X100321434Y-108070096D01*
X100474814Y-108107900D01*
X100474815Y-108107900D01*
X100632785Y-108107900D01*
X100786165Y-108070096D01*
X100796278Y-108064788D01*
X100926040Y-107996683D01*
X101044283Y-107891930D01*
X101134020Y-107761923D01*
X101190037Y-107614218D01*
X101209078Y-107457400D01*
X101207708Y-107446112D01*
X101190037Y-107300581D01*
X101168792Y-107244564D01*
X101134020Y-107152877D01*
X101044283Y-107022870D01*
X101044282Y-107022869D01*
X101030271Y-107010456D01*
X100993146Y-106951266D01*
X100988500Y-106917642D01*
X100988500Y-106697844D01*
X104520000Y-106697844D01*
X104526401Y-106757372D01*
X104526403Y-106757379D01*
X104576645Y-106892086D01*
X104576649Y-106892093D01*
X104662809Y-107007187D01*
X104662812Y-107007190D01*
X104777906Y-107093350D01*
X104777913Y-107093354D01*
X104912620Y-107143596D01*
X104912627Y-107143598D01*
X104972155Y-107149999D01*
X104972172Y-107150000D01*
X105470000Y-107150000D01*
X105870000Y-107150000D01*
X106367828Y-107150000D01*
X106367844Y-107149999D01*
X106427372Y-107143598D01*
X106427379Y-107143596D01*
X106562086Y-107093354D01*
X106562093Y-107093350D01*
X106677187Y-107007190D01*
X106677190Y-107007187D01*
X106763350Y-106892093D01*
X106763354Y-106892086D01*
X106813596Y-106757379D01*
X106813598Y-106757372D01*
X106819999Y-106697844D01*
X106820000Y-106697827D01*
X106820000Y-106525000D01*
X105870000Y-106525000D01*
X105870000Y-107150000D01*
X105470000Y-107150000D01*
X105470000Y-106525000D01*
X104520000Y-106525000D01*
X104520000Y-106697844D01*
X100988500Y-106697844D01*
X100988500Y-106234303D01*
X100988500Y-106234301D01*
X100981724Y-106209015D01*
X100977500Y-106176925D01*
X100977500Y-105952155D01*
X104520000Y-105952155D01*
X104520000Y-106125000D01*
X105470000Y-106125000D01*
X105870000Y-106125000D01*
X106820000Y-106125000D01*
X106820000Y-105952172D01*
X106819999Y-105952155D01*
X106813598Y-105892627D01*
X106813596Y-105892620D01*
X106763354Y-105757913D01*
X106763350Y-105757906D01*
X106677190Y-105642812D01*
X106677187Y-105642809D01*
X106562093Y-105556649D01*
X106562086Y-105556645D01*
X106463835Y-105520000D01*
X107517043Y-105520000D01*
X107526865Y-105582017D01*
X107582952Y-105692093D01*
X107582955Y-105692098D01*
X107670301Y-105779444D01*
X107670306Y-105779448D01*
X107780384Y-105835536D01*
X107871703Y-105849999D01*
X108272400Y-105849999D01*
X108273089Y-105849999D01*
X108364417Y-105835534D01*
X108474493Y-105779447D01*
X108474498Y-105779444D01*
X108543519Y-105710424D01*
X108604842Y-105676939D01*
X108674534Y-105681923D01*
X108718881Y-105710424D01*
X108787901Y-105779444D01*
X108787906Y-105779448D01*
X108897984Y-105835536D01*
X108989303Y-105849999D01*
X109390000Y-105849999D01*
X109390689Y-105849999D01*
X109482017Y-105835534D01*
X109592093Y-105779447D01*
X109592098Y-105779444D01*
X109679444Y-105692098D01*
X109679448Y-105692093D01*
X109735536Y-105582016D01*
X109745358Y-105520000D01*
X109390000Y-105520000D01*
X109390000Y-105849999D01*
X108989303Y-105849999D01*
X108989999Y-105849998D01*
X108990000Y-105849998D01*
X108990000Y-105520000D01*
X108272400Y-105520000D01*
X108272400Y-105849999D01*
X107871703Y-105849999D01*
X107872399Y-105849998D01*
X107872400Y-105849998D01*
X107872400Y-105520000D01*
X107517043Y-105520000D01*
X106463835Y-105520000D01*
X106427379Y-105506403D01*
X106427372Y-105506401D01*
X106367844Y-105500000D01*
X105870000Y-105500000D01*
X105870000Y-106125000D01*
X105470000Y-106125000D01*
X105470000Y-105500000D01*
X104972155Y-105500000D01*
X104912627Y-105506401D01*
X104912620Y-105506403D01*
X104777913Y-105556645D01*
X104777906Y-105556649D01*
X104662812Y-105642809D01*
X104662809Y-105642812D01*
X104576649Y-105757906D01*
X104576645Y-105757913D01*
X104526403Y-105892620D01*
X104526401Y-105892627D01*
X104520000Y-105952155D01*
X100977500Y-105952155D01*
X100977500Y-105520000D01*
X101554643Y-105520000D01*
X101564465Y-105582017D01*
X101620552Y-105692093D01*
X101620555Y-105692098D01*
X101707901Y-105779444D01*
X101707906Y-105779448D01*
X101817984Y-105835536D01*
X101909303Y-105849999D01*
X102310000Y-105849999D01*
X102310689Y-105849999D01*
X102402017Y-105835534D01*
X102512093Y-105779447D01*
X102512098Y-105779444D01*
X102587319Y-105704224D01*
X102648642Y-105670739D01*
X102718334Y-105675723D01*
X102762681Y-105704224D01*
X102837901Y-105779444D01*
X102837906Y-105779448D01*
X102947984Y-105835536D01*
X103039303Y-105849999D01*
X103440000Y-105849999D01*
X103440689Y-105849999D01*
X103532017Y-105835534D01*
X103642093Y-105779447D01*
X103642098Y-105779444D01*
X103729444Y-105692098D01*
X103729448Y-105692093D01*
X103785536Y-105582016D01*
X103795358Y-105520000D01*
X103440000Y-105520000D01*
X103440000Y-105849999D01*
X103039303Y-105849999D01*
X103039999Y-105849998D01*
X103040000Y-105849998D01*
X103040000Y-105520000D01*
X102310000Y-105520000D01*
X102310000Y-105849999D01*
X101909303Y-105849999D01*
X101909999Y-105849998D01*
X101910000Y-105849998D01*
X101910000Y-105520000D01*
X101554643Y-105520000D01*
X100977500Y-105520000D01*
X100977500Y-105327381D01*
X100997185Y-105260342D01*
X101049989Y-105214587D01*
X101101395Y-105203382D01*
X105375000Y-105200000D01*
X110388405Y-105196031D01*
X110455457Y-105215663D01*
X110501254Y-105268430D01*
X110512500Y-105320031D01*
X110512500Y-106155700D01*
X110515275Y-106166056D01*
X110519500Y-106198148D01*
X110519500Y-106466739D01*
X110533981Y-106558170D01*
X110533981Y-106558171D01*
X110533982Y-106558174D01*
X110533983Y-106558175D01*
X110590141Y-106668391D01*
X110616181Y-106694431D01*
X110649666Y-106755752D01*
X110652500Y-106782112D01*
X110652500Y-107279568D01*
X110632815Y-107346607D01*
X110610727Y-107372383D01*
X110539518Y-107435468D01*
X110449781Y-107565475D01*
X110449780Y-107565476D01*
X110393762Y-107713181D01*
X110374722Y-107869999D01*
X110374722Y-107870000D01*
X110393762Y-108026818D01*
X110420238Y-108096628D01*
X110449780Y-108174523D01*
X110539517Y-108304530D01*
X110657760Y-108409283D01*
X110657762Y-108409284D01*
X110797634Y-108482696D01*
X110951014Y-108520500D01*
X110951015Y-108520500D01*
X111108985Y-108520500D01*
X111262365Y-108482696D01*
X111304756Y-108460447D01*
X111402240Y-108409283D01*
X111520483Y-108304530D01*
X111597671Y-108192702D01*
X111651953Y-108148712D01*
X111721402Y-108141052D01*
X111783967Y-108172155D01*
X111819784Y-108232145D01*
X111822194Y-108243744D01*
X111833981Y-108318171D01*
X111833982Y-108318174D01*
X111833983Y-108318175D01*
X111890141Y-108428391D01*
X111976182Y-108514432D01*
X112009666Y-108575753D01*
X112012500Y-108602112D01*
X112012500Y-108759568D01*
X111992815Y-108826607D01*
X111970727Y-108852383D01*
X111899518Y-108915468D01*
X111809781Y-109045475D01*
X111809780Y-109045476D01*
X111753762Y-109193181D01*
X111734722Y-109349999D01*
X111734722Y-109350000D01*
X111753762Y-109506818D01*
X111789665Y-109601485D01*
X111809780Y-109654523D01*
X111899517Y-109784530D01*
X112017760Y-109889283D01*
X112017762Y-109889284D01*
X112157634Y-109962696D01*
X112311014Y-110000500D01*
X112311015Y-110000500D01*
X112468985Y-110000500D01*
X112622365Y-109962696D01*
X112737875Y-109902070D01*
X112806381Y-109888345D01*
X112871435Y-109913837D01*
X112912380Y-109970452D01*
X112919500Y-110011865D01*
X112919500Y-110060738D01*
X112919501Y-110060739D01*
X112933981Y-110152170D01*
X112933981Y-110152171D01*
X112933982Y-110152174D01*
X112933983Y-110152175D01*
X112990141Y-110262391D01*
X113056182Y-110328432D01*
X113089666Y-110389753D01*
X113092500Y-110416112D01*
X113092500Y-110699568D01*
X113072815Y-110766607D01*
X113050727Y-110792383D01*
X112979518Y-110855468D01*
X112889781Y-110985475D01*
X112889780Y-110985476D01*
X112833762Y-111133181D01*
X112814722Y-111289999D01*
X112814722Y-111290000D01*
X112833762Y-111446818D01*
X112889780Y-111594523D01*
X112979517Y-111724530D01*
X113097760Y-111829283D01*
X113097762Y-111829284D01*
X113237634Y-111902696D01*
X113391014Y-111940500D01*
X113391015Y-111940500D01*
X113548985Y-111940500D01*
X113702365Y-111902696D01*
X113842240Y-111829283D01*
X113960483Y-111724530D01*
X114050220Y-111594523D01*
X114106237Y-111446818D01*
X114125278Y-111290000D01*
X114106237Y-111133182D01*
X114050220Y-110985477D01*
X113960483Y-110855470D01*
X113960481Y-110855468D01*
X113889273Y-110792383D01*
X113852146Y-110733194D01*
X113847500Y-110699568D01*
X113847500Y-110454473D01*
X113867185Y-110387434D01*
X113919989Y-110341679D01*
X113989147Y-110331735D01*
X114027952Y-110347490D01*
X114029212Y-110345018D01*
X114147982Y-110405534D01*
X114209999Y-110415356D01*
X114210000Y-110415356D01*
X114610000Y-110415356D01*
X114672017Y-110405534D01*
X114782093Y-110349447D01*
X114782098Y-110349444D01*
X114869444Y-110262098D01*
X114869448Y-110262093D01*
X114925536Y-110152015D01*
X114940000Y-110060691D01*
X114940000Y-110060000D01*
X114610000Y-110060000D01*
X114610000Y-110415356D01*
X114210000Y-110415356D01*
X114210000Y-109660000D01*
X114610000Y-109660000D01*
X114939999Y-109660000D01*
X114939999Y-109659310D01*
X114925534Y-109567982D01*
X114869447Y-109457906D01*
X114869444Y-109457901D01*
X114782098Y-109370555D01*
X114782093Y-109370551D01*
X114672015Y-109314463D01*
X114672016Y-109314463D01*
X114610000Y-109304641D01*
X114610000Y-109660000D01*
X114210000Y-109660000D01*
X114210000Y-109304641D01*
X114147983Y-109314463D01*
X114037795Y-109370608D01*
X113969126Y-109383504D01*
X113904385Y-109357228D01*
X113864128Y-109300121D01*
X113857500Y-109260123D01*
X113857500Y-107976303D01*
X113857500Y-107976301D01*
X113844724Y-107928620D01*
X113840499Y-107896527D01*
X113840499Y-107825260D01*
X113826018Y-107733829D01*
X113826018Y-107733828D01*
X113826017Y-107733826D01*
X113826017Y-107733825D01*
X113769859Y-107623609D01*
X113769857Y-107623607D01*
X113769854Y-107623603D01*
X113682396Y-107536145D01*
X113682393Y-107536143D01*
X113682391Y-107536141D01*
X113572175Y-107479983D01*
X113572174Y-107479982D01*
X113572171Y-107479981D01*
X113480735Y-107465500D01*
X113139260Y-107465500D01*
X113139260Y-107465501D01*
X113047829Y-107479981D01*
X113047828Y-107479981D01*
X112937607Y-107536142D01*
X112937603Y-107536145D01*
X112917681Y-107556068D01*
X112856358Y-107589553D01*
X112786666Y-107584569D01*
X112742319Y-107556068D01*
X112722396Y-107536145D01*
X112722392Y-107536142D01*
X112722391Y-107536141D01*
X112677271Y-107513151D01*
X112625204Y-107486621D01*
X112574409Y-107438647D01*
X112557500Y-107376137D01*
X112557500Y-106216303D01*
X112557500Y-106216301D01*
X112544724Y-106168620D01*
X112540499Y-106136527D01*
X112540499Y-106065260D01*
X112526018Y-105973829D01*
X112526018Y-105973828D01*
X112526017Y-105973826D01*
X112526017Y-105973825D01*
X112469859Y-105863609D01*
X112469857Y-105863607D01*
X112469854Y-105863603D01*
X112382396Y-105776145D01*
X112382393Y-105776143D01*
X112382391Y-105776141D01*
X112272175Y-105719983D01*
X112272174Y-105719982D01*
X112272171Y-105719981D01*
X112180735Y-105705500D01*
X111839260Y-105705500D01*
X111839260Y-105705501D01*
X111747829Y-105719981D01*
X111747828Y-105719981D01*
X111637607Y-105776142D01*
X111637603Y-105776145D01*
X111617681Y-105796068D01*
X111556358Y-105829553D01*
X111486666Y-105824569D01*
X111442319Y-105796068D01*
X111422396Y-105776145D01*
X111422392Y-105776142D01*
X111422391Y-105776141D01*
X111386617Y-105757913D01*
X111335204Y-105731716D01*
X111284409Y-105683741D01*
X111267500Y-105621232D01*
X111267500Y-105319236D01*
X111287185Y-105252197D01*
X111339989Y-105206442D01*
X111391392Y-105195238D01*
X116958653Y-105190831D01*
X117025706Y-105210463D01*
G37*
G04 #@! TD.AperFunction*
G04 #@! TA.AperFunction,Conductor*
G36*
X114451524Y-78346790D02*
G01*
X114497374Y-78399512D01*
X114508666Y-78452544D01*
X114479872Y-81163277D01*
X114459476Y-81230104D01*
X114406189Y-81275295D01*
X114394202Y-81279889D01*
X114389701Y-81281351D01*
X114335463Y-81308986D01*
X114276658Y-81338950D01*
X114276657Y-81338951D01*
X114276652Y-81338954D01*
X114186954Y-81428652D01*
X114186951Y-81428657D01*
X114129352Y-81541698D01*
X114129352Y-81541699D01*
X114109508Y-81666996D01*
X114109508Y-81667003D01*
X114129352Y-81792300D01*
X114129352Y-81792301D01*
X114129354Y-81792304D01*
X114186950Y-81905342D01*
X114186952Y-81905344D01*
X114186954Y-81905347D01*
X114276652Y-81995045D01*
X114276654Y-81995046D01*
X114276658Y-81995050D01*
X114389696Y-82052646D01*
X114389698Y-82052646D01*
X114398392Y-82057076D01*
X114396979Y-82059847D01*
X114441181Y-82090071D01*
X114468379Y-82154430D01*
X114469180Y-82169882D01*
X114441300Y-84794537D01*
X114420904Y-84861364D01*
X114367617Y-84906555D01*
X114317531Y-84917220D01*
X111462766Y-84922367D01*
X111395691Y-84902803D01*
X111374861Y-84886048D01*
X111144481Y-84655668D01*
X111070201Y-84624900D01*
X111070200Y-84624900D01*
X104685655Y-84624900D01*
X104618616Y-84605215D01*
X104597974Y-84588581D01*
X104528347Y-84518954D01*
X104528344Y-84518952D01*
X104528342Y-84518950D01*
X104415304Y-84461354D01*
X104415303Y-84461353D01*
X104415300Y-84461352D01*
X104290003Y-84441508D01*
X104289997Y-84441508D01*
X104164699Y-84461352D01*
X104164698Y-84461352D01*
X104089337Y-84499751D01*
X104051658Y-84518950D01*
X104051657Y-84518951D01*
X104051652Y-84518954D01*
X103961954Y-84608652D01*
X103961951Y-84608657D01*
X103961950Y-84608658D01*
X103952314Y-84627570D01*
X103904352Y-84721698D01*
X103904352Y-84721699D01*
X103886939Y-84831643D01*
X103857010Y-84894778D01*
X103797698Y-84931709D01*
X103764690Y-84936245D01*
X99125009Y-84944610D01*
X99057934Y-84925046D01*
X99037104Y-84908291D01*
X97862016Y-83733203D01*
X97828531Y-83671880D01*
X97825722Y-83643087D01*
X97927606Y-78478332D01*
X97948609Y-78411696D01*
X98002305Y-78366992D01*
X98051355Y-78356780D01*
X111427439Y-78332577D01*
X111447023Y-78334101D01*
X111500000Y-78342492D01*
X111554640Y-78333837D01*
X111573791Y-78332312D01*
X114384449Y-78327227D01*
X114451524Y-78346790D01*
G37*
G04 #@! TD.AperFunction*
M02*
