M48
; DRILL file {KiCad 8.0.4} date 2024-12-27T03:35:12+0100
; FORMAT={-:-/ absolute / metric / decimal}
; #@! TF.CreationDate,2024-12-27T03:35:12+01:00
; #@! TF.GenerationSoftware,Kicad,Pcbnew,8.0.4
; #@! TF.FileFunction,Plated,1,4,PTH
FMAT,2
METRIC
; #@! TA.AperFunction,Plated,PTH,ViaDrill
T1C0.300
; #@! TA.AperFunction,Plated,PTH,ComponentDrill
T2C0.300
; #@! TA.AperFunction,Plated,PTH,ViaDrill
T3C0.400
; #@! TA.AperFunction,Plated,PTH,ComponentDrill
T4C0.500
; #@! TA.AperFunction,Plated,PTH,ViaDrill
T5C0.600
; #@! TA.AperFunction,Plated,PTH,ComponentDrill
T6C1.000
; #@! TA.AperFunction,Plated,PTH,ComponentDrill
T7C1.067
; #@! TA.AperFunction,Plated,PTH,ComponentDrill
T8C3.000
%
G90
G05
T1
X86.614Y-78.994
X91.4Y-120.43
X91.44Y-52.705
X92.18Y-119.96
X92.48Y-112.21
X92.48Y-113.611
X92.48Y-115.013
X92.48Y-116.414
X92.48Y-117.816
X92.94Y-119.93
X94.318Y-134.23
X94.34Y-133.58
X94.66Y-78.317
X96.635Y-88.38
X98.679Y-75.184
X100.838Y-74.422
X101.25Y-77.567
X104.29Y-84.847
X106.426Y-144.78
X110.74Y-85.377
X111.5Y-77.937
X112.38Y-86.807
X113.77Y-99.77
X113.8Y-98.95
X113.83Y-100.5
X114.3Y-86.487
X114.515Y-81.667
X114.935Y-84.328
X115.443Y-85.09
X117.483Y-82.296
X117.602Y-78.232
X117.602Y-79.502
X117.602Y-80.772
X118.32Y-108.37
X118.74Y-113.66
X119.42Y-114.79
X119.42Y-118.02
X119.43Y-116.25
X119.761Y-86.106
X120.142Y-82.55
X120.523Y-84.074
X124.079Y-74.549
X124.54Y-121.82
X126.619Y-78.486
X126.619Y-89.154
T2
X108.09Y-81.417
X109.09Y-80.137
X109.09Y-81.417
X109.09Y-82.697
X110.49Y-80.137
X110.49Y-81.417
X110.49Y-82.697
X111.89Y-80.137
X111.89Y-81.417
X111.89Y-82.697
X112.89Y-81.417
T3
X91.91Y-78.347
X92.68Y-133.37
X95.55Y-135.97
X95.56Y-126.33
X96.6Y-108.92
X98.05Y-114.26
X98.14Y-111.06
X98.44Y-121.49
X99.18Y-123.71
X99.36Y-109.21
X99.37Y-119.24
X99.51Y-80.427
X99.71Y-131.42
X100.554Y-107.457
X100.77Y-123.7
X101.5Y-80.427
X102.489Y-97.79
X102.489Y-99.06
X102.489Y-100.33
X102.489Y-101.6
X102.489Y-102.87
X103.58Y-80.447
X103.604Y-137.538
X103.604Y-141.088
X103.759Y-97.79
X103.759Y-99.06
X103.759Y-100.33
X103.759Y-101.6
X103.759Y-102.87
X104.49Y-115.746
X104.49Y-116.84
X104.49Y-117.76
X104.49Y-118.7
X104.49Y-119.91
X104.64Y-130.47
X104.648Y-74.168
X105.029Y-97.79
X105.029Y-99.06
X105.029Y-100.33
X105.029Y-101.6
X105.537Y-75.438
X105.54Y-132.55
X105.61Y-78.747
X105.61Y-80.457
X105.61Y-116.83
X105.62Y-82.057
X105.63Y-118.7
X105.664Y-76.835
X106.299Y-97.79
X106.299Y-99.06
X106.299Y-100.33
X106.299Y-101.6
X106.74Y-115.766
X106.74Y-116.86
X106.74Y-117.78
X106.74Y-118.72
X106.74Y-119.93
X107.569Y-97.79
X107.569Y-99.06
X107.569Y-100.33
X107.569Y-101.6
X107.569Y-102.87
X108.077Y-139.836
X108.29Y-131.179
X108.839Y-97.79
X108.839Y-99.06
X108.839Y-100.33
X108.839Y-101.6
X108.839Y-102.87
X110.95Y-124.99
X110.97Y-123.7
X111.03Y-107.87
X112.18Y-119.26
X112.18Y-120.8
X112.28Y-93.737
X112.39Y-109.35
X112.98Y-114.27
X113.18Y-130.22
X113.47Y-111.29
X113.58Y-132.65
X115.26Y-109.04
X116.05Y-128.01
X116.205Y-103.505
X116.77Y-124.08
X116.99Y-98.2
X117.09Y-100.36
X119.28Y-103.505
X121.58Y-112.4
X122.64Y-102.46
X122.93Y-99.7
X123.71Y-120.23
X123.75Y-117.53
X124.6Y-101.83
T4
X76.25Y-51.054
X76.25Y-143.855
X76.909Y-49.463
X76.909Y-52.645
X76.909Y-142.264
X76.909Y-145.446
X78.5Y-48.804
X78.5Y-53.304
X78.5Y-141.605
X78.5Y-146.105
X80.091Y-49.463
X80.091Y-52.645
X80.091Y-142.264
X80.091Y-145.446
X80.75Y-51.054
X80.75Y-143.855
X130.25Y-51.121
X130.25Y-143.728
X130.909Y-49.53
X130.909Y-52.712
X130.909Y-142.137
X130.909Y-145.319
X132.5Y-48.871
X132.5Y-53.371
X132.5Y-141.478
X132.5Y-145.978
X134.091Y-49.53
X134.091Y-52.712
X134.091Y-142.137
X134.091Y-145.319
X134.75Y-51.121
X134.75Y-143.728
T5
X92.202Y-85.725
X92.202Y-88.519
X92.202Y-91.059
X92.202Y-93.599
X92.21Y-83.058
X113.665Y-67.405
X113.665Y-68.802
X115.005Y-67.405
X115.045Y-68.805
X116.332Y-67.405
X116.372Y-68.805
X117.729Y-67.405
X117.729Y-68.802
X119.126Y-67.405
X119.126Y-68.802
T6
X84.25Y-49.022
X84.25Y-71.942
X86.79Y-49.022
X86.79Y-71.942
X89.33Y-49.022
X89.33Y-71.942
X91.87Y-49.022
X91.87Y-71.942
X94.41Y-49.022
X94.41Y-71.942
X96.95Y-49.022
X96.95Y-71.942
X99.49Y-49.022
X99.49Y-71.942
X102.03Y-49.022
X102.03Y-71.942
X104.57Y-49.022
X104.57Y-71.942
X107.11Y-49.022
X107.11Y-71.942
X109.65Y-49.022
X109.65Y-71.942
X112.19Y-49.022
X112.19Y-71.942
T7
X96.382Y-143.241
X98.922Y-143.241
X101.462Y-143.241
X104.002Y-143.241
T8
X78.5Y-51.054
X78.5Y-143.855
X132.5Y-51.121
X132.5Y-143.728
M30
